<svg width="24" height="24" viewBox="0 0 24 24" fill="none" xmlns="http://www.w3.org/2000/svg">
<path d="M12 0C5.37188 0 0 5.37188 0 12C0 18.6281 5.37188 24 12 24C18.6281 24 24 18.6281 24 12C24 5.37188 18.6281 0 12 0ZM19.4906 19.4859C18.5156 20.4609 17.3859 21.225 16.125 21.7547C14.8219 22.3078 13.4344 22.5844 12 22.5844C10.5703 22.5844 9.18281 22.3031 7.875 21.7547C6.61406 21.2203 5.47969 20.4563 4.50937 19.4859C3.53437 18.5109 2.77031 17.3813 2.24063 16.1203C1.6875 14.8172 1.40625 13.4297 1.40625 12C1.40625 10.5703 1.6875 9.18281 2.23594 7.875C2.77031 6.61406 3.53437 5.47969 4.50469 4.50937C5.48438 3.53437 6.61406 2.77031 7.875 2.23594C9.18281 1.6875 10.5703 1.40625 12 1.40625C13.4297 1.40625 14.8172 1.6875 16.125 2.23594C17.3859 2.77031 18.5203 3.53438 19.4906 4.50469C20.4656 5.47969 21.2297 6.60937 21.7594 7.87031C22.3125 9.17344 22.5891 10.5609 22.5891 11.9953C22.5891 13.425 22.3078 14.8125 21.7594 16.1203C21.225 17.3813 20.4609 18.5156 19.4906 19.4859Z" fill="black"/>
<path d="M8.64375 9.53516H6.30469V17.0211H8.64375V9.53516Z" fill="black"/>
<path d="M7.4248 6C6.5623 6 5.99512 6.55781 5.99512 7.29844C5.99512 8.025 6.54355 8.59687 7.39199 8.59687H7.41074C8.29199 8.59687 8.84043 8.02031 8.83574 7.29844C8.81699 6.55781 8.2873 6 7.4248 6Z" fill="black"/>
<path d="M15.0324 9.46484C13.6918 9.46484 12.8527 10.1961 12.698 10.7117V9.53516H10.0684C10.1012 10.1586 10.0684 17.0211 10.0684 17.0211H12.698V12.9758C12.698 12.7461 12.6887 12.5211 12.7543 12.3617C12.9324 11.9117 13.3215 11.443 14.0199 11.443C14.934 11.443 15.3465 12.1367 15.3465 13.1492V17.0211H17.9996V12.8586C17.9996 10.543 16.6965 9.46484 15.0324 9.46484Z" fill="black"/>
</svg>
