<svg width="19" height="22" viewBox="0 0 19 22" fill="none" xmlns="http://www.w3.org/2000/svg">
<path fill-rule="evenodd" clip-rule="evenodd" d="M9.70976 0.999833C9.70985 0.723756 9.93368 0.5 10.2098 0.5H12.7245V1.5H10.7096L10.7052 14.7777C10.7052 14.7801 10.7051 14.7826 10.7051 14.7851C10.705 14.7886 10.705 14.7921 10.7048 14.7956C10.6395 16.6043 9.14915 18.0591 7.32392 18.0591C6.18841 18.0591 5.19354 17.4956 4.57703 16.6512L5.22744 16.1764L4.58074 16.6452C4.1783 16.09 3.93808 15.4077 3.93808 14.6661C3.93808 12.7977 5.45601 11.2778 7.324 11.2778C7.4439 11.2778 7.56194 11.2848 7.67766 11.2977V8.85349C7.56045 8.84571 7.44275 8.84149 7.324 8.84149C7.32595 8.84149 7.32388 8.84159 7.31677 8.84193C7.30708 8.84239 7.28801 8.84329 7.25696 8.84501C7.23428 8.84625 7.20876 8.84772 7.18164 8.8493L7.18167 8.85067C7.16797 8.85097 7.15429 8.85131 7.14063 8.85171C7.12626 8.85256 7.11164 8.85342 7.09692 8.85429L7.09639 8.85432C7.03911 8.85771 6.98044 8.86119 6.93285 8.86381C6.90343 8.86543 6.86638 8.86745 6.83699 8.86836C3.85522 9.11007 1.5 11.6183 1.5 14.6707C1.5 16.2011 2.09314 17.5948 3.06433 18.6396C4.12979 19.7827 5.64628 20.5 7.32392 20.5C10.5319 20.5 13.1478 17.8867 13.1478 14.6707V7.68211C13.1478 7.4946 13.2527 7.32286 13.4195 7.23726C13.5863 7.15165 13.787 7.16659 13.9393 7.27593C15.0761 8.09201 16.4451 8.60775 17.9267 8.70306V6.25935C17.7198 6.23968 17.5174 6.20793 17.3196 6.16494C16.2021 5.92791 15.2215 5.33162 14.4908 4.51495C14.4905 4.51477 14.4902 4.51459 14.49 4.51441L14.4901 4.5142C14.475 4.49725 14.4599 4.4802 14.445 4.46307C13.7384 3.65305 13.2774 2.62729 13.1714 1.5H12.7294V0.5H13.648C13.9241 0.5 14.148 0.723858 14.148 1C14.148 2.073 14.5421 3.05312 15.1986 3.80573L15.1986 3.8058C15.7992 4.49461 16.6096 4.99236 17.5282 5.18693L17.5309 5.18751C17.8162 5.24961 18.1146 5.28293 18.4267 5.28293C18.7028 5.28293 18.9267 5.50679 18.9267 5.78293V9.2191C18.9267 9.49524 18.7028 9.7191 18.4267 9.7191C16.8729 9.7191 15.4116 9.30942 14.1478 8.59432V14.6707C14.1478 18.4387 11.0846 21.5 7.32392 21.5C5.35492 21.5 3.57741 20.657 2.33232 19.3209L2.33191 19.3204C1.1967 18.0992 0.5 16.4651 0.5 14.6707C0.5 10.9794 3.43904 7.96601 7.09628 7.85259C7.13394 7.85037 7.17037 7.84826 7.20193 7.84652C7.24113 7.84436 7.29386 7.84149 7.324 7.84149C7.6429 7.84149 7.94847 7.86686 8.24387 7.90632C8.49221 7.9395 8.67766 8.15137 8.67766 8.40192V11.9124C8.67766 12.0713 8.60212 12.2208 8.47416 12.315C8.34621 12.4092 8.18108 12.437 8.02932 12.3899C7.80118 12.319 7.56373 12.2778 7.324 12.2778C6.00909 12.2778 4.93808 13.3491 4.93808 14.6661C4.93808 15.1877 5.10615 15.6662 5.39038 16.0582L5.38506 16.0621C5.82641 16.6662 6.5295 17.0591 7.32392 17.0591C8.60431 17.0591 9.65474 16.0386 9.70516 14.768L9.70976 0.999833Z" fill="black"/>
</svg>
