<svg width="25" height="25" viewBox="0 0 25 25" fill="none" xmlns="http://www.w3.org/2000/svg">
<path d="M3.53615 11.8319C3.53615 11.6377 3.60089 11.4677 3.73847 11.3301C3.87605 11.2006 4.046 11.1359 4.22404 11.1359H5.87497C6.06111 11.1359 6.21487 11.2006 6.34436 11.3382C6.46575 11.4758 6.53049 11.6377 6.53049 11.8319C6.53049 12.0261 6.47384 12.188 6.35245 12.3255C6.23106 12.4631 6.0692 12.5279 5.88307 12.5279H4.23213C4.046 12.5279 3.88414 12.4631 3.74656 12.3255C3.67952 12.2621 3.62625 12.1855 3.59005 12.1006C3.55385 12.0157 3.53551 11.9242 3.53615 11.8319ZM5.8507 17.4402C5.8507 17.2541 5.91544 17.0922 6.03683 16.9465L7.22648 15.7893C7.34787 15.6598 7.50972 15.6031 7.70395 15.6031C7.89818 15.6031 8.06004 15.6679 8.18952 15.7893C8.31901 15.9107 8.38375 16.0644 8.38375 16.2506C8.38375 16.4448 8.31901 16.6228 8.18952 16.7685L7.04034 17.9177C6.70853 18.1767 6.37673 18.1767 6.04492 17.9177C5.98185 17.8554 5.9321 17.781 5.89871 17.6989C5.86532 17.6168 5.84898 17.5288 5.8507 17.4402ZM5.8507 6.23974C5.8507 6.05361 5.91544 5.89175 6.03683 5.74608C6.19869 5.6085 6.36864 5.54376 6.55477 5.54376C6.73281 5.54376 6.89467 5.6085 7.03225 5.73799L8.18952 6.92763C8.31901 7.04902 8.38375 7.21088 8.38375 7.40511C8.38375 7.59933 8.31901 7.76119 8.18952 7.89068C8.06004 8.02016 7.89818 8.0849 7.70395 8.0849C7.50972 8.0849 7.34787 8.02016 7.22648 7.89068L6.04492 6.7334C5.981 6.66842 5.93085 6.5912 5.89747 6.50638C5.8641 6.42155 5.84819 6.33086 5.8507 6.23974ZM7.91436 11.8319C7.91436 11.0792 8.1005 10.3752 8.48086 9.72775C8.86122 9.08032 9.37107 8.56238 10.0266 8.18202C10.6821 7.80165 11.3781 7.61552 12.1307 7.61552C12.6972 7.61552 13.2394 7.72882 13.7655 7.95542C14.2834 8.18202 14.7366 8.48145 15.1089 8.86181C15.4892 9.24218 15.7887 9.68728 16.0072 10.2052C16.2257 10.7232 16.339 11.2735 16.339 11.84C16.339 12.6007 16.1529 13.3048 15.7725 13.9522C15.3921 14.5996 14.8823 15.1095 14.2349 15.4898C13.5874 15.8702 12.8834 16.0563 12.1226 16.0563C11.3619 16.0563 10.6578 15.8702 10.0104 15.4898C9.36298 15.1095 8.85313 14.5996 8.47277 13.9522C8.10859 13.2967 7.91436 12.5926 7.91436 11.8319ZM9.29014 11.8319C9.29014 12.625 9.5653 13.2967 10.1237 13.8551C10.674 14.4135 11.3457 14.6967 12.1388 14.6967C12.9319 14.6967 13.6036 14.4135 14.162 13.8551C14.7204 13.2967 15.0037 12.625 15.0037 11.8319C15.0037 11.055 14.7204 10.3914 14.162 9.83295C13.6036 9.28264 12.9319 9.00749 12.1388 9.00749C11.3538 9.00749 10.6821 9.28264 10.1318 9.83295C9.5653 10.3914 9.29014 11.055 9.29014 11.8319ZM11.4428 18.1281C11.4428 17.9339 11.5076 17.772 11.6452 17.6425C11.7827 17.513 11.9446 17.4483 12.1307 17.4483C12.325 17.4483 12.4949 17.513 12.6244 17.6425C12.7539 17.772 12.8186 17.9339 12.8186 18.1281V19.7386C12.8186 19.9328 12.7539 20.1027 12.6163 20.2403C12.4787 20.3779 12.3169 20.4426 12.1307 20.4426C11.9446 20.4426 11.7746 20.3779 11.6452 20.2403C11.5791 20.1748 11.5271 20.0966 11.4923 20.0103C11.4575 19.924 11.4407 19.8316 11.4428 19.7386V18.1281ZM11.4428 5.58422V3.93329C11.4428 3.74715 11.5076 3.5853 11.6452 3.44772C11.7827 3.31014 11.9446 3.2373 12.1388 3.2373C12.333 3.2373 12.4868 3.30205 12.6244 3.43963C12.762 3.5772 12.8267 3.73906 12.8267 3.92519V5.58422C12.8267 5.77036 12.762 5.92412 12.6244 6.05361C12.4868 6.18309 12.325 6.23974 12.1388 6.23974C11.9527 6.23974 11.7827 6.175 11.6532 6.05361C11.5238 5.93221 11.4428 5.77036 11.4428 5.58422ZM15.9101 16.2506C15.9101 16.0644 15.9748 15.9107 16.0962 15.7974C16.2176 15.6679 16.3714 15.6112 16.5494 15.6112C16.7436 15.6112 16.9055 15.676 17.035 15.7974L18.2165 16.9546C18.346 17.0922 18.4108 17.2622 18.4108 17.4483C18.4108 17.6344 18.346 17.7963 18.2165 17.9258C17.8928 18.1767 17.5691 18.1767 17.2454 17.9258L16.0962 16.7766C15.9721 16.6298 15.9059 16.4427 15.9101 16.2506ZM15.9101 7.4132C15.9101 7.21088 15.9748 7.04902 16.0962 6.93572L17.2454 5.74608C17.3729 5.62116 17.5444 5.5514 17.7229 5.55185C17.9171 5.55185 18.0789 5.61659 18.2084 5.75417C18.346 5.89175 18.4108 6.05361 18.4108 6.23974C18.4108 6.44206 18.346 6.61201 18.2165 6.7415L17.035 7.89877C16.8893 8.02825 16.7274 8.093 16.5494 8.093C16.3633 8.093 16.2176 8.02825 16.0962 7.89877C15.9748 7.76928 15.9101 7.60743 15.9101 7.4132ZM17.739 11.8319C17.739 11.6377 17.8038 11.4758 17.9333 11.3301C18.0628 11.2006 18.2165 11.1359 18.3946 11.1359H20.0293C20.2155 11.1359 20.3773 11.2087 20.5149 11.3463C20.6525 11.4839 20.7253 11.6457 20.7253 11.8319C20.7253 12.018 20.6525 12.1799 20.5149 12.3174C20.3773 12.455 20.2155 12.5198 20.0293 12.5198H18.3946C18.2084 12.5198 18.0466 12.455 17.9252 12.3174C17.8038 12.1799 17.739 12.0261 17.739 11.8319Z" fill="white"/>
</svg>
