<svg width="19" height="20" viewBox="0 0 19 20" fill="none" xmlns="http://www.w3.org/2000/svg">
<path d="M3.40022 5C3.06022 5.55 3.00022 5.97 3.00022 6.38C3.00022 7.15 4.00022 9 4.00022 10C4.00022 10.95 3.60022 11.5 3.60022 11.5H2.10022C2.10022 11.5 2.50022 10.95 2.50022 10C2.50022 9 1.50022 7.15 1.50022 6.38C1.50022 5.97 1.56022 5.55 1.90022 5H3.40022ZM8.40022 5C8.06022 5.55 8.00022 5.97 8.00022 6.38C8.00022 7.15 9.00022 9 9.00022 10C9.00022 10.95 8.60022 11.5 8.60022 11.5H10.1002C10.1002 11.5 10.5002 10.95 10.5002 10C10.5002 9 9.50022 7.15 9.50022 6.38C9.50022 5.97 9.56022 5.55 9.90022 5H8.40022ZM5.15022 5C4.81022 5.55 4.75022 5.97 4.75022 6.38C4.75022 7.15 5.75022 9.01 5.75022 10C5.75022 10.95 5.35022 11.5 5.35022 11.5H6.85022C6.85022 11.5 7.25022 10.95 7.25022 10C7.25022 9 6.25022 7.15 6.25022 6.38C6.25022 5.97 6.31022 5.55 6.65022 5H5.15022ZM15.6002 0C14.0602 0 12.7902 1.16 12.6202 2.65L11.5302 13H1.01022C0.410217 13 -0.0797836 13.53 0.0102164 14.13C0.530216 17.46 3.39022 20 6.75022 20C10.2302 20 13.0902 17.27 13.4602 13.77L14.6102 2.9C14.6602 2.39 15.0802 2 15.6002 2C16.1502 2 16.6002 2.45 16.6002 3C16.6002 3.3 16.5002 4.25 16.5002 4.25L18.4702 4.5C18.4702 4.5 18.6002 3.44 18.6002 3C18.6002 1.35 17.2502 0 15.6002 0ZM6.75022 18C4.81022 18 3.08022 16.77 2.32022 15H11.1102C10.3902 16.78 8.69022 18 6.75022 18Z" fill="black"/>
</svg>
