<svg width="22" height="22" viewBox="0 0 22 22" fill="none" xmlns="http://www.w3.org/2000/svg">
<path d="M19 10.5V5C19 4.07174 18.6313 3.1815 17.9749 2.52513C17.3185 1.86875 16.4283 1.5 15.5 1.5C14.5717 1.5 13.6815 1.86875 13.0251 2.52513C12.3687 3.1815 12 4.07174 12 5V5.5M19 10.5V13.5C19 14.5609 18.5786 15.5783 17.8284 16.3284C17.0783 17.0786 16.0609 17.5 15 17.5H7C5.93913 17.5 4.92172 17.0786 4.17157 16.3284C3.42143 15.5783 3 14.5609 3 13.5V10.5H19ZM20.5 10.5H1.5" stroke="black" stroke-width="2" stroke-linecap="round"/>
<path d="M7.5 17.5L5.5 20.5M14.5 17.5L16.5 20.5" stroke="black" stroke-width="2" stroke-linecap="round" stroke-linejoin="round"/>
</svg>
