<svg width="18" height="16" viewBox="0 0 18 16" fill="none" xmlns="http://www.w3.org/2000/svg">
<path d="M6 16V14H1.615C1.155 14 0.771 13.846 0.463 13.538C0.154333 13.2293 0 12.845 0 12.385V1.615C0 1.155 0.154333 0.771 0.463 0.463C0.771 0.154333 1.155 0 1.615 0H16.385C16.845 0 17.229 0.154333 17.537 0.463C17.8457 0.771 18 1.155 18 1.615V12.385C18 12.845 17.846 13.229 17.538 13.537C17.2293 13.8457 16.845 14 16.385 14H12V16H6ZM1.615 13H16.385C16.5383 13 16.6793 12.936 16.808 12.808C16.936 12.6793 17 12.5383 17 12.385V1.615C17 1.46167 16.936 1.32067 16.808 1.192C16.6793 1.064 16.5383 1 16.385 1H1.615C1.46167 1 1.32067 1.064 1.192 1.192C1.064 1.32067 1 1.46167 1 1.615V12.385C1 12.5383 1.064 12.6793 1.192 12.808C1.32067 12.936 1.46167 13 1.615 13Z" fill="black"/>
</svg>
