<svg width="24" height="24" viewBox="0 0 24 24" fill="none" xmlns="http://www.w3.org/2000/svg">
<path d="M12 22C17.523 22 22 17.523 22 12C22 6.477 17.523 2 12 2C6.477 2 2 6.477 2 12C2 17.523 6.477 22 12 22Z" stroke="#121212" stroke-width="1.5"/>
<path d="M3.33984 17L11.9998 12M11.9998 12V2M11.9998 12L20.6598 17" stroke="#121212" stroke-width="1.5" stroke-linecap="round" stroke-linejoin="round"/>
<path d="M8.99945 2.458C9.97032 2.15354 10.982 1.9991 11.9995 2C13.0445 2 14.0525 2.16 14.9995 2.458M2.31445 14.5C2.53993 15.376 2.88394 16.2171 3.33695 17C3.75819 17.7277 4.26919 18.3997 4.85795 19M21.6845 14.5C21.4588 15.376 21.1146 16.2171 20.6615 17C20.2404 17.7277 19.7295 18.3996 19.141 19" stroke="#121212" stroke-width="1.5"/>
</svg>
