<svg width="24" height="24" viewBox="0 0 24 24" fill="none" xmlns="http://www.w3.org/2000/svg">
<path d="M12 0C5.373 0 0 5.373 0 12C0 18.627 5.373 24 12 24C18.627 24 24 18.627 24 12C24 5.373 18.627 0 12 0ZM12 0.78C18.196 0.78 23.219 5.803 23.219 12C23.219 18.196 18.197 23.219 12 23.219C5.803 23.219 0.781 18.196 0.781 12C0.781 5.804 5.804 0.78 12 0.78ZM11.322 1.41C10.992 1.424 10.662 1.452 10.33 1.488L10.223 4.432C10.4585 4.39216 10.6953 4.3608 10.933 4.338L11.003 2.35L10.99 2.213L11.033 2.343L11.697 3.832H12.303L12.967 2.344L13.007 2.213L12.997 2.35L13.067 4.338C13.299 4.36 13.54 4.392 13.777 4.432L13.668 1.488C13.3383 1.45085 13.0075 1.42483 12.676 1.41L12.023 3.035L12 3.155L11.977 3.035L11.322 1.41ZM18.018 3.234L16.475 5.662C16.67 5.812 16.927 6.033 17.092 6.184L18.545 5.43L18.637 5.361L18.568 5.455L17.816 6.908C17.979 7.083 18.214 7.366 18.346 7.538L20.776 5.994C20.627 5.80122 20.4736 5.61184 20.316 5.426L18.777 6.44L18.672 6.532L18.75 6.417L19.43 5.061L18.95 4.581L17.594 5.261L17.479 5.339L17.57 5.233L18.588 3.694C18.408 3.542 18.237 3.403 18.018 3.234ZM5.5 3.785C5.14 3.822 4.862 4.068 4.107 4.91C3.8452 5.2067 3.59274 5.51151 3.35 5.824L5.424 7.791C6.111 7.031 6.39 6.749 6.932 6.178C7.315 5.773 7.532 5.308 7.148 4.861C6.94 4.619 6.59 4.566 6.298 4.686L6.27 4.696L6.28 4.67C6.31606 4.53731 6.31225 4.39694 6.26903 4.26641C6.22582 4.13587 6.14512 4.02096 6.037 3.936C5.96185 3.87675 5.87569 3.83298 5.78352 3.80723C5.69134 3.78149 5.59498 3.77327 5.5 3.785ZM5.506 4.4C5.642 4.363 5.783 4.46 5.814 4.6C5.846 4.74 5.758 4.872 5.66 4.982C5.44 5.232 4.629 6.08 4.629 6.08L4.227 5.697C4.644 5.187 5.088 4.723 5.289 4.539C5.3493 4.47614 5.42368 4.42849 5.506 4.4ZM12 4.883C10.2384 4.88222 8.53917 5.53507 7.23125 6.71514C5.92334 7.89522 5.09977 9.5186 4.92 11.271V11.273C4.807 12.3848 4.95722 13.5076 5.35851 14.5506C5.7598 15.5936 6.4009 16.5275 7.22997 17.2768C8.05904 18.0261 9.05281 18.5699 10.1309 18.864C11.209 19.1582 12.3413 19.1945 13.436 18.97C15.0407 18.6401 16.4823 17.7664 17.5172 16.4965C18.5521 15.2265 19.1168 13.6382 19.116 12C19.1141 10.1134 18.3638 8.30458 17.0297 6.97063C15.6955 5.63668 13.8866 4.88659 12 4.885V4.883ZM6.463 5.125C6.51 5.125 6.559 5.138 6.603 5.168C6.691 5.227 6.731 5.328 6.709 5.428C6.683 5.547 6.584 5.659 6.504 5.746L5.459 6.866L5.039 6.466C5.039 6.466 5.826 5.634 6.084 5.367C6.186 5.261 6.252 5.197 6.322 5.162C6.36536 5.13948 6.41417 5.12685 6.463 5.125ZM12 5.818C12.8121 5.81708 13.6164 5.97635 14.3668 6.2867C15.1173 6.59705 15.7992 7.05238 16.3734 7.62661C16.9476 8.20085 17.403 8.88271 17.7133 9.63316C18.0236 10.3836 18.1829 11.1879 18.182 12H12V18.182C11.1879 18.1829 10.3836 18.0236 9.63316 17.7133C8.88271 17.403 8.20085 16.9476 7.62661 16.3734C7.05238 15.7992 6.59705 15.1173 6.2867 14.3668C5.97635 13.6164 5.81708 12.8121 5.818 12H12V5.818Z" fill="#121212"/>
</svg>
