<svg width="21" height="11" viewBox="0 0 21 11" fill="none" xmlns="http://www.w3.org/2000/svg">
<path d="M11.8118 2.50615C11.8133 2.47609 11.8084 2.44607 11.7975 2.418C11.7867 2.38994 11.7701 2.36445 11.7488 2.34317C11.7275 2.32189 11.702 2.3053 11.674 2.29444C11.6459 2.28359 11.6159 2.27872 11.5858 2.28015H11.0858V2.73215H11.5858C11.6159 2.73358 11.6459 2.72871 11.674 2.71785C11.702 2.707 11.7275 2.6904 11.7488 2.66913C11.7701 2.64785 11.7867 2.62236 11.7975 2.5943C11.8084 2.56623 11.8133 2.5362 11.8118 2.50615ZM11.5858 3.05115H11.0858V3.55115H11.5858C11.6219 3.55675 11.6588 3.55449 11.6939 3.5445C11.729 3.53451 11.7615 3.51704 11.7893 3.49329C11.817 3.46954 11.8393 3.44007 11.8545 3.4069C11.8698 3.37373 11.8777 3.33766 11.8777 3.30115C11.8777 3.26464 11.8698 3.22856 11.8545 3.1954C11.8393 3.16223 11.817 3.13276 11.7893 3.10901C11.7615 3.08525 11.729 3.06779 11.6939 3.0578C11.6588 3.04781 11.6219 3.04554 11.5858 3.05115ZM4.65483 5.18515C4.66026 5.13725 4.65565 5.08874 4.64129 5.04271C4.62693 4.99669 4.60314 4.95416 4.57143 4.91785C4.53973 4.88153 4.5008 4.85222 4.45713 4.83178C4.41347 4.81134 4.36603 4.80023 4.31783 4.79915H4.05583V5.57015H4.31783C4.52583 5.57015 4.65483 5.42315 4.65483 5.18515ZM4.58283 5.14015H4.40083V5.49015C4.38057 5.49564 4.35979 5.49899 4.33883 5.50015V5.07815H4.57683C4.58044 5.09863 4.58244 5.11936 4.58283 5.14015ZM11.7568 4.78415L11.4148 6.30015H12.0638L11.7568 4.78415ZM11.7728 6.22715L11.8808 5.74815L11.9108 5.89515L11.8358 6.22715H11.7728ZM4.73083 6.43015C4.73083 6.18415 4.57283 5.96715 4.39283 5.96715H4.05583V6.89415H4.39283C4.61283 6.89415 4.73083 6.65515 4.73083 6.43015ZM4.33083 6.24615H4.62183C4.62954 6.26612 4.63622 6.28648 4.64183 6.30715H4.40083V6.82315H4.33483L4.33083 6.24615ZM4.81983 7.57015C5.02167 7.54708 5.2077 7.44973 5.34171 7.29704C5.47573 7.14436 5.54813 6.94728 5.54483 6.74415C5.54976 6.63812 5.53237 6.53224 5.49378 6.43336C5.4552 6.33448 5.39627 6.24481 5.32083 6.17015L5.27783 6.12715C5.31845 6.23687 5.33845 6.35316 5.33683 6.47015C5.33138 6.68607 5.25553 6.8943 5.12083 7.06315C5.05437 7.15386 4.96796 7.22808 4.86826 7.2801C4.76856 7.33212 4.65825 7.36053 4.54583 7.36315H3.56383L3.77383 7.57215L4.81983 7.57015ZM5.21283 6.00015C5.29207 5.92646 5.35566 5.83758 5.39982 5.73879C5.44397 5.64 5.46778 5.53334 5.46983 5.42515C5.4666 5.26742 5.41799 5.11397 5.32983 4.98315C5.2883 4.92349 5.24322 4.86638 5.19483 4.81215L5.17883 4.79415C5.25574 4.95591 5.27859 5.13811 5.24402 5.31386C5.20945 5.4896 5.11928 5.64957 4.98683 5.77015C5.07839 5.82898 5.15561 5.90757 5.21283 6.00015ZM8.88283 7.40015C9.06225 7.54918 9.28577 7.63493 9.51883 7.64415C9.63654 7.65794 9.75584 7.64489 9.86779 7.606C9.97974 7.5671 10.0814 7.50336 10.1652 7.41956C10.249 7.33575 10.3128 7.23406 10.3517 7.12211C10.3906 7.01016 10.4036 6.89086 10.3898 6.77315V6.06015L10.1808 5.85115V6.49815C10.194 6.62448 10.1788 6.75215 10.1364 6.87187C10.094 6.99159 10.0254 7.10034 9.93562 7.1902C9.84585 7.28006 9.73718 7.34876 9.6175 7.39131C9.49783 7.43386 9.37017 7.44918 9.24383 7.43615C9.08137 7.43552 8.92185 7.3928 8.78083 7.31215C8.81288 7.34367 8.84695 7.37306 8.88283 7.40015ZM6.72483 6.74815V4.65515L6.51483 4.44615V6.49415C6.51392 6.55454 6.53455 6.61328 6.57304 6.65983C6.61153 6.70638 6.66534 6.73769 6.72483 6.74815ZM10.3898 5.50015V5.47015C10.3951 5.30058 10.3577 5.13241 10.2808 4.98115C10.2349 4.8967 10.1802 4.81727 10.1178 4.74415C10.1045 4.72757 10.0902 4.71187 10.0748 4.69715C10.1493 4.85306 10.1856 5.02444 10.1808 5.19715V5.29715H9.69483L9.90383 5.50515L10.3898 5.50015ZM9.48283 4.95815C9.45093 4.92992 9.41338 4.90882 9.37269 4.89623C9.332 4.88364 9.28909 4.87987 9.24683 4.88515C9.16901 4.8913 9.09666 4.92753 9.04513 4.98616C8.9936 5.04479 8.96694 5.12119 8.97083 5.19915V6.49915C8.97164 6.56215 8.99227 6.62329 9.02978 6.6739C9.0673 6.72452 9.11979 6.76204 9.17983 6.78115V5.48115C9.17786 5.38702 9.21146 5.29561 9.27393 5.22517C9.3364 5.15473 9.42314 5.11044 9.51683 5.10115C9.53346 5.09964 9.55019 5.09964 9.56683 5.10115C9.55313 5.04641 9.52397 4.99677 9.48283 4.95815ZM14.4378 7.57515V5.15615H15.0428V4.65515L14.8338 4.44615V4.94715H14.2288V7.36615H13.6668L13.8768 7.57515H14.4378ZM12.3148 7.36115L12.5248 7.57015H13.1208L12.4268 4.65815L12.2388 4.47015L12.9038 7.36115H12.3148ZM15.7668 5.15615V4.94715H15.2758L15.4858 5.15615H15.7668ZM18.1178 7.36115H17.5568L17.7668 7.57015H18.3278V4.65515L18.1178 4.44615V7.36115ZM16.6518 7.57515V5.15615H17.2568V4.65515L17.0478 4.44615V4.94715H16.4428V7.36615H15.8808L16.0908 7.57515H16.6518ZM9.58083 6.27115H9.38883L9.58083 6.46215V6.27115ZM7.05783 7.64015C7.28867 7.63784 7.5095 7.54551 7.6733 7.38284C7.8371 7.22016 7.93093 6.99997 7.93483 6.76915V4.65515L7.72483 4.44615V6.49415C7.72486 6.61762 7.70009 6.73984 7.652 6.85356C7.6039 6.96727 7.53345 7.07017 7.44483 7.15615C7.26944 7.33221 7.03134 7.43148 6.78283 7.43215C6.62454 7.43218 6.4689 7.39155 6.33083 7.31415C6.36217 7.34383 6.39559 7.37123 6.43083 7.39615C6.60816 7.54278 6.82803 7.62835 7.05783 7.64015ZM13.5528 5.15615V4.94715H13.0618L13.2718 5.15615H13.5528ZM12.1398 7.02515L12.0978 6.81615H11.3698L11.2458 7.36115H10.6698L10.8788 7.57015H11.4688L11.5928 7.02515H12.1398ZM11.6718 1.32115C11.7327 1.32414 11.7922 1.30287 11.8374 1.262C11.8826 1.22112 11.9097 1.164 11.9128 1.10315V1.10015C11.9138 1.05494 11.9013 1.01045 11.8771 0.972262C11.8529 0.93407 11.818 0.903863 11.7767 0.885418C11.7354 0.866972 11.6896 0.861107 11.645 0.868555C11.6004 0.876003 11.559 0.896434 11.5259 0.927294C11.4929 0.958154 11.4696 0.998073 11.4592 1.04206C11.4487 1.08605 11.4514 1.13215 11.4669 1.17461C11.4825 1.21706 11.5103 1.25399 11.5467 1.28076C11.5831 1.30754 11.6267 1.32298 11.6718 1.32515V1.32115ZM12.4228 1.36515C12.4835 1.36984 12.5436 1.35027 12.5899 1.31071C12.6363 1.27116 12.665 1.21485 12.6698 1.15415C12.6724 1.10915 12.6617 1.06438 12.639 1.02545C12.6163 0.986527 12.5826 0.95517 12.5421 0.935311C12.5016 0.915453 12.4562 0.907977 12.4115 0.91382C12.3668 0.919663 12.3249 0.938565 12.2909 0.968158C12.2569 0.997751 12.2324 1.03672 12.2204 1.08018C12.2085 1.12364 12.2096 1.16966 12.2237 1.21248C12.2378 1.25529 12.2642 1.29299 12.2996 1.32086C12.335 1.34873 12.3779 1.36553 12.4228 1.36915V1.36515ZM20.0698 5.00715C20.0846 5.0502 20.1117 5.08791 20.1479 5.11552C20.184 5.14313 20.2276 5.15939 20.273 5.16225C20.3184 5.16511 20.3636 5.15444 20.403 5.13159C20.4423 5.10873 20.474 5.07473 20.494 5.03387C20.514 4.993 20.5215 4.94713 20.5154 4.90203C20.5093 4.85694 20.49 4.81466 20.4599 4.78055C20.4298 4.74643 20.3903 4.722 20.3463 4.71036C20.3023 4.69872 20.2559 4.70039 20.2128 4.71515C20.1842 4.72483 20.1578 4.74008 20.1351 4.76003C20.1123 4.77998 20.0938 4.80422 20.0805 4.83137C20.0672 4.85851 20.0594 4.88802 20.0576 4.91819C20.0558 4.94836 20.0599 4.97859 20.0698 5.00715ZM19.0978 3.19215C19.0978 3.22235 19.0919 3.25226 19.0803 3.28017C19.0688 3.30807 19.0518 3.33343 19.0305 3.35478C19.0091 3.37614 18.9837 3.39308 18.9558 3.40464C18.9279 3.4162 18.898 3.42215 18.8678 3.42215C18.8376 3.42215 18.8077 3.4162 18.7798 3.40464C18.7519 3.39308 18.7265 3.37614 18.7052 3.35478C18.6838 3.33343 18.6669 3.30807 18.6553 3.28017C18.6438 3.25226 18.6378 3.22235 18.6378 3.19215C18.6378 3.13115 18.6621 3.07265 18.7052 3.02951C18.7483 2.98638 18.8068 2.96215 18.8678 2.96215C18.9288 2.96215 18.9873 2.98638 19.0305 3.02951C19.0736 3.07265 19.0978 3.13115 19.0978 3.19215ZM13.4258 1.21215C13.4258 1.24235 13.4199 1.27226 13.4083 1.30017C13.3968 1.32807 13.3798 1.35343 13.3585 1.37478C13.3371 1.39614 13.3117 1.41308 13.2838 1.42464C13.2559 1.4362 13.226 1.44215 13.1958 1.44215C13.1348 1.44215 13.0763 1.41792 13.0332 1.37478C12.9901 1.33165 12.9658 1.27315 12.9658 1.21215C12.9658 1.15115 12.9901 1.09265 13.0332 1.04951C13.0763 1.00638 13.1348 0.982148 13.1958 0.982148C13.226 0.982148 13.2559 0.988098 13.2838 0.999656C13.3117 1.01121 13.3371 1.02816 13.3585 1.04951C13.3798 1.07087 13.3968 1.09623 13.4083 1.12413C13.4199 1.15204 13.4258 1.18194 13.4258 1.21215ZM20.0678 4.45015C20.1051 4.42404 20.1338 4.38746 20.1503 4.34503C20.1668 4.30261 20.1703 4.25625 20.1604 4.21182C20.1505 4.16739 20.1277 4.12689 20.0948 4.09545C20.0619 4.06401 20.0204 4.04304 19.9755 4.03519C19.9307 4.02735 19.8846 4.03298 19.8429 4.05137C19.8013 4.06977 19.7661 4.10011 19.7417 4.13854C19.7173 4.17697 19.7049 4.22178 19.706 4.26728C19.7071 4.31278 19.7216 4.35693 19.7478 4.39415C19.7651 4.41891 19.7871 4.44002 19.8126 4.45625C19.838 4.47248 19.8664 4.48351 19.8962 4.48871C19.9259 4.49392 19.9564 4.49319 19.9859 4.48657C20.0153 4.47995 20.0432 4.46757 20.0678 4.45015ZM19.6068 3.84715C19.6306 3.82647 19.6499 3.80112 19.6635 3.77266C19.6771 3.74421 19.6847 3.71327 19.6859 3.68175C19.687 3.65024 19.6816 3.61883 19.6701 3.58947C19.6586 3.56011 19.6412 3.53344 19.6189 3.51111C19.5966 3.48877 19.57 3.47126 19.5407 3.45965C19.5114 3.44804 19.48 3.44258 19.4485 3.44361C19.4169 3.44465 19.386 3.45216 19.3575 3.46567C19.329 3.47918 19.3036 3.4984 19.2828 3.52215C19.2445 3.56602 19.2242 3.62281 19.2261 3.68104C19.2281 3.73928 19.252 3.79461 19.2931 3.83587C19.3343 3.87714 19.3895 3.90125 19.4478 3.90334C19.506 3.90544 19.5628 3.88535 19.6068 3.84715ZM16.7908 2.32315C16.8332 2.33926 16.8794 2.34248 16.9236 2.33241C16.9678 2.32234 17.0081 2.29944 17.0393 2.26656C17.0705 2.23369 17.0913 2.19233 17.0991 2.14766C17.1069 2.10299 17.1013 2.05702 17.0831 2.01552C17.0648 1.97402 17.0347 1.93885 16.9965 1.91441C16.9583 1.88998 16.9137 1.87738 16.8684 1.87819C16.8231 1.87901 16.779 1.8932 16.7417 1.91899C16.7044 1.94478 16.6756 1.98102 16.6588 2.02315C16.6474 2.05148 16.6418 2.0818 16.6423 2.11233C16.6427 2.14287 16.6493 2.173 16.6616 2.20096C16.6739 2.22891 16.6917 2.25412 16.7139 2.27511C16.7361 2.29609 16.7622 2.31243 16.7908 2.32315ZM17.7978 2.41415C17.7978 2.47515 17.7736 2.53365 17.7305 2.57678C17.6873 2.61992 17.6288 2.64415 17.5678 2.64415C17.5068 2.64415 17.4483 2.61992 17.4052 2.57678C17.3621 2.53365 17.3378 2.47515 17.3378 2.41415C17.3378 2.35315 17.3621 2.29465 17.4052 2.25151C17.4483 2.20838 17.5068 2.18415 17.5678 2.18415C17.6288 2.18415 17.6873 2.20838 17.7305 2.25151C17.7736 2.29465 17.7978 2.35315 17.7978 2.41415ZM18.1158 2.96215C18.1413 2.97835 18.1698 2.98934 18.1996 2.99449C18.2294 2.99964 18.2599 2.99884 18.2893 2.99215C18.3188 2.98546 18.3466 2.973 18.3713 2.95549C18.3959 2.93799 18.4168 2.91578 18.4328 2.89015L18.4388 2.88115C18.461 2.84198 18.4712 2.79716 18.4682 2.75225C18.4652 2.70733 18.449 2.66429 18.4218 2.62847C18.3945 2.59264 18.3573 2.5656 18.3149 2.5507C18.2724 2.5358 18.2265 2.5337 18.1828 2.54465C18.1391 2.5556 18.0996 2.57912 18.0692 2.6123C18.0388 2.64549 18.0188 2.68687 18.0116 2.73132C18.0045 2.77577 18.0106 2.82133 18.0291 2.86237C18.0476 2.9034 18.0778 2.93809 18.1158 2.96215ZM16.0848 2.06315C16.1424 2.08328 16.2056 2.07974 16.2605 2.0533C16.3155 2.02686 16.3577 1.97969 16.3778 1.92215V1.91215C16.3905 1.86913 16.3903 1.82335 16.3772 1.78044C16.3642 1.73753 16.3389 1.69937 16.3045 1.67065C16.2701 1.64192 16.228 1.62389 16.1834 1.61877C16.1389 1.61365 16.0938 1.62166 16.0538 1.64182C16.0137 1.66198 15.9804 1.69341 15.958 1.73224C15.9356 1.77107 15.925 1.81561 15.9275 1.86038C15.9301 1.90515 15.9457 1.94819 15.9724 1.98422C15.9991 2.02025 16.0357 2.04768 16.0778 2.06315H16.0848ZM15.3678 1.85015C15.4106 1.86171 15.4559 1.86032 15.4979 1.84614C15.5399 1.83196 15.5768 1.80563 15.6038 1.7705C15.6308 1.73536 15.6468 1.69299 15.6498 1.64876C15.6527 1.60452 15.6425 1.56041 15.6203 1.52201C15.5982 1.4836 15.5651 1.45263 15.5254 1.43302C15.4856 1.4134 15.4409 1.40603 15.397 1.41183C15.353 1.41762 15.3118 1.43633 15.2785 1.46558C15.2451 1.49484 15.2213 1.53331 15.2098 1.57615C15.1961 1.63336 15.2049 1.69365 15.2343 1.74462C15.2636 1.79558 15.3114 1.83335 15.3678 1.85015ZM14.6418 1.67815C14.6853 1.68745 14.7307 1.68364 14.772 1.6672C14.8134 1.65076 14.8489 1.62242 14.8742 1.58577C14.8994 1.54912 14.9132 1.50581 14.9138 1.46131C14.9145 1.41681 14.9019 1.37312 14.8777 1.33577C14.8535 1.29842 14.8188 1.26909 14.7779 1.25148C14.737 1.23387 14.6918 1.22878 14.6481 1.23685C14.6043 1.24492 14.5639 1.26578 14.532 1.29681C14.5001 1.32783 14.4781 1.36763 14.4688 1.41115C14.4577 1.46937 14.4695 1.52964 14.5017 1.57939C14.5339 1.62913 14.5841 1.66451 14.6418 1.67815ZM13.9098 1.54315C13.9699 1.55329 14.0315 1.53919 14.0812 1.50395C14.1309 1.4687 14.1646 1.41519 14.1748 1.35515V1.35015C14.1815 1.30535 14.1747 1.25959 14.1555 1.2186C14.1362 1.17761 14.1053 1.14322 14.0666 1.11974C14.0279 1.09625 13.9831 1.08472 13.9378 1.08659C13.8926 1.08845 13.8489 1.10364 13.8122 1.13023C13.7756 1.15683 13.7476 1.19365 13.7318 1.23608C13.716 1.27852 13.713 1.32468 13.7234 1.36877C13.7337 1.41287 13.7568 1.45294 13.7898 1.48396C13.8228 1.51498 13.8642 1.53557 13.9088 1.54315H13.9098ZM16.0878 9.28215C16.0325 9.30304 15.9874 9.34444 15.9618 9.39774C15.9362 9.45104 15.9321 9.51215 15.9504 9.56839C15.9686 9.62462 16.0079 9.67166 16.0599 9.69973C16.1119 9.72781 16.1728 9.73476 16.2298 9.71915C16.2598 9.71093 16.2879 9.69672 16.3122 9.67735C16.3366 9.65799 16.3568 9.63389 16.3715 9.60651C16.3863 9.57913 16.3954 9.54903 16.3982 9.51804C16.401 9.48706 16.3975 9.45582 16.3878 9.42623C16.3782 9.39664 16.3627 9.36931 16.3422 9.34589C16.3217 9.32247 16.2967 9.30345 16.2687 9.28998C16.2406 9.27651 16.2101 9.26887 16.1791 9.26752C16.148 9.26618 16.1169 9.27115 16.0878 9.28215ZM13.4238 10.1101C13.4202 10.0802 13.4108 10.0512 13.3959 10.0249C13.3811 9.99859 13.3612 9.97548 13.3374 9.9569C13.3136 9.93831 13.2864 9.92461 13.2573 9.91659C13.2282 9.90856 13.1978 9.90637 13.1678 9.91015C13.1226 9.91564 13.0801 9.93441 13.0456 9.96409C13.0111 9.99377 12.9862 10.033 12.974 10.0769C12.9618 10.1207 12.9629 10.1672 12.9771 10.2104C12.9914 10.2537 13.0181 10.2917 13.054 10.3197C13.0898 10.3477 13.1332 10.3645 13.1786 10.3678C13.224 10.3712 13.2694 10.361 13.309 10.3386C13.3486 10.3161 13.3806 10.2825 13.4011 10.2418C13.4215 10.2011 13.4294 10.1553 13.4238 10.1101ZM16.8008 9.03415C16.7722 9.04364 16.7458 9.05868 16.7231 9.0784C16.7003 9.09812 16.6816 9.12213 16.6682 9.14907C16.6547 9.17601 16.6467 9.20534 16.6446 9.23538C16.6424 9.26542 16.6463 9.29559 16.6558 9.32415L16.6628 9.34415C16.6806 9.38506 16.71 9.4199 16.7473 9.44444C16.7845 9.46897 16.8281 9.48212 16.8728 9.4823C16.9174 9.48248 16.9611 9.46967 16.9986 9.44544C17.0361 9.42121 17.0657 9.38661 17.0838 9.34584C17.102 9.30507 17.1079 9.25991 17.1008 9.21585C17.0937 9.17179 17.074 9.13074 17.044 9.0977C17.014 9.06466 16.975 9.04106 16.9319 9.02978C16.8887 9.01849 16.8432 9.02001 16.8008 9.03415ZM14.1768 10.0321C14.1768 10.0931 14.1526 10.1517 14.1095 10.1948C14.0663 10.2379 14.0078 10.2621 13.9468 10.2621C13.8858 10.2621 13.8273 10.2379 13.7842 10.1948C13.7411 10.1517 13.7168 10.0931 13.7168 10.0321C13.7168 9.97115 13.7411 9.91265 13.7842 9.86951C13.8273 9.82638 13.8858 9.80215 13.9468 9.80215C14.0078 9.80215 14.0663 9.82638 14.1095 9.86951C14.1526 9.91265 14.1768 9.97115 14.1768 10.0321ZM12.6698 10.2001C12.6667 10.1547 12.6502 10.1112 12.6224 10.0752C12.5946 10.0392 12.5567 10.0122 12.5136 9.9977C12.4704 9.98321 12.4239 9.98185 12.38 9.9938C12.336 10.0058 12.2967 10.0305 12.2668 10.0648C12.2369 10.0992 12.2179 10.1416 12.2122 10.1868C12.2065 10.232 12.2143 10.2778 12.2346 10.3186C12.255 10.3593 12.2869 10.393 12.3265 10.4156C12.3661 10.4381 12.4114 10.4484 12.4568 10.4451C12.4869 10.4431 12.5163 10.4352 12.5433 10.4217C12.5704 10.4083 12.5945 10.3897 12.6142 10.3669C12.634 10.3441 12.6491 10.3177 12.6587 10.2891C12.6682 10.2605 12.672 10.2302 12.6698 10.2001ZM15.3798 9.50015C15.3363 9.51117 15.2969 9.53494 15.2669 9.56841C15.2369 9.60188 15.2176 9.64354 15.2114 9.68806C15.2052 9.73258 15.2124 9.77793 15.2321 9.81833C15.2518 9.85873 15.2831 9.89234 15.322 9.91485C15.3609 9.93737 15.4057 9.94777 15.4505 9.94473C15.4954 9.94169 15.5383 9.92535 15.5738 9.89779C15.6093 9.87024 15.6358 9.83272 15.6499 9.79003C15.664 9.74734 15.665 9.70142 15.6528 9.65815C15.6362 9.60184 15.5987 9.55406 15.5479 9.52465C15.4971 9.49525 15.4369 9.48648 15.3798 9.50015ZM20.3628 6.20015C20.3343 6.1903 20.304 6.18617 20.2739 6.188C20.2437 6.18983 20.2142 6.19759 20.1871 6.21082C20.1599 6.22405 20.1356 6.2425 20.1156 6.26512C20.0956 6.28774 20.0802 6.31409 20.0703 6.34265C20.0605 6.37121 20.0564 6.40143 20.0582 6.43159C20.06 6.46175 20.0678 6.49125 20.081 6.51841C20.0942 6.54557 20.1127 6.56986 20.1353 6.58989C20.1579 6.60992 20.1843 6.6253 20.2128 6.63515C20.2697 6.65111 20.3306 6.64455 20.3828 6.61683C20.435 6.58911 20.4745 6.54236 20.4932 6.48628C20.5118 6.43019 20.5082 6.36908 20.483 6.31562C20.4578 6.26216 20.413 6.22045 20.3578 6.19915L20.3628 6.20015ZM19.6748 7.66615C19.6748 7.69635 19.6689 7.72626 19.6573 7.75417C19.6458 7.78207 19.6288 7.80743 19.6075 7.82878C19.5861 7.85014 19.5607 7.86708 19.5328 7.87864C19.5049 7.8902 19.475 7.89615 19.4448 7.89615C19.4146 7.89615 19.3847 7.8902 19.3568 7.87864C19.3289 7.86708 19.3036 7.85014 19.2822 7.82878C19.2608 7.80743 19.2439 7.78207 19.2323 7.75417C19.2208 7.72626 19.2148 7.69635 19.2148 7.66615C19.2148 7.60515 19.2391 7.54665 19.2822 7.50351C19.3253 7.46038 19.3838 7.43615 19.4448 7.43615C19.5058 7.43615 19.5643 7.46038 19.6075 7.50351C19.6506 7.54665 19.6748 7.60515 19.6748 7.66615ZM17.4708 8.73215C17.4298 8.7517 17.3955 8.78308 17.3724 8.82225C17.3494 8.86142 17.3385 8.9066 17.3413 8.95198C17.3441 8.99736 17.3604 9.04087 17.3881 9.07692C17.4158 9.11297 17.4537 9.13991 17.4968 9.15429C17.5399 9.16866 17.5864 9.16982 17.6302 9.1576C17.6739 9.14538 17.7131 9.12035 17.7425 9.08572C17.772 9.05109 17.7904 9.00845 17.7955 8.96326C17.8005 8.91808 17.7919 8.87242 17.7708 8.83215C17.7431 8.78028 17.6965 8.74101 17.6407 8.72241C17.5849 8.70381 17.5241 8.7073 17.4708 8.73215ZM20.0678 6.90015C20.0179 6.86869 19.9578 6.85763 19.8999 6.86925C19.8421 6.88088 19.7909 6.91429 19.757 6.96258C19.7231 7.01088 19.709 7.07036 19.7178 7.12873C19.7265 7.18709 19.7573 7.23987 19.8038 7.27615L19.8158 7.28415C19.841 7.30272 19.8697 7.31596 19.9001 7.32307C19.9306 7.33018 19.9621 7.331 19.9929 7.32549C20.0237 7.31998 20.053 7.30825 20.0791 7.29102C20.1052 7.27379 20.1275 7.25142 20.1447 7.22528C20.1618 7.19914 20.1735 7.16977 20.1789 7.13897C20.1843 7.10818 20.1834 7.0766 20.1762 7.04617C20.169 7.01574 20.1557 6.9871 20.1371 6.96199C20.1184 6.93688 20.0949 6.91584 20.0678 6.90015ZM20.6518 5.67515C20.6518 5.73615 20.6276 5.79465 20.5845 5.83778C20.5413 5.88092 20.4828 5.90515 20.4218 5.90515C20.3608 5.90515 20.3023 5.88092 20.2592 5.83778C20.2161 5.79465 20.1918 5.73615 20.1918 5.67515C20.1918 5.64494 20.1978 5.61504 20.2093 5.58713C20.2209 5.55923 20.2378 5.53387 20.2592 5.51251C20.2806 5.49116 20.3059 5.47421 20.3338 5.46266C20.3617 5.4511 20.3916 5.44515 20.4218 5.44515C20.452 5.44515 20.4819 5.4511 20.5098 5.46266C20.5378 5.47421 20.5631 5.49116 20.5845 5.51251C20.6058 5.53387 20.6228 5.55923 20.6343 5.58713C20.6459 5.61504 20.6518 5.64494 20.6518 5.67515ZM18.4328 8.46015C18.4174 8.4342 18.397 8.41157 18.3727 8.39357C18.3485 8.37557 18.3209 8.36257 18.2916 8.35531C18.2623 8.34806 18.2319 8.34669 18.202 8.3513C18.1722 8.35591 18.1436 8.36639 18.1178 8.38215C18.0791 8.4056 18.0482 8.43999 18.0291 8.48097C18.0099 8.52196 18.0033 8.56771 18.0101 8.61245C18.0169 8.65719 18.0368 8.69891 18.0673 8.73234C18.0978 8.76577 18.1375 8.78942 18.1814 8.80029C18.2254 8.81117 18.2715 8.80879 18.3141 8.79345C18.3567 8.77812 18.3938 8.75051 18.4207 8.71411C18.4475 8.67772 18.4631 8.63418 18.4652 8.58898C18.4674 8.54378 18.4561 8.49895 18.4328 8.46015ZM18.7398 7.97415C18.715 7.99134 18.6938 8.01329 18.6775 8.03871C18.6611 8.06413 18.65 8.09254 18.6447 8.12228C18.6394 8.15203 18.6401 8.18253 18.6466 8.21202C18.6531 8.24152 18.6654 8.26943 18.6828 8.29415L18.6878 8.30215C18.7151 8.33805 18.7523 8.36515 18.7948 8.38008C18.8373 8.39501 18.8833 8.39712 18.927 8.38614C18.9708 8.37516 19.0103 8.35158 19.0407 8.31832C19.0711 8.28506 19.0911 8.2436 19.0982 8.19908C19.1052 8.15456 19.0991 8.10895 19.0804 8.06792C19.0618 8.02688 19.0315 7.99223 18.9933 7.96826C18.9551 7.9443 18.9107 7.93208 18.8657 7.93313C18.8206 7.93418 18.7769 7.94844 18.7398 7.97415ZM14.6508 9.67015C14.6211 9.67577 14.5927 9.68724 14.5674 9.7039C14.5421 9.72055 14.5204 9.74205 14.5035 9.76716C14.4866 9.79227 14.4748 9.82049 14.4688 9.85019C14.4629 9.87988 14.4629 9.91046 14.4688 9.94015V9.94815C14.479 9.99207 14.5019 10.032 14.5347 10.063C14.5674 10.0941 14.6085 10.1148 14.6529 10.1226C14.6974 10.1304 14.7431 10.125 14.7845 10.1071C14.8258 10.0891 14.861 10.0594 14.8856 10.0216C14.9102 9.98379 14.9232 9.9396 14.9229 9.8945C14.9225 9.84941 14.909 9.8054 14.8839 9.76795C14.8587 9.7305 14.8232 9.70126 14.7815 9.68387C14.7399 9.66648 14.6951 9.66171 14.6508 9.67015ZM3.11483 3.37815C3.16396 3.34216 3.19682 3.28816 3.20619 3.22799C3.21557 3.16781 3.20069 3.10637 3.16483 3.05715C3.13813 3.0203 3.1011 2.9922 3.05842 2.97641C3.01574 2.96062 2.96934 2.95783 2.92509 2.96842C2.88083 2.979 2.84071 3.00248 2.8098 3.03587C2.77889 3.06927 2.75858 3.11108 2.75144 3.15602C2.7443 3.20096 2.75065 3.24701 2.76969 3.28834C2.78873 3.32967 2.8196 3.36442 2.85839 3.3882C2.89719 3.41198 2.94217 3.42372 2.98764 3.42193C3.03311 3.42014 3.07802 3.40491 3.11483 3.37815ZM2.56583 3.84715C2.58726 3.82586 2.60428 3.80055 2.61589 3.77266C2.6275 3.74477 2.63348 3.71486 2.63348 3.68465C2.63348 3.65444 2.6275 3.62453 2.61589 3.59664C2.60428 3.56875 2.58726 3.54343 2.56583 3.52215C2.53368 3.48994 2.4927 3.468 2.44807 3.4591C2.40344 3.45019 2.35718 3.45472 2.31513 3.47212C2.27308 3.48952 2.23714 3.519 2.21185 3.55683C2.18656 3.59466 2.17306 3.63914 2.17306 3.68465C2.17306 3.73015 2.18656 3.77464 2.21185 3.81247C2.23714 3.8503 2.27308 3.87978 2.31513 3.89718C2.35718 3.91457 2.40344 3.91911 2.44807 3.9102C2.4927 3.9013 2.53368 3.87935 2.56583 3.84715ZM3.41783 2.90015C3.41849 2.96093 3.44318 3.01897 3.48651 3.0616C3.52984 3.10423 3.58828 3.12798 3.64906 3.12765C3.70985 3.12731 3.76803 3.10294 3.81089 3.05984C3.85375 3.01674 3.87781 2.95843 3.87781 2.89765C3.87781 2.83687 3.85375 2.77855 3.81089 2.73546C3.76803 2.69236 3.70985 2.66798 3.64906 2.66765C3.58828 2.66732 3.52984 2.69107 3.48651 2.73369C3.44318 2.77632 3.41849 2.83437 3.41783 2.89515V2.90015ZM1.48583 5.15015C1.52883 5.16509 1.5753 5.16694 1.61935 5.15546C1.6634 5.14398 1.70306 5.11969 1.73329 5.08565C1.76353 5.05162 1.78298 5.00938 1.78919 4.96428C1.7954 4.91918 1.78809 4.87325 1.76818 4.83231C1.74827 4.79137 1.71666 4.75726 1.67735 4.7343C1.63804 4.71134 1.59281 4.70056 1.54737 4.70332C1.50193 4.70609 1.45833 4.72228 1.4221 4.74984C1.38586 4.7774 1.35862 4.8151 1.34383 4.85815C1.32405 4.9157 1.32789 4.97875 1.3545 5.03348C1.38112 5.08822 1.42834 5.13017 1.48583 5.15015ZM1.77583 6.34915C1.75682 6.29119 1.71566 6.2431 1.66133 6.21537C1.607 6.18765 1.54391 6.18253 1.48583 6.20115H1.47783C1.43571 6.217 1.39916 6.24486 1.37271 6.28127C1.34627 6.31769 1.33109 6.36107 1.32906 6.40603C1.32703 6.45099 1.33823 6.49556 1.36128 6.53421C1.38433 6.57287 1.41821 6.60391 1.45874 6.62349C1.49926 6.64308 1.54463 6.65035 1.58924 6.64439C1.63385 6.63844 1.67574 6.61953 1.70971 6.59001C1.74367 6.56048 1.76823 6.52164 1.78034 6.4783C1.79245 6.43495 1.79158 6.389 1.77783 6.34615L1.77583 6.34915ZM1.43483 5.90515C1.49336 5.89982 1.54762 5.87228 1.58649 5.8282C1.62535 5.78411 1.64587 5.72682 1.64382 5.66808C1.64177 5.60935 1.61732 5.55363 1.57548 5.51235C1.53364 5.47108 1.47759 5.44739 1.41883 5.44615H1.41083C1.37985 5.44652 1.34926 5.45315 1.3209 5.46563C1.29255 5.47811 1.267 5.4962 1.24581 5.5188C1.22462 5.5414 1.20821 5.56805 1.19757 5.59715C1.18693 5.62625 1.18228 5.6572 1.18389 5.68814C1.18551 5.71908 1.19336 5.74938 1.20698 5.77721C1.2206 5.80504 1.2397 5.82983 1.26313 5.8501C1.28657 5.87037 1.31386 5.88569 1.34336 5.89515C1.37287 5.90461 1.40398 5.90801 1.43483 5.90515ZM11.9128 10.2491C11.9118 10.2189 11.9048 10.1892 11.8923 10.1617C11.8797 10.1342 11.8619 10.1095 11.8398 10.0889C11.8177 10.0682 11.7918 10.0522 11.7635 10.0416C11.7351 10.031 11.705 10.0261 11.6748 10.0271C11.6446 10.0282 11.6149 10.0352 11.5874 10.0477C11.5599 10.0602 11.5352 10.0781 11.5145 10.1002C11.4939 10.1223 11.4779 10.1482 11.4673 10.1765C11.4567 10.2048 11.4518 10.2349 11.4528 10.2651V10.2721C11.453 10.3032 11.4595 10.3339 11.4719 10.3623C11.4843 10.3908 11.5023 10.4164 11.5249 10.4377C11.5475 10.459 11.5741 10.4756 11.6032 10.4863C11.6323 10.497 11.6633 10.5018 11.6943 10.5002C11.7253 10.4987 11.7557 10.4909 11.7836 10.4773C11.8115 10.4637 11.8363 10.4446 11.8567 10.4211C11.877 10.3976 11.8923 10.3703 11.9018 10.3408C11.9113 10.3112 11.9157 10.2801 11.9128 10.2491ZM4.07683 2.52015C4.09714 2.56061 4.12894 2.59417 4.16824 2.61664C4.20754 2.63911 4.2526 2.64948 4.29777 2.64645C4.34294 2.64342 4.38621 2.62713 4.42216 2.59962C4.45811 2.57211 4.48514 2.5346 4.49987 2.49179C4.5146 2.44898 4.51637 2.40278 4.50495 2.35897C4.49354 2.31517 4.46945 2.2757 4.43571 2.24552C4.40196 2.21534 4.36006 2.19579 4.31526 2.18932C4.27045 2.18285 4.22473 2.18975 4.18383 2.20915C4.15615 2.22228 4.13137 2.2408 4.11094 2.26364C4.09052 2.28648 4.07486 2.31316 4.0649 2.34214C4.05493 2.37111 4.05085 2.40178 4.0529 2.43235C4.05495 2.46291 4.06308 2.49277 4.07683 2.52015ZM6.93083 1.51015C6.94042 1.55449 6.9629 1.59501 6.99546 1.6266C7.02802 1.6582 7.0692 1.67946 7.11381 1.68771C7.15842 1.69596 7.20447 1.69083 7.24618 1.67297C7.28788 1.65511 7.32337 1.62531 7.34819 1.58733C7.373 1.54935 7.38602 1.50488 7.38562 1.45951C7.38522 1.41415 7.37142 1.36991 7.34594 1.33238C7.32046 1.29484 7.28445 1.26567 7.24244 1.24855C7.20043 1.23143 7.15429 1.22711 7.10983 1.23615C7.07993 1.24209 7.05152 1.25394 7.02626 1.271C7.001 1.28806 6.9794 1.31 6.96272 1.33552C6.94605 1.36104 6.93464 1.38963 6.92917 1.41962C6.92369 1.4496 6.92425 1.48038 6.93083 1.51015ZM8.42483 1.24915C8.42601 1.31028 8.45128 1.36847 8.49514 1.41107C8.539 1.45367 8.5979 1.47723 8.65903 1.47664C8.72017 1.47604 8.7786 1.45134 8.82163 1.4079C8.86465 1.36446 8.88878 1.30579 8.88878 1.24465C8.88878 1.18351 8.86465 1.12484 8.82163 1.0814C8.7786 1.03795 8.72017 1.01325 8.65903 1.01266C8.5979 1.01207 8.539 1.03563 8.49514 1.07823C8.45128 1.12083 8.42601 1.17902 8.42483 1.24015V1.24915ZM9.63783 1.13815C9.63783 1.19915 9.6136 1.25765 9.57046 1.30078C9.52733 1.34392 9.46883 1.36815 9.40783 1.36815C9.34683 1.36815 9.28833 1.34392 9.24519 1.30078C9.20206 1.25765 9.17783 1.19915 9.17783 1.13815C9.17783 1.07715 9.20206 1.01865 9.24519 0.975514C9.28833 0.932381 9.34683 0.908148 9.40783 0.908148C9.46883 0.908148 9.52733 0.932381 9.57046 0.975514C9.6136 1.01865 9.63783 1.07715 9.63783 1.13815ZM4.76583 2.20015C4.76741 2.25902 4.7921 2.31489 4.83457 2.35569C4.87704 2.39649 4.93386 2.41892 4.99275 2.41813C5.05163 2.41734 5.10784 2.39339 5.1492 2.35148C5.19056 2.30956 5.21375 2.25304 5.21375 2.19415C5.21375 2.13526 5.19056 2.07874 5.1492 2.03682C5.10784 1.9949 5.05163 1.97096 4.99275 1.97017C4.93386 1.96938 4.87704 1.99181 4.83457 2.03261C4.7921 2.0734 4.76741 2.12928 4.76583 2.18815V2.20015ZM10.8778 1.30515C10.8933 1.30834 10.909 1.31002 10.9248 1.31015C10.9858 1.31015 11.0443 1.28592 11.0875 1.24278C11.1306 1.19965 11.1548 1.14115 11.1548 1.08015C11.1548 1.01915 11.1306 0.960647 11.0875 0.917514C11.0443 0.87438 10.9858 0.850148 10.9248 0.850148C10.909 0.850277 10.8933 0.851952 10.8778 0.855148C10.8263 0.866081 10.78 0.894396 10.7468 0.935356C10.7136 0.976315 10.6955 1.02743 10.6955 1.08015C10.6955 1.13286 10.7136 1.18398 10.7468 1.22494C10.78 1.2659 10.8263 1.29422 10.8778 1.30515ZM10.1768 1.32815C10.222 1.32598 10.2654 1.31057 10.3019 1.28384C10.3383 1.25712 10.366 1.22025 10.3816 1.17785C10.3972 1.13545 10.4 1.0894 10.3896 1.04544C10.3792 1.00147 10.3561 0.961545 10.3231 0.930641C10.2902 0.899737 10.2488 0.879223 10.2043 0.871659C10.1598 0.864096 10.114 0.869817 10.0727 0.88811C10.0314 0.906403 9.99635 0.936458 9.97202 0.974522C9.94768 1.01259 9.93509 1.05698 9.93583 1.10215V1.11015C9.93724 1.14032 9.9446 1.16992 9.95749 1.19723C9.97039 1.22455 9.98856 1.24904 10.011 1.2693C10.0334 1.28957 10.0595 1.3052 10.088 1.3153C10.1165 1.3254 10.1467 1.32976 10.1768 1.32815ZM7.93683 1.54615C7.98178 1.53905 8.02361 1.51878 8.05703 1.48791C8.09046 1.45703 8.11397 1.41693 8.1246 1.37269C8.13523 1.32844 8.1325 1.28204 8.11675 1.23935C8.101 1.19666 8.07294 1.1596 8.03612 1.13286C7.9993 1.10612 7.95538 1.0909 7.90991 1.08914C7.86444 1.08737 7.81947 1.09912 7.78068 1.12292C7.7419 1.14672 7.71104 1.18148 7.69202 1.22282C7.673 1.26416 7.66667 1.31021 7.67383 1.35515C7.68342 1.41533 7.7165 1.46925 7.76581 1.50506C7.81512 1.54087 7.87663 1.55565 7.93683 1.54615ZM5.91883 1.85115C5.91883 1.91215 5.8946 1.97065 5.85146 2.01378C5.80833 2.05692 5.74983 2.08115 5.68883 2.08115C5.62783 2.08115 5.56933 2.05692 5.52619 2.01378C5.48306 1.97065 5.45883 1.91215 5.45883 1.85115C5.45883 1.79015 5.48306 1.73165 5.52619 1.68851C5.56933 1.64538 5.62783 1.62115 5.68883 1.62115C5.74983 1.62115 5.80833 1.64538 5.85146 1.68851C5.8946 1.73165 5.91883 1.79015 5.91883 1.85115ZM6.20083 1.70015C6.20188 1.76185 6.22727 1.82064 6.27147 1.86372C6.31566 1.90679 6.37508 1.93067 6.43679 1.93014C6.49851 1.92961 6.55751 1.90473 6.60096 1.8609C6.64441 1.81708 6.66879 1.75786 6.66879 1.69615C6.66879 1.63443 6.64441 1.57522 6.60096 1.53139C6.55751 1.48757 6.49851 1.46268 6.43679 1.46216C6.37508 1.46163 6.31566 1.4855 6.27147 1.52858C6.22727 1.57165 6.20188 1.63044 6.20083 1.69215V1.70015ZM2.14183 7.08915C2.14183 7.15015 2.1176 7.20865 2.07446 7.25178C2.03133 7.29492 1.97283 7.31915 1.91183 7.31915C1.85083 7.31915 1.79233 7.29492 1.74919 7.25178C1.70606 7.20865 1.68183 7.15015 1.68183 7.08915C1.68183 7.02815 1.70606 6.96965 1.74919 6.92651C1.79233 6.88338 1.85083 6.85915 1.91183 6.85915C1.97283 6.85915 2.03133 6.88338 2.07446 6.92651C2.1176 6.96965 2.14183 7.02815 2.14183 7.08915ZM1.78083 4.45015L1.79183 4.45815C1.84257 4.49284 1.90493 4.50618 1.96543 4.49527C2.02592 4.48436 2.0797 4.45009 2.11513 4.39985C2.15056 4.34962 2.1648 4.28746 2.15477 4.22681C2.14474 4.16616 2.11125 4.1119 2.06153 4.07574C2.01182 4.03958 1.94987 4.02444 1.88909 4.03359C1.8283 4.04273 1.77355 4.07543 1.73668 4.12462C1.6998 4.1738 1.68376 4.23552 1.69203 4.29643C1.70029 4.35735 1.73219 4.41256 1.78083 4.45015ZM5.06183 9.03615C5.034 9.02452 5.00414 9.0185 4.97398 9.01844C4.94382 9.01839 4.91394 9.02429 4.88606 9.03581C4.85819 9.04733 4.83286 9.06425 4.81154 9.08558C4.79022 9.10692 4.77333 9.13226 4.76183 9.16015V9.17115C4.74626 9.21365 4.74358 9.25981 4.75413 9.30383C4.76467 9.34785 4.78797 9.38778 4.8211 9.41861C4.85424 9.44945 4.89574 9.46983 4.9404 9.47719C4.98506 9.48455 5.0309 9.47857 5.07218 9.45999C5.11346 9.44142 5.14834 9.41107 5.17245 9.37276C5.19656 9.33446 5.20884 9.28988 5.20773 9.24463C5.20662 9.19938 5.19219 9.15546 5.16624 9.11838C5.14028 9.08129 5.10396 9.05269 5.06183 9.03615ZM5.91883 9.50015C5.91883 9.56115 5.8946 9.61965 5.85146 9.66278C5.80833 9.70592 5.74983 9.73015 5.68883 9.73015C5.62783 9.73015 5.56933 9.70592 5.52619 9.66278C5.48306 9.61965 5.45883 9.56115 5.45883 9.50015C5.45883 9.43915 5.48306 9.38065 5.52619 9.33751C5.56933 9.29438 5.62783 9.27015 5.68883 9.27015C5.74983 9.27015 5.80833 9.29438 5.85146 9.33751C5.8946 9.38065 5.91883 9.43915 5.91883 9.50015ZM4.51083 8.93715C4.51083 8.99815 4.4866 9.05665 4.44346 9.09978C4.40033 9.14292 4.34183 9.16715 4.28083 9.16715C4.21983 9.16715 4.16133 9.14292 4.11819 9.09978C4.07506 9.05665 4.05083 8.99815 4.05083 8.93715C4.05083 8.87615 4.07506 8.81765 4.11819 8.77451C4.16133 8.73138 4.21983 8.70715 4.28083 8.70715C4.34183 8.70715 4.40033 8.73138 4.44346 8.77451C4.4866 8.81765 4.51083 8.87615 4.51083 8.93715ZM3.73083 8.38215C3.69189 8.35854 3.64682 8.34703 3.60133 8.34906C3.55584 8.35109 3.51198 8.36658 3.4753 8.39356C3.43862 8.42055 3.41078 8.45781 3.3953 8.50063C3.37981 8.54346 3.37739 8.58991 3.38834 8.63411C3.39928 8.67831 3.4231 8.71827 3.45678 8.74892C3.49045 8.77957 3.53247 8.79954 3.5775 8.80629C3.62253 8.81304 3.66855 8.80627 3.70973 8.78684C3.75092 8.76741 3.7854 8.7362 3.80883 8.69715C3.84011 8.645 3.84947 8.58258 3.83485 8.52355C3.82024 8.46451 3.78283 8.41367 3.73083 8.38215ZM3.11583 7.97915C3.06727 7.94233 3.0061 7.92629 2.94573 7.93454C2.88536 7.94279 2.83072 7.97466 2.79383 8.02315L2.78883 8.03115C2.76299 8.06815 2.74861 8.11194 2.74747 8.15706C2.74634 8.20219 2.75851 8.24664 2.78247 8.2849C2.80642 8.32315 2.8411 8.35351 2.88219 8.37219C2.92327 8.39088 2.96895 8.39706 3.01352 8.38997C3.0581 8.38289 3.0996 8.36284 3.13287 8.33233C3.16613 8.30182 3.18968 8.2622 3.20059 8.21841C3.21149 8.17461 3.20927 8.12857 3.1942 8.08603C3.17913 8.04348 3.15187 8.00631 3.11583 7.97915ZM2.24083 7.50015L2.23383 7.50715C2.19193 7.55089 2.16898 7.60939 2.16995 7.66996C2.17093 7.73052 2.19576 7.78825 2.23905 7.83062C2.28234 7.87299 2.34059 7.89657 2.40116 7.89624C2.46173 7.89592 2.51973 7.87171 2.56256 7.82888C2.60539 7.78605 2.6296 7.72805 2.62992 7.66748C2.63025 7.60691 2.60667 7.54866 2.5643 7.50537C2.52193 7.46208 2.4642 7.43725 2.40364 7.43628C2.34307 7.4353 2.28457 7.45825 2.24083 7.50015ZM10.9238 10.0411C10.8783 10.0411 10.8339 10.0546 10.796 10.0799C10.7582 10.1052 10.7287 10.1411 10.7113 10.1831C10.6939 10.2252 10.6894 10.2714 10.6982 10.316C10.7071 10.3606 10.729 10.4016 10.7612 10.4338C10.7934 10.4659 10.8343 10.4879 10.879 10.4967C10.9236 10.5056 10.9698 10.501 11.0118 10.4836C11.0539 10.4662 11.0898 10.4368 11.1151 10.3989C11.1403 10.3611 11.1538 10.3166 11.1538 10.2711C11.1538 10.2101 11.1296 10.1516 11.0865 10.1085C11.0433 10.0654 10.9848 10.0411 10.9238 10.0411ZM10.1838 10.0381C10.123 10.0334 10.0628 10.053 10.0163 10.0925C9.96987 10.1321 9.94093 10.1884 9.93583 10.2491C9.93533 10.2561 9.93533 10.2632 9.93583 10.2701C9.93635 10.3148 9.94984 10.3582 9.97464 10.3953C9.99944 10.4324 10.0345 10.4615 10.0755 10.479C10.1165 10.4965 10.1618 10.5017 10.2057 10.494C10.2496 10.4862 10.2904 10.4659 10.3229 10.4354C10.3555 10.4049 10.3785 10.3656 10.3892 10.3223C10.3998 10.279 10.3976 10.2335 10.3829 10.1914C10.3681 10.1493 10.3415 10.1124 10.3061 10.0852C10.2708 10.058 10.2283 10.0416 10.1838 10.0381ZM9.42583 9.98615C9.36511 9.98145 9.30501 10.001 9.25871 10.0406C9.2124 10.0801 9.18368 10.1364 9.17883 10.1971C9.17602 10.2424 9.18663 10.2874 9.20933 10.3266C9.23203 10.3658 9.26581 10.3975 9.30642 10.4176C9.34704 10.4377 9.39268 10.4453 9.43762 10.4395C9.48257 10.4338 9.52481 10.4149 9.55905 10.3852C9.59328 10.3555 9.61799 10.3164 9.63007 10.2727C9.64214 10.229 9.64105 10.1828 9.62693 10.1397C9.6128 10.0967 9.58628 10.0587 9.55068 10.0307C9.51508 10.0027 9.47199 9.98578 9.42683 9.98215L9.42583 9.98615ZM7.38483 9.89215C7.38483 9.92235 7.37888 9.95226 7.36732 9.98017C7.35576 10.0081 7.33882 10.0334 7.31746 10.0548C7.2961 10.0761 7.27075 10.0931 7.24285 10.1046C7.21494 10.1162 7.18503 10.1221 7.15483 10.1221C7.09383 10.1221 7.03533 10.0979 6.99219 10.0548C6.94906 10.0116 6.92483 9.95315 6.92483 9.89215C6.92483 9.83115 6.94906 9.77265 6.99219 9.72952C7.03533 9.68638 7.09383 9.66215 7.15483 9.66215C7.18503 9.66215 7.21494 9.6681 7.24285 9.67966C7.27075 9.69122 7.2961 9.70816 7.31746 9.72952C7.33882 9.75087 7.35576 9.77623 7.36732 9.80413C7.37888 9.83204 7.38483 9.86195 7.38483 9.89215ZM6.48083 9.50015C6.45187 9.49154 6.4215 9.48873 6.39146 9.49186C6.36141 9.49499 6.33228 9.50401 6.30572 9.51841C6.27916 9.5328 6.2557 9.55229 6.23667 9.57575C6.21765 9.59921 6.20343 9.62619 6.19483 9.65515V9.66715C6.18417 9.711 6.18664 9.75702 6.20194 9.79948C6.21724 9.84194 6.2447 9.87895 6.28089 9.90592C6.31707 9.93288 6.3604 9.94861 6.40546 9.95113C6.45051 9.95365 6.49532 9.94287 6.53429 9.92011C6.57327 9.89735 6.60468 9.86363 6.62463 9.82315C6.64458 9.78267 6.65217 9.73721 6.64647 9.69244C6.64078 9.64768 6.62203 9.60557 6.59258 9.57138C6.56312 9.53719 6.52426 9.51241 6.48083 9.50015ZM8.68483 9.91615C8.65451 9.9118 8.62363 9.91355 8.594 9.92129C8.56436 9.92904 8.53657 9.94262 8.51226 9.96125C8.48795 9.97988 8.46761 10.0032 8.45242 10.0298C8.43723 10.0564 8.42751 10.0857 8.42383 10.1161V10.1251C8.41842 10.1701 8.42636 10.2156 8.44667 10.256C8.46698 10.2964 8.49875 10.3299 8.53802 10.3523C8.57728 10.3748 8.62229 10.3852 8.66742 10.3822C8.71254 10.3792 8.75578 10.3629 8.79173 10.3355C8.82768 10.3081 8.85474 10.2706 8.86953 10.2279C8.88432 10.1851 8.88618 10.139 8.87488 10.0952C8.86358 10.0514 8.83961 10.0119 8.80599 9.98167C8.77236 9.95143 8.73057 9.93177 8.68583 9.92515L8.68483 9.91615ZM7.93983 9.80915C7.9098 9.80401 7.87905 9.80489 7.84936 9.81174C7.81967 9.81858 7.79164 9.83126 7.76689 9.84903C7.74214 9.8668 7.72117 9.88931 7.7052 9.91525C7.68922 9.94119 7.67856 9.97005 7.67383 10.0001C7.66742 10.0449 7.67434 10.0905 7.69371 10.1314C7.71309 10.1722 7.74407 10.2064 7.78279 10.2298C7.8215 10.2531 7.86623 10.2645 7.91139 10.2626C7.95655 10.2606 8.00013 10.2454 8.0367 10.2188C8.07327 10.1923 8.1012 10.1555 8.117 10.1132C8.13279 10.0708 8.13577 10.0247 8.12554 9.98071C8.11531 9.93669 8.09233 9.89665 8.05948 9.8656C8.02663 9.83456 7.98536 9.81388 7.94083 9.80615L7.93983 9.80915ZM10.9238 1.50015C5.29883 1.50015 1.84283 3.80015 1.84283 5.67815C1.84283 7.55615 5.29883 9.85715 10.9238 9.85715C16.5488 9.85715 20.0008 7.55215 20.0008 5.67515C20.0008 3.79815 16.5488 1.50015 10.9238 1.50015ZM9.58083 5.26915V5.16015C9.56191 5.15759 9.54274 5.15759 9.52383 5.16015C9.44561 5.16842 9.37338 5.20583 9.3215 5.26494C9.26961 5.32405 9.24188 5.40052 9.24383 5.47915V6.79415C9.28744 6.80023 9.33184 6.79696 9.37409 6.78455C9.41633 6.77213 9.45545 6.75086 9.48883 6.72215C9.53819 6.67566 9.56879 6.61269 9.57483 6.54515H9.56983L9.29883 6.27515H9.27283V5.73715H10.1728V5.76315L10.4438 6.03415V6.77215C10.4576 7.01799 10.3755 7.2596 10.2148 7.44615C10.1226 7.53573 10.0128 7.60504 9.89221 7.64965C9.77166 7.69425 9.64311 7.71316 9.51483 7.70515C9.26845 7.69614 9.03191 7.60617 8.84183 7.44915C8.71558 7.34833 8.60533 7.22898 8.51483 7.09515C8.37138 6.92811 8.2923 6.71533 8.29183 6.49515V5.20015C8.29651 4.95121 8.39824 4.71394 8.57532 4.53891C8.75241 4.36388 8.99085 4.26493 9.23983 4.26315C9.45531 4.25319 9.66823 4.31317 9.84683 4.43415C9.87083 4.45015 9.89483 4.46715 9.91883 4.48515C10.0073 4.55055 10.0881 4.62569 10.1598 4.70915C10.2255 4.78511 10.2829 4.86792 10.3308 4.95615C10.4128 5.11658 10.453 5.29507 10.4478 5.47515V5.56715H9.87483L9.60383 5.29715H9.58083V5.26915ZM11.9748 2.87415L11.9648 2.88515L11.9758 2.89615C12.0762 2.99977 12.1316 3.13893 12.1297 3.28321C12.1278 3.42749 12.0689 3.56517 11.9658 3.66615C11.8645 3.76581 11.728 3.8215 11.5858 3.82115H9.71783V3.40715H9.98283V3.55615H10.7298V3.05615H10.4138V3.17315H10.1488V2.61415H10.4138V2.73215H10.7298V2.28015H9.98283V2.42915H9.71783V2.01515H11.5858C11.6853 2.01533 11.7825 2.04411 11.866 2.09807C11.9495 2.15204 12.0158 2.22889 12.0568 2.31946C12.0978 2.41003 12.1119 2.51049 12.0973 2.60885C12.0828 2.70721 12.0403 2.79931 11.9748 2.87415ZM6.48883 4.33215H6.51483V4.35915L6.78583 4.62915V6.75415C6.82038 6.75495 6.85474 6.74881 6.88687 6.73608C6.919 6.72335 6.94825 6.70429 6.97287 6.68004C6.9975 6.65579 7.017 6.62684 7.03022 6.5949C7.04344 6.56297 7.05011 6.52871 7.04983 6.49415V4.33215H7.72483V4.35915L7.99583 4.62915V6.76915C7.99559 6.89204 7.97079 7.01365 7.92287 7.12682C7.87496 7.23999 7.80491 7.34244 7.71683 7.42815C7.54216 7.60321 7.30513 7.70176 7.05783 7.70215C6.81331 7.69141 6.5789 7.60157 6.38983 7.44615C6.26587 7.34749 6.15734 7.23087 6.06783 7.10015C5.92075 6.93254 5.83971 6.71714 5.83983 6.49415V4.33215H6.48883ZM3.45083 7.33215V4.33215H4.46883C4.65149 4.32828 4.82928 4.39122 4.96883 4.50915C4.99644 4.53029 5.02281 4.553 5.04783 4.57715L5.05683 4.58415C5.12138 4.64182 5.18281 4.70291 5.24083 4.76715C5.29121 4.82346 5.33797 4.88291 5.38083 4.94515C5.49542 5.10943 5.54707 5.30946 5.52632 5.50868C5.50557 5.70791 5.41382 5.89301 5.26783 6.03015L5.36283 6.13015C5.44485 6.21028 5.509 6.30686 5.55105 6.41354C5.5931 6.52023 5.61211 6.6346 5.60683 6.74915C5.60123 6.96396 5.52575 7.1711 5.39183 7.33915C5.32584 7.42963 5.23994 7.50373 5.14076 7.55575C5.04158 7.60777 4.93178 7.6363 4.81983 7.63915H3.74883L3.47683 7.36915H3.45083V7.33215ZM10.5828 7.35915H10.5458L10.5528 7.33015L10.5578 7.31015L11.3198 4.33015H12.2068L12.2128 4.35615L12.4828 4.62415V4.63315L13.1968 7.63315H12.4968L12.2258 7.36315H12.2058L12.2008 7.33715V7.32115L12.1528 7.08815H11.6428L11.5188 7.63315H10.8548L10.5828 7.35915ZM14.8068 4.33015H14.8338V4.35715L15.1048 4.62715V5.21615H14.5048V7.63515H13.8508L13.5798 7.36415H13.5528V5.21815H13.2458L12.9748 4.94715H12.9488V4.33215H14.8068V4.33015ZM17.0208 4.33015H17.0478V4.35715L17.3188 4.62715V5.21615H16.7138V7.63515H16.0648L15.7938 7.36415H15.7668V5.21815H15.4598L15.1888 4.94715H15.1618V4.33215H17.0208V4.33015ZM18.3888 7.63015H17.7408L17.4698 7.36015H17.4428V4.33215H18.1178V4.35915L18.3888 4.62915V7.63015ZM10.9238 0.577148C5.41483 0.577148 0.923828 2.83915 0.923828 5.67715C0.923828 8.51515 5.41483 10.7771 10.9238 10.7771C16.4328 10.7771 20.9238 8.51515 20.9238 5.67715C20.9238 2.83915 16.4338 0.577148 10.9238 0.577148ZM10.9238 10.6881C5.40383 10.6881 1.00983 8.42315 1.00983 5.67515C1.00983 2.92715 5.40083 0.663148 10.9238 0.663148C16.4468 0.663148 20.8378 2.92815 20.8378 5.67515C20.8378 8.42215 16.4438 10.6881 10.9238 10.6881Z" fill="black"/>
</svg>
