<svg width="24" height="6" viewBox="0 0 24 6" fill="none" xmlns="http://www.w3.org/2000/svg">
<path d="M17.297 4.28275V2.53775C17.297 1.99675 17 1.89175 16.162 1.89175C15.254 1.89175 14.94 2.01375 14.94 2.64275V2.92175H15.708V2.69475C15.708 2.38075 15.725 2.32775 16.127 2.32775C16.459 2.32775 16.476 2.36275 16.476 2.69475V3.32275H15.673C15.045 3.32275 14.853 3.61975 14.853 3.96875H15.638V3.95175C15.638 3.79475 15.743 3.65475 15.9 3.65475H16.493V4.35275C16.493 4.59675 16.371 4.64975 16.196 4.64975H15.882C15.69 4.64975 15.62 4.52775 15.62 4.35275V3.96875H14.835V4.40475C14.835 4.77175 15.114 5.06775 15.551 5.06775H17.611V4.59675H17.297V4.28275ZM23.686 4.61475V1.96175H22.517V2.39775H22.849V4.61475H22.517V5.06875H24V4.61475H23.686ZM20.736 1.89175C20.3 1.89175 20.02 2.43275 19.828 2.65975V1.94375H18.676V2.37975H18.99V4.59675H18.676V5.06775H20.107V4.59675H19.81V3.40975C19.81 3.30475 20.491 2.44975 20.491 2.53675V3.72375H21.294V2.39675C21.295 2.08375 21.103 1.89175 20.736 1.89175ZM5.324 3.39275H4.504V2.55475C4.504 2.39775 4.556 2.31075 4.748 2.31075H5.097C5.237 2.31075 5.324 2.38075 5.324 2.48575V3.39275ZM4.975 1.89175H4.852C3.909 1.89175 3.665 2.10075 3.665 2.64275V4.38775C3.665 4.98075 4.014 5.08575 4.869 5.10375H4.956C5.881 5.08675 6.16 5.01675 6.16 4.45775V4.00375H5.359V4.23075C5.359 4.54475 5.307 4.56275 4.923 4.56275C4.469 4.56275 4.487 4.52775 4.504 4.23075V3.68975H6.18V2.51975C6.179 2.08375 5.847 1.89175 4.975 1.89175ZM22.865 1.40275H23.72V0.84375H22.865V1.40275ZM0.122 1.40275H0.611V4.70175H0V5.15575H2.269V4.70175H1.501V3.23575H1.937V3.65475H2.461V2.34575H1.937V2.72975H1.501V1.40275H22.202V0.84375H0.122V1.40275ZM9.391 1.89175C8.955 1.89175 8.675 2.43275 8.483 2.65975V1.94375H7.331V2.37975H7.645V4.59675H7.331V5.06775H8.762V4.59675H8.465V3.40975C8.465 3.30475 9.146 2.44975 9.146 2.53675V3.72375H9.949V2.39675C9.949 2.08375 9.757 1.89175 9.391 1.89175ZM13.056 1.89175C12.62 1.89175 12.34 2.43275 12.148 2.65975V1.94375H10.996V2.37975H11.31V4.59675H10.996V5.06775H12.427V4.59675H12.13V3.40975C12.13 3.30475 12.811 2.44975 12.811 2.53675V3.72375H13.614V2.39675C13.615 2.08375 13.423 1.89175 13.056 1.89175Z" fill="black"/>
</svg>
