<svg width="20" height="16" viewBox="0 0 20 16" fill="none" xmlns="http://www.w3.org/2000/svg">
<path d="M19.1076 14.3159H16.8506C16.8642 14.1868 16.9222 14.0663 17.0146 13.9752C17.1071 13.884 17.2283 13.8277 17.3576 13.8159H19.6426L19.6346 13.3379H17.2116C16.8455 13.3419 16.4952 13.4876 16.2341 13.7443C15.9731 14.0011 15.8217 14.3489 15.8116 14.7149C15.8106 14.7266 15.8122 14.7385 15.8164 14.7495C15.8206 14.7605 15.8272 14.7704 15.8358 14.7785C15.8443 14.7865 15.8546 14.7926 15.8658 14.7961C15.8771 14.7997 15.889 14.8006 15.9006 14.7989L18.6506 14.7889C18.7168 14.7953 18.7785 14.8253 18.8244 14.8734C18.8703 14.9215 18.8973 14.9845 18.9006 15.0509C18.8986 15.0882 18.8892 15.1247 18.873 15.1583C18.8568 15.1919 18.8341 15.222 18.8062 15.2469C18.7783 15.2717 18.7458 15.2907 18.7105 15.3029C18.6752 15.3151 18.6379 15.3202 18.6006 15.3179H15.5806V13.3359H14.6896V15.3179H13.0516C12.9804 15.3291 12.9075 15.3237 12.8387 15.3019C12.77 15.2802 12.7072 15.2428 12.6553 15.1927C12.6035 15.1426 12.5639 15.0811 12.5399 15.0131C12.5158 14.9451 12.5078 14.8725 12.5166 14.8009V13.3229H11.0396C10.8936 13.4229 10.7526 13.5309 10.6016 13.6229L9.72461 14.1619L8.58661 13.3309H5.14161C4.76207 13.3144 4.38821 13.4276 4.08161 13.6519C3.92225 13.7562 3.78616 13.8923 3.68187 14.0516C3.57759 14.211 3.50737 14.3901 3.47561 14.5779H4.07561C3.82808 14.754 3.64062 15.0018 3.53861 15.2879H1.56261C1.41851 15.2992 1.2758 15.253 1.16576 15.1592C1.05572 15.0655 0.987342 14.932 0.97561 14.7879V13.3129H0.0996094V14.8479C0.0996094 15.3999 0.62461 15.7809 1.46561 15.7809H6.81461V15.2809H4.69061C4.70682 15.1491 4.76781 15.0268 4.86337 14.9345C4.95893 14.8422 5.08327 14.7855 5.21561 14.7739H7.14161V14.2669H4.66561C4.63661 14.1179 4.91361 13.8259 5.12661 13.8259H7.45561V13.5539L8.96261 14.6359L7.93261 15.2809H6.81461V15.7809H8.10861C8.24761 15.6869 8.37861 15.5879 8.52161 15.5009L9.42161 14.9539L10.5656 15.7709H11.8656L10.1446 14.4769L11.0286 13.8999C11.2166 13.7759 11.4146 13.6719 11.6076 13.5589V14.8589C11.6076 15.4089 11.7486 15.7899 12.8556 15.7899L19.1046 15.7749C19.2055 15.7834 19.3071 15.7708 19.4029 15.7379C19.4987 15.705 19.5866 15.6526 19.661 15.584C19.7355 15.5153 19.7949 15.432 19.8354 15.3392C19.876 15.2464 19.8968 15.1462 19.8966 15.0449C19.8873 14.8441 19.7992 14.6551 19.6516 14.5186C19.5039 14.3822 19.3085 14.3094 19.1076 14.3159ZM9.99961 12.6109C13.4456 12.6109 15.6996 11.5019 17.0056 10.0769H15.6866C14.0755 11.3557 12.05 11.9964 9.99661 11.8769C4.73761 11.8769 2.79661 8.92192 2.79661 6.37692C2.83461 4.10492 4.91461 0.969916 10.1246 0.866916C10.3246 0.860916 10.4746 1.04092 10.3376 1.21092C9.44761 2.31092 6.90861 5.85192 6.61961 6.31092C6.26791 6.7719 6.05305 7.32256 5.99961 7.89992C5.97353 8.11882 5.99952 8.34079 6.07546 8.54776C6.1514 8.75472 6.27514 8.94082 6.43661 9.09092C7.25733 9.61685 8.24411 9.81927 9.20561 9.65892H16.9866C17.1108 9.66962 17.2353 9.64309 17.3443 9.58271C17.4533 9.52233 17.5418 9.43084 17.5986 9.31992C18.1729 8.45884 18.4855 7.44985 18.4986 6.41492C18.4986 4.43792 17.2156 1.94792 13.9656 0.822916L13.5996 1.34992C16.1776 2.57292 17.2426 4.17292 17.2426 6.41192C17.2577 7.06955 17.0706 7.71598 16.7066 8.26392H9.13961C8.68661 8.26392 8.62061 7.74992 8.78461 7.46392C9.43354 6.3089 10.1578 5.19783 10.9526 4.13792C11.7085 3.13505 12.4786 2.14295 13.2626 1.16192C13.4756 0.883916 13.3326 0.615916 12.9076 0.528916C11.9461 0.318799 10.9648 0.212523 9.98061 0.211916C3.77161 0.208916 1.49961 3.77492 1.49961 6.41792C1.49961 9.28492 3.78761 12.6109 9.99961 12.6109Z" fill="black"/>
</svg>
