<svg width="20" height="16" viewBox="0 0 20 16" fill="none" xmlns="http://www.w3.org/2000/svg">
<path d="M19.5101 10.6086C17.9926 7.00558 15.4776 3.91088 12.2611 1.68862C11.5823 1.17687 10.8157 0.79357 9.99908 0.557617C9.18243 0.79357 8.41582 1.17687 7.73708 1.68862C4.5205 3.91111 2.00527 7.00571 0.487076 10.6086C0.245292 11.1753 0.0811421 11.772 -0.000923656 12.3826C-0.00515878 12.4438 0.00370522 12.5051 0.0250764 12.5626C0.0425549 12.6301 0.0769736 12.6921 0.125076 12.7426C0.606741 13.116 1.13356 13.4271 1.69308 13.6686C4.3065 14.8364 7.13662 15.4405 9.99908 15.4416C12.8595 15.4397 15.6875 14.8356 18.2991 13.6686C18.8586 13.4271 19.3854 13.116 19.8671 12.7426C19.9155 12.6924 19.95 12.6303 19.9671 12.5626C19.9884 12.5051 19.9973 12.4438 19.9931 12.3826C19.9127 11.7722 19.7503 11.1755 19.5101 10.6086ZM1.92708 13.1536C1.50066 12.9714 1.10261 12.7289 0.745076 12.4336C0.71336 12.3949 0.687424 12.3518 0.668076 12.3056C0.644681 12.2575 0.635654 12.2037 0.642076 12.1506C0.70733 11.6978 0.836975 11.2567 1.02708 10.8406C2.28596 7.83353 4.26137 5.18006 6.78108 3.11162C6.96308 2.96262 7.14708 2.81162 7.33408 2.67262L7.61508 2.46062C7.75708 2.35562 7.90108 2.25262 8.04508 2.15162L8.05408 2.14562L8.07008 2.13462L8.09208 2.11962L8.12108 2.09962L8.15708 2.07662L8.19908 2.04962L8.24708 2.01862L8.29908 1.98562L8.38508 1.93062C8.7611 1.68585 9.15797 1.4747 9.57108 1.29962L9.60908 1.28562C9.68818 1.25589 9.76941 1.23215 9.85208 1.21462C9.90046 1.20476 9.9497 1.19974 9.99908 1.19962C10.0275 1.19973 10.0559 1.20173 10.0841 1.20562C10.1269 1.21188 10.1693 1.22057 10.2111 1.23162C10.2343 1.23736 10.2574 1.24403 10.2801 1.25162L10.3521 1.27462C10.4011 1.29162 10.4521 1.31062 10.5041 1.33262C10.5301 1.34262 10.5561 1.35362 10.5821 1.36562L10.6221 1.38362C10.7151 1.42562 10.8111 1.47262 10.9061 1.52162C11.0431 1.59262 11.1781 1.66862 11.3061 1.74262L11.3531 1.76962L11.4871 1.85062L11.5871 1.91162L11.7051 1.98562L11.7271 1.99962L11.7991 2.04662L11.8411 2.07362L11.8761 2.09662L11.9531 2.14862C12.0841 2.24062 12.2151 2.33362 12.3441 2.42962L12.4281 2.49162C12.5351 2.57062 12.6411 2.65162 12.7461 2.73262L12.8681 2.83262C12.9591 2.90562 13.0511 2.97862 13.1411 3.05262C13.6551 3.47128 14.1477 3.91462 14.6191 4.38262C16.4809 6.22845 17.9598 8.42378 18.9711 10.8426C19.1612 11.2587 19.2908 11.6998 19.3561 12.1526C19.3623 12.2056 19.3536 12.2593 19.3311 12.3076C19.3111 12.3536 19.2848 12.3967 19.2531 12.4356C18.8955 12.7309 18.4975 12.9734 18.0711 13.1556C15.5259 14.2706 12.7778 14.8476 9.99908 14.8506H9.59908C6.95532 14.7926 4.34868 14.216 1.92708 13.1536ZM11.8751 14.3366V9.88862L9.99908 11.0196L8.12208 9.88862V14.3366C8.74511 14.4083 9.37195 14.4417 9.99908 14.4366C10.6259 14.4417 11.2524 14.4083 11.8751 14.3366ZM1.13008 12.0226V12.1226C1.15608 12.1476 1.18108 12.1996 1.20708 12.2226C1.48441 12.4379 1.78657 12.6192 2.10708 12.7626C2.59508 12.9686 3.08408 13.1746 3.57208 13.3546L3.67208 7.00462C2.76012 8.23992 2.00157 9.58141 1.41308 10.9996C1.27072 11.3255 1.17543 11.6699 1.13008 12.0226ZM13.5461 8.88662V14.1046C13.9581 14.0276 14.3461 13.9506 14.7291 13.8476C14.7031 11.5856 14.6521 8.21762 14.6521 8.21762L13.5461 8.88662ZM12.5441 3.12762C12.2737 2.90563 11.9905 2.69961 11.6961 2.51062C11.1851 2.12964 10.6105 1.84251 9.99908 1.66262C9.3865 1.84197 8.81082 2.12913 8.29908 2.51062C8.00465 2.69961 7.7215 2.90563 7.45108 3.12762L9.99908 4.64462L12.5441 3.12762ZM9.99408 6.62362L8.11708 5.46662V7.93562L9.99408 9.06662L11.8721 7.93562V5.46662L9.99408 6.62362ZM5.26908 13.8476C5.65508 13.9476 6.04008 14.0276 6.45108 14.1046V8.88662L5.35108 8.21762C5.35108 8.21762 5.29908 11.5856 5.26908 13.8476ZM17.8911 12.7676C18.2116 12.6242 18.5137 12.4429 18.7911 12.2276C18.8171 12.2026 18.8421 12.1506 18.8681 12.1276V12.0276C18.8232 11.6732 18.7279 11.3271 18.5851 10.9996C17.9949 9.58474 17.2354 8.24664 16.3231 7.01462L16.4001 13.3646C16.9141 13.1796 17.3991 12.9736 17.8911 12.7676ZM13.5461 3.95062V6.93262L15.3991 5.82762C14.8213 5.16378 14.2024 4.53688 13.5461 3.95062ZM6.45108 3.95062C5.79557 4.53744 5.17705 5.1643 4.59908 5.82762L6.45008 6.93262L6.45108 3.95062ZM9.99908 10.5316L12.2871 9.14362V14.5676L12.3401 14.5626C12.6051 14.5356 12.8701 14.4876 13.1401 14.4386V8.62962L15.0681 7.47262L15.1681 14.0026C15.4511 13.9256 15.7331 13.8476 15.9911 13.7706L15.8911 6.00762L13.1991 7.61362L13.1351 7.65262V3.25262L9.99908 5.13362L6.86308 3.25662V7.65662L4.11208 6.00762L4.01208 13.7706C4.26908 13.8476 4.55208 13.9256 4.83508 14.0026L4.93508 7.47262L6.86308 8.62962V14.4386C7.14508 14.4896 7.42608 14.5386 7.70808 14.5666V9.14362L9.99908 10.5316ZM7.71108 4.74762L9.99908 6.11062L12.2871 4.74762V8.16662L9.99908 9.55462L7.71108 8.16662V4.74762Z" fill="black"/>
</svg>
