<svg width="18" height="18" viewBox="0 0 18 18" fill="none" xmlns="http://www.w3.org/2000/svg">
<path d="M9 0.0380859C5.91672 0.0549381 2.86396 0.649888 0 1.79209C0.143239 2.14986 0.310279 2.49764 0.5 2.83309C3.18199 1.67412 6.07856 1.09481 9 1.13309C11.9214 1.0949 14.818 1.67421 17.5 2.83309C17.6955 2.50069 17.8628 2.15246 18 1.79209C15.136 0.649888 12.0833 0.0549381 9 0.0380859ZM9 4.04309L7.143 1.78209C4.94869 1.89691 2.79466 2.41736 0.79 3.31709C1.41683 4.13245 2.25423 4.76136 3.212 5.13609C3.322 4.06209 4.078 3.80009 6.463 3.80009L9 17.9621L11.519 3.80009C13.919 3.80009 14.677 4.06309 14.786 5.13809C15.7436 4.76251 16.5808 4.13335 17.208 3.31809C15.2032 2.41891 13.0492 1.89848 10.855 1.78309L9 4.04309Z" fill="black"/>
</svg>
