<svg width="20" height="14" viewBox="0 0 20 14" fill="none" xmlns="http://www.w3.org/2000/svg">
<path d="M10 0.188477C4.344 0.188477 0 3.09448 0 7.00048C0 10.7505 4.219 13.8125 10 13.8125C15.781 13.8125 20 10.7505 20 7.00048C20 3.12548 15.656 0.188477 10 0.188477ZM14.375 1.71948C15.438 2.12548 16.125 2.65648 16.25 3.12548C16.469 3.96948 15.469 5.00048 12.344 5.34448C12.125 3.21948 11.5 1.40648 10.438 1.03148C11.7778 1.0583 13.1055 1.29032 14.375 1.71948ZM11.469 5.43848C11.031 5.43848 10.531 5.46948 10 5.46948C9.5 5.46948 9.031 5.46948 8.531 5.43848C8.781 3.65648 9.406 2.62548 10 2.62548C10.594 2.62548 11.25 3.65648 11.469 5.43848ZM3.75 3.12548C3.875 2.68848 4.531 2.15648 5.625 1.75048C6.89294 1.31127 8.22066 1.06879 9.562 1.03148C8.5 1.40648 7.875 3.21948 7.656 5.34448C4.531 5.00048 3.562 3.93848 3.75 3.12548ZM1.469 6.75048C1.46816 5.66763 1.84356 4.61813 2.531 3.78148C2.625 5.31248 4.688 6.43848 7.594 6.84448V6.96948C7.594 10.6255 8.531 12.5945 9.562 12.9695C5.125 12.8125 1.469 10.0625 1.469 6.75048ZM8.438 6.96948V6.93848C8.969 6.96948 9.5 7.00048 10 7.00048C10.531 7.00048 11.062 7.00048 11.562 6.96948C11.562 9.68848 10.75 10.8125 10 10.8125C9.25 10.8125 8.438 9.68848 8.438 6.96948ZM10.406 13.0005C11.469 12.5945 12.406 10.5005 12.406 6.96948V6.84448C15.344 6.43848 17.406 5.31248 17.469 3.78148C18.1564 4.61813 18.5318 5.66763 18.531 6.75048C18.531 10.0625 14.875 12.8445 10.406 13.0005Z" fill="black"/>
</svg>
