<svg width="24" height="24" viewBox="0 0 24 24" fill="none" xmlns="http://www.w3.org/2000/svg">
<path d="M8 10.5C8 11.6046 7.10457 12.5 6 12.5C4.89543 12.5 4 11.6046 4 10.5C4 9.39543 4.89543 8.5 6 8.5C7.10457 8.5 8 9.39543 8 10.5Z" stroke="black"/>
<path d="M1.5 17.4662C1.50307 17.4603 1.5063 17.4541 1.50969 17.4476C1.54938 17.3722 1.61139 17.261 1.69711 17.126C1.86901 16.8553 2.13348 16.4931 2.50076 16.1315C3.23162 15.4121 4.3619 14.7002 6 14.7002C7.6381 14.7002 8.76838 15.4121 9.49924 16.1315C9.86652 16.4931 10.131 16.8553 10.3029 17.126C10.3886 17.261 10.4506 17.3722 10.4903 17.4476C10.4937 17.4541 10.4969 17.4603 10.5 17.4662V18.5002H1.5V17.4662ZM1.4564 17.5544L1.45673 17.5537L1.45659 17.554L1.4564 17.5544ZM22.5 18.5002H13.5V17.4662C13.5031 17.4603 13.5063 17.4541 13.5097 17.4476C13.5494 17.3722 13.6114 17.261 13.6971 17.126C13.869 16.8553 14.1335 16.4931 14.5008 16.1315C15.2316 15.4121 16.3619 14.7002 18 14.7002C19.6381 14.7002 20.7684 15.4121 21.4992 16.1315C21.8665 16.4931 22.131 16.8553 22.3029 17.126C22.3886 17.261 22.4506 17.3722 22.4903 17.4476C22.4937 17.4541 22.4969 17.4603 22.5 17.4662V18.5002Z" stroke="black"/>
<path d="M14.5 8.5C14.5 9.88071 13.3807 11 12 11C10.6193 11 9.5 9.88071 9.5 8.5C9.5 7.11929 10.6193 6 12 6C13.3807 6 14.5 7.11929 14.5 8.5Z" stroke="black"/>
<path d="M17.5 18.4998H6.5V17.164C6.50669 17.1508 6.51418 17.1362 6.52248 17.1203C6.5704 17.0287 6.64501 16.8943 6.74819 16.7314C6.955 16.4049 7.27384 15.9681 7.71879 15.5318C8.60446 14.6635 9.98479 13.7998 12 13.7998C14.0152 13.7998 15.3955 14.6635 16.2812 15.5318C16.7262 15.9681 17.045 16.4049 17.2518 16.7314C17.355 16.8943 17.4296 17.0287 17.4775 17.1203C17.4858 17.1362 17.4933 17.1508 17.5 17.164V18.4998ZM6.45719 17.2522C6.45713 17.2524 6.45717 17.2523 6.45731 17.252L6.45719 17.2522Z" stroke="black"/>
<path d="M20 10.5C20 11.6046 19.1046 12.5 18 12.5C16.8954 12.5 16 11.6046 16 10.5C16 9.39543 16.8954 8.5 18 8.5C19.1046 8.5 20 9.39543 20 10.5Z" stroke="black"/>
</svg>
