<svg width="24" height="24" viewBox="0 0 24 24" fill="none" xmlns="http://www.w3.org/2000/svg">
<g clip-path="url(#clip0_591_7350)">
<path d="M6.5 21C6.50005 19.7924 6.20954 18.6026 5.653 17.531C5.55315 17.3427 5.43491 17.1649 5.3 17H0.5V17.25C1.155 18.397 1.5 19.68 1.5 21H10M15 23.5H0M15.5 9.49995C15.5 8.29242 15.2095 7.10261 14.653 6.03095C14.5532 5.84272 14.4349 5.66485 14.3 5.49995H9.5V5.74995C10.155 6.89695 10.5 8.17995 10.5 9.49995H19M24 12H15M14.5 21.5V19C14.5 19 13 18 10.5 18C9.494 18 8.65 18.162 8 18.355M23.5 9.99995V7.49995C23.5 7.49995 22 6.49995 19.5 6.49995C18.494 6.49995 17.65 6.66195 17 6.85595M10.35 16C10.35 16 8.75 15 8.75 13.75C8.75 13.2864 8.93416 12.8417 9.26198 12.5139C9.58979 12.1861 10.0344 12.002 10.498 12.002C10.9616 12.002 11.4062 12.1861 11.734 12.5139C12.0618 12.8417 12.246 13.2864 12.246 13.75C12.246 15 10.65 16 10.65 16H10.35ZM19.35 4.49995C19.35 4.49995 17.75 3.49995 17.75 2.24995C17.75 1.78635 17.9342 1.34174 18.262 1.01393C18.5898 0.686117 19.0344 0.501953 19.498 0.501953C19.9616 0.501953 20.4062 0.686117 20.734 1.01393C21.0618 1.34174 21.246 1.78635 21.246 2.24995C21.246 3.49995 19.65 4.49995 19.65 4.49995H19.35Z" stroke="black"/>
</g>
<defs>
<clipPath id="clip0_591_7350">
<rect width="24" height="24" fill="white"/>
</clipPath>
</defs>
</svg>
