<svg width="25" height="24" viewBox="0 0 25 24" fill="none" xmlns="http://www.w3.org/2000/svg">
<path d="M11.3896 3.00707C11.1796 2.99957 11 3.1719 11 3.3894V4.87475C11 5.08475 11.165 5.24975 11.375 5.24975V5.2644C16.0475 5.4444 19.8054 9.20225 19.9854 13.8747H20C20 14.0847 20.165 14.2497 20.375 14.2497H21.8604C22.0779 14.2497 22.2502 14.0701 22.2427 13.8601C22.0402 7.9651 17.2846 3.20957 11.3896 3.00707ZM11.3896 6.75707C11.1796 6.74957 11 6.9294 11 7.1394V8.62475C11 8.83475 11.165 8.99975 11.375 8.99975V9.02172C13.9775 9.19422 16.0555 11.2722 16.228 13.8747H16.25C16.25 14.0847 16.415 14.2497 16.625 14.2497H18.1104C18.3204 14.2497 18.5002 14.0701 18.4927 13.8601C18.2902 10.0351 15.2146 6.95957 11.3896 6.75707ZM4.625 7.49975C4.415 7.49975 4.25 7.66475 4.25 7.87475V16.1247C4.25 18.8097 6.44 20.9997 9.125 20.9997C11.81 20.9997 14 18.8097 14 16.1247C14 13.4397 11.81 11.2497 9.125 11.2497C8.915 11.2497 8.75 11.4147 8.75 11.6247V13.8747C8.75 14.0847 8.915 14.2497 9.125 14.2497C10.16 14.2497 11 15.0897 11 16.1247C11 17.1597 10.16 17.9997 9.125 17.9997C8.09 17.9997 7.25 17.1597 7.25 16.1247V7.87475C7.25 7.66475 7.085 7.49975 6.875 7.49975H4.625Z" fill="#747474"/>
</svg>
