<svg width="25" height="24" viewBox="0 0 25 24" fill="none" xmlns="http://www.w3.org/2000/svg">
<path d="M4.818 20.536C6.136 22 8.258 22 12.5 22C16.743 22 18.864 22 20.182 20.535C21.5 19.072 21.5 16.714 21.5 12C21.5 7.286 21.5 4.929 20.182 3.464C18.864 2 16.742 2 12.5 2C8.257 2 6.136 2 4.818 3.464C3.5 4.93 3.5 7.286 3.5 12C3.5 16.714 3.5 19.072 4.818 20.536Z" stroke="#747474" stroke-width="1.5"/>
<path opacity="0.5" d="M7.5 8C7.5 7.535 7.5 7.303 7.551 7.112C7.61919 6.85787 7.75303 6.62614 7.93909 6.44009C8.12514 6.25403 8.35687 6.12019 8.611 6.052C8.804 6 9.036 6 9.5 6H15.5C15.965 6 16.197 6 16.388 6.051C16.6421 6.11919 16.8739 6.25303 17.0599 6.43909C17.246 6.62514 17.3798 6.85687 17.448 7.111C17.5 7.304 17.5 7.536 17.5 8C17.5 8.464 17.5 8.697 17.449 8.888C17.3808 9.14213 17.247 9.37386 17.0609 9.55991C16.8749 9.74597 16.6431 9.87981 16.389 9.948C16.197 10 15.964 10 15.5 10H9.5C9.035 10 8.803 10 8.612 9.949C8.35787 9.88081 8.12614 9.74697 7.94009 9.56091C7.75403 9.37486 7.62019 9.14313 7.552 8.889C7.5 8.696 7.5 8.464 7.5 8Z" stroke="#747474" stroke-width="1.5"/>
<path opacity="0.5" d="M8.5 14C9.05228 14 9.5 13.5523 9.5 13C9.5 12.4477 9.05228 12 8.5 12C7.94772 12 7.5 12.4477 7.5 13C7.5 13.5523 7.94772 14 8.5 14Z" fill="#747474"/>
<path opacity="0.5" d="M8.5 18C9.05228 18 9.5 17.5523 9.5 17C9.5 16.4477 9.05228 16 8.5 16C7.94772 16 7.5 16.4477 7.5 17C7.5 17.5523 7.94772 18 8.5 18Z" fill="#747474"/>
<path opacity="0.5" d="M12.5 14C13.0523 14 13.5 13.5523 13.5 13C13.5 12.4477 13.0523 12 12.5 12C11.9477 12 11.5 12.4477 11.5 13C11.5 13.5523 11.9477 14 12.5 14Z" fill="#747474"/>
<path opacity="0.5" d="M12.5 18C13.0523 18 13.5 17.5523 13.5 17C13.5 16.4477 13.0523 16 12.5 16C11.9477 16 11.5 16.4477 11.5 17C11.5 17.5523 11.9477 18 12.5 18Z" fill="#747474"/>
<path opacity="0.5" d="M16.5 14C17.0523 14 17.5 13.5523 17.5 13C17.5 12.4477 17.0523 12 16.5 12C15.9477 12 15.5 12.4477 15.5 13C15.5 13.5523 15.9477 14 16.5 14Z" fill="#747474"/>
<path opacity="0.5" d="M16.5 18C17.0523 18 17.5 17.5523 17.5 17C17.5 16.4477 17.0523 16 16.5 16C15.9477 16 15.5 16.4477 15.5 17C15.5 17.5523 15.9477 18 16.5 18Z" fill="#747474"/>
</svg>
