<svg width="25" height="25" viewBox="0 0 25 25" fill="none" xmlns="http://www.w3.org/2000/svg">
<path d="M10.2312 11.367C10.3207 11.0087 10.6005 10.7289 10.9588 10.6394L14.4167 9.77491C15.149 9.59181 15.8124 10.2552 15.6293 10.9876L14.7649 14.4454C14.6753 14.8037 14.3955 15.0835 14.0373 15.173L10.5794 16.0375C9.84701 16.2206 9.18361 15.5572 9.36671 14.8248L10.2312 11.367Z" stroke="#747474" stroke-width="1.5" stroke-linecap="round" stroke-linejoin="round"/>
<path d="M12.5 4.40625C6 4.40625 4 6.40625 4 12.9062C4 19.4062 6 21.4062 12.5 21.4062C19 21.4062 21 19.4062 21 12.9062C21 6.40625 19 4.40625 12.5 4.40625Z" stroke="#747474" stroke-width="1.5" stroke-linecap="round" stroke-linejoin="round"/>
</svg>
