<svg width="25" height="25" viewBox="0 0 25 25" fill="none" xmlns="http://www.w3.org/2000/svg">
<g clip-path="url(#clip0_2070_4578)">
<path d="M9.60462 15.8618L10.1606 15.5409C10.3872 15.41 10.4648 15.1202 10.334 14.8936L9.28057 13.069C9.19282 12.917 9.03354 12.832 8.86983 12.832C8.78942 12.832 8.70797 12.8525 8.63338 12.8956L8.07742 13.2166C8.00106 13.2606 7.92009 13.2807 7.84122 13.2807C7.59371 13.2807 7.36672 13.0828 7.36672 12.8062V12.1643C7.36672 11.9026 7.15459 11.6904 6.89286 11.6904H4.78595C4.52429 11.6904 4.31209 11.9026 4.31209 12.1643V12.8062C4.31209 13.0828 4.08502 13.2807 3.83758 13.2807C3.75872 13.2807 3.67775 13.2606 3.60138 13.2166L3.04542 12.8956C2.97084 12.8525 2.8893 12.8321 2.80898 12.832C2.64518 12.832 2.48599 12.917 2.39823 13.069L1.34482 14.8936C1.21399 15.1202 1.29164 15.41 1.51823 15.5409L2.07419 15.8618C2.39007 16.0442 2.39007 16.5001 2.07419 16.6825L1.51823 17.0035C1.29156 17.1343 1.21399 17.4241 1.34482 17.6508L2.39823 19.4753C2.48599 19.6273 2.64526 19.7123 2.80898 19.7123C2.88938 19.7123 2.97084 19.6918 3.04542 19.6487L3.60138 19.3278C3.67775 19.2837 3.75872 19.2636 3.83758 19.2636C4.0851 19.2636 4.31209 19.4615 4.31209 19.7381V20.38C4.31209 20.6417 4.52421 20.8539 4.78595 20.8539H6.89278C7.15443 20.8539 7.36663 20.6418 7.36663 20.38V19.7381C7.36663 19.4615 7.59371 19.2636 7.84114 19.2636C7.92001 19.2636 8.00098 19.2837 8.07734 19.3278L8.6333 19.6487C8.70789 19.6918 8.78942 19.7123 8.86975 19.7123C9.03354 19.7123 9.19274 19.6273 9.28049 19.4753L10.3339 17.6508C10.4647 17.4241 10.3871 17.1343 10.1605 17.0035L9.60453 16.6825C9.28874 16.5001 9.28874 16.0441 9.60462 15.8618ZM5.83944 17.6779C5.06304 17.6779 4.43371 17.0485 4.43371 16.2722C4.43371 15.4958 5.06312 14.8664 5.83944 14.8664C6.61577 14.8664 7.24518 15.4958 7.24518 16.2722C7.24518 17.0485 6.61577 17.6779 5.83944 17.6779Z" fill="#747474"/>
<path d="M9.24029 2.81848C8.98607 2.56441 8.57419 2.56441 8.31997 2.81848C8.06583 3.0727 8.06583 3.48466 8.31997 3.7388L9.4828 4.90155C5.20894 5.11318 1.74938 8.47019 1.375 12.7L1.47116 12.5334C1.74639 12.0566 2.25953 11.7605 2.81015 11.7605C2.82179 11.7605 2.83334 11.7616 2.84498 11.7619C3.57823 8.71375 6.23609 6.40829 9.45629 6.20805L8.31997 7.34429C8.06583 7.59844 8.06583 8.01048 8.31997 8.26462C8.44708 8.39165 8.61355 8.45516 8.78009 8.45516C8.94664 8.45516 9.11318 8.39165 9.24021 8.26462L11.5032 6.00167C11.6252 5.87957 11.6937 5.71407 11.6937 5.54155C11.6937 5.36894 11.6252 5.20344 11.5032 5.08142L9.24029 2.81848Z" fill="#747474"/>
<path d="M17.4642 6.14722C18.9091 6.14722 20.0846 4.9717 20.0846 3.52678C20.0846 2.08177 18.9091 0.90625 17.4642 0.90625C16.0193 0.90625 14.8438 2.08177 14.8438 3.52669C14.8438 4.97162 16.0193 6.14722 17.4642 6.14722Z" fill="#747474"/>
<path d="M22.5698 13.2113V9.60891C22.5698 8.61174 21.929 7.72746 20.9814 7.41707L20.977 7.41562L19.591 7.18612C19.473 7.14984 19.3469 7.21231 19.3045 7.32867L17.7318 11.6437C17.6411 11.8927 17.289 11.8927 17.1983 11.6437L15.6256 7.32867C15.5914 7.23469 15.5026 7.17578 15.4076 7.17578C15.3851 7.17578 13.9532 7.4153 13.9532 7.4153C12.9978 7.73368 12.3594 8.61934 12.3594 9.62087V13.2113C12.3594 13.7494 12.7956 14.1856 13.3336 14.1856H21.5955C22.1337 14.1856 22.5698 13.7494 22.5698 13.2113Z" fill="#747474"/>
<path d="M23.728 14.0723C23.6736 14.8169 23.0627 15.2729 22.3179 15.3269C21.7473 18.5936 18.9881 21.116 15.6126 21.3258L16.7488 20.1896C17.0029 19.9354 17.0029 19.5234 16.7488 19.2693C16.4946 19.0152 16.0827 19.0152 15.8285 19.2693L13.5656 21.5322C13.3115 21.7864 13.3115 22.1984 13.5656 22.4525L15.8285 24.7154C15.9556 24.8424 16.1221 24.906 16.2886 24.906C16.4551 24.906 16.6217 24.8424 16.7487 24.7154C17.0029 24.4613 17.0029 24.0492 16.7487 23.7951L15.586 22.6323C20.1135 22.4082 23.728 18.6544 23.728 14.0723Z" fill="#747474"/>
<path d="M18.0369 7.137C17.9766 7.07122 17.8882 7.03809 17.7989 7.03809H17.1326C17.0433 7.03809 16.955 7.07122 16.8945 7.137C16.801 7.23889 16.7875 7.38605 16.8538 7.50104L17.2099 8.03792L17.0432 9.44439L17.3715 10.3178C17.4035 10.4056 17.5277 10.4056 17.5598 10.3178L17.8881 9.44439L17.7214 8.03792L18.0776 7.50104C18.144 7.38605 18.1304 7.23889 18.0369 7.137Z" fill="#747474"/>
</g>
<defs>
<clipPath id="clip0_2070_4578">
<rect width="24" height="24" fill="white" transform="translate(0.5 0.90625)"/>
</clipPath>
</defs>
</svg>
