<svg width="25" height="25" viewBox="0 0 25 25" fill="none" xmlns="http://www.w3.org/2000/svg">
<path d="M14.5 10.9062H12C11.6022 10.9063 11.2206 11.0643 10.9393 11.3456C10.658 11.6269 10.5 12.0084 10.5 12.4062C10.5 12.8041 10.658 13.1856 10.9393 13.4669C11.2206 13.7482 11.6022 13.9062 12 13.9062H13C13.3978 13.9063 13.7794 14.0643 14.0607 14.3456C14.342 14.6269 14.5 15.0084 14.5 15.4062C14.5 15.8041 14.342 16.1856 14.0607 16.4669C13.7794 16.7482 13.3978 16.9062 13 16.9062H10.5" stroke="#747474" stroke-width="1.5" stroke-linecap="round" stroke-linejoin="round"/>
<path d="M12.5 10.9062V9.90625M12.5 17.9062V16.9062" stroke="#747474" stroke-width="1.5" stroke-linecap="round" stroke-linejoin="round"/>
<path d="M11.54 5.90625L11 3.90625H14L13.47 5.87625" stroke="#747474" stroke-width="2" stroke-linecap="round" stroke-linejoin="round"/>
<path d="M12.5 21.9062C13.9171 21.923 15.3289 21.731 16.69 21.3362C17.5045 21.0824 18.2166 20.5748 18.7221 19.8876C19.2277 19.2003 19.5002 18.3694 19.5 17.5162C19.4972 16.4464 19.3423 15.3825 19.04 14.3562L17.65 9.73625C17.317 8.62929 16.6362 7.65904 15.7087 6.96921C14.7811 6.27938 13.656 5.90665 12.5 5.90625C11.344 5.90665 10.2189 6.27938 9.29135 6.96921C8.36377 7.65904 7.68304 8.62929 7.35 9.73625L5.96 14.3562C5.65772 15.3825 5.50284 16.4464 5.5 17.5162C5.49976 18.3694 5.77232 19.2003 6.27787 19.8876C6.78342 20.5748 7.49546 21.0824 8.31 21.3362C9.6711 21.731 11.0829 21.923 12.5 21.9062Z" stroke="#747474" stroke-width="1.5" stroke-linecap="round" stroke-linejoin="round"/>
</svg>
