<svg width="16" height="16" viewBox="0 0 16 16" fill="none" xmlns="http://www.w3.org/2000/svg">
<path d="M1.33327 3.19987H5.59994V1.59987C5.60047 1.3172 5.713 1.04574 5.913 0.845737C6.11247 0.64627 6.38394 0.533736 6.6666 0.533203H14.1333C14.4159 0.533736 14.6874 0.645737 14.8874 0.845737C15.0874 1.04574 15.1994 1.3172 15.1999 1.59987V14.3999C15.1994 14.6825 15.0869 14.954 14.8874 15.1535C14.6874 15.3535 14.4159 15.466 14.1333 15.4665H1.33327C1.0506 15.466 0.779668 15.3535 0.579668 15.1535C0.379668 14.9535 0.267135 14.6825 0.266602 14.3999V4.26654C0.267135 3.98387 0.379668 3.7124 0.579668 3.5124C0.779135 3.31294 1.0506 3.2004 1.33327 3.19987ZM9.33327 14.3999H11.4666V11.7332H9.33327V14.3999ZM6.6666 14.3999H8.2666V11.7332C8.26713 11.4505 8.37967 11.1791 8.57967 10.9796C8.77914 10.7796 9.0506 10.6671 9.33327 10.6665H11.4666C11.7493 10.6671 12.0207 10.7796 12.2207 10.9796C12.4202 11.1791 12.5327 11.4505 12.5333 11.7332V14.3999H14.1333L14.1338 1.59987H6.6666V14.3999ZM1.33327 14.3999H5.59994V4.26654H1.33327V14.3999ZM8.2666 7.99987C8.2666 8.10547 8.29807 8.2084 8.35674 8.2964C8.41487 8.38387 8.4986 8.45214 8.59567 8.49267C8.69327 8.5332 8.80047 8.54334 8.90394 8.52307C9.0074 8.50227 9.10233 8.4516 9.177 8.37694C9.25167 8.30227 9.30234 8.20734 9.32314 8.10387C9.3434 8.0004 9.33327 7.8932 9.29274 7.7956C9.2522 7.69854 9.18394 7.6148 9.09647 7.55667C9.00847 7.498 8.90554 7.46654 8.79994 7.46654C8.6586 7.46654 8.5226 7.52254 8.42287 7.6228C8.3226 7.72254 8.2666 7.85854 8.2666 7.99987ZM8.2666 5.86654C8.2666 5.97214 8.29807 6.07507 8.35674 6.16307C8.41487 6.25054 8.4986 6.3188 8.59567 6.35934C8.69327 6.39987 8.80047 6.41 8.90394 6.38974C9.0074 6.36894 9.10233 6.31827 9.177 6.2436C9.25167 6.16894 9.30234 6.074 9.32314 5.97054C9.3434 5.86707 9.33327 5.75987 9.29274 5.66227C9.2522 5.5652 9.18394 5.48147 9.09647 5.42334C9.00847 5.36467 8.90554 5.3332 8.79994 5.3332C8.6586 5.3332 8.5226 5.3892 8.42287 5.48947C8.3226 5.5892 8.2666 5.7252 8.2666 5.86654ZM8.2666 3.7332C8.2666 3.8388 8.29807 3.94174 8.35674 4.02974C8.41487 4.1172 8.4986 4.18547 8.59567 4.226C8.69327 4.26654 8.80047 4.27667 8.90394 4.2564C9.0074 4.2356 9.10233 4.18494 9.177 4.11027C9.25167 4.0356 9.30234 3.94067 9.32314 3.8372C9.3434 3.73374 9.33327 3.62654 9.29274 3.52894C9.2522 3.43187 9.18394 3.34814 9.09647 3.29C9.00847 3.23134 8.90554 3.19987 8.79994 3.19987C8.6586 3.19987 8.5226 3.25587 8.42287 3.35614C8.3226 3.45587 8.2666 3.59187 8.2666 3.7332ZM11.4666 7.99987C11.4666 8.10547 11.4981 8.2084 11.5567 8.2964C11.6149 8.38387 11.6986 8.45214 11.7957 8.49267C11.8933 8.5332 12.0005 8.54334 12.1039 8.52307C12.2074 8.50227 12.3023 8.4516 12.377 8.37694C12.4517 8.30227 12.5023 8.20734 12.5231 8.10387C12.5434 8.0004 12.5333 7.8932 12.4927 7.7956C12.4522 7.69854 12.3839 7.6148 12.2965 7.55667C12.2085 7.498 12.1055 7.46654 11.9999 7.46654C11.8586 7.46654 11.7226 7.52254 11.6229 7.6228C11.5226 7.72254 11.4666 7.85854 11.4666 7.99987ZM11.4666 5.86654C11.4666 5.97214 11.4981 6.07507 11.5567 6.16307C11.6149 6.25054 11.6986 6.3188 11.7957 6.35934C11.8933 6.39987 12.0005 6.41 12.1039 6.38974C12.2074 6.36894 12.3023 6.31827 12.377 6.2436C12.4517 6.16894 12.5023 6.074 12.5231 5.97054C12.5434 5.86707 12.5333 5.75987 12.4927 5.66227C12.4522 5.5652 12.3839 5.48147 12.2965 5.42334C12.2085 5.36467 12.1055 5.3332 11.9999 5.3332C11.8586 5.3332 11.7226 5.3892 11.6229 5.48947C11.5226 5.5892 11.4666 5.7252 11.4666 5.86654ZM11.4666 3.7332C11.4666 3.8388 11.4981 3.94174 11.5567 4.02974C11.6149 4.1172 11.6986 4.18547 11.7957 4.226C11.8933 4.26654 12.0005 4.27667 12.1039 4.2564C12.2074 4.2356 12.3023 4.18494 12.377 4.11027C12.4517 4.0356 12.5023 3.94067 12.5231 3.8372C12.5434 3.73374 12.5333 3.62654 12.4927 3.52894C12.4522 3.43187 12.3839 3.34814 12.2965 3.29C12.2085 3.23134 12.1055 3.19987 11.9999 3.19987C11.8586 3.19987 11.7226 3.25587 11.6229 3.35614C11.5226 3.45587 11.4666 3.59187 11.4666 3.7332Z" fill="#121212"/>
</svg>
