<svg width="24" height="24" viewBox="0 0 24 24" fill="none" xmlns="http://www.w3.org/2000/svg">
<g clip-path="url(#clip0_954_4979)">
<path d="M4.00025 21.5919H7.19769C7.4375 21.5919 7.59735 21.4321 7.59735 21.1923V18.7942C7.59735 18.5544 7.4375 18.3945 7.19769 18.3945H4.00025C3.76044 18.3945 3.60059 18.5544 3.60059 18.7942V21.1923C3.60059 21.432 3.76044 21.5919 4.00025 21.5919ZM4.39996 19.1939H6.79803V20.7926H4.39996V19.1939Z" fill="black"/>
<path d="M16.7903 21.5919H19.9877C20.2275 21.5919 20.3874 21.4321 20.3874 21.1923V18.7942C20.3874 18.5544 20.2275 18.3945 19.9877 18.3945H16.7903C16.5505 18.3945 16.3906 18.5544 16.3906 18.7942V21.1923C16.3906 21.432 16.5505 21.5919 16.7903 21.5919ZM17.19 19.1939H19.588V20.7926H17.19V19.1939Z" fill="black"/>
<path d="M4.00025 17.5958H7.19769C7.4375 17.5958 7.59735 17.436 7.59735 17.1962V14.7981C7.59735 14.5583 7.4375 14.3984 7.19769 14.3984H4.00025C3.76044 14.3984 3.60059 14.5583 3.60059 14.7981V17.1962C3.60059 17.4359 3.76044 17.5958 4.00025 17.5958ZM4.39996 15.1978H6.79803V16.7965H4.39996V15.1978Z" fill="black"/>
<path d="M16.7903 17.5958H19.9877C20.2275 17.5958 20.3874 17.436 20.3874 17.1962V14.7981C20.3874 14.5583 20.2275 14.3984 19.9877 14.3984H16.7903C16.5505 14.3984 16.3906 14.5583 16.3906 14.7981V17.1962C16.3906 17.4359 16.5505 17.5958 16.7903 17.5958ZM17.19 15.1978H19.588V16.7965H17.19V15.1978Z" fill="black"/>
<path d="M4.00025 13.5988H7.19769C7.4375 13.5988 7.59735 13.4389 7.59735 13.1991V10.801C7.59735 10.5612 7.4375 10.4014 7.19769 10.4014H4.00025C3.76044 10.4014 3.60059 10.5612 3.60059 10.801V13.1991C3.60059 13.4389 3.76044 13.5988 4.00025 13.5988ZM4.39996 11.2007H6.79803V12.7994H4.39996V11.2007Z" fill="black"/>
<path d="M16.7903 13.5988H19.9877C20.2275 13.5988 20.3874 13.4389 20.3874 13.1991V10.801C20.3874 10.5612 20.2275 10.4014 19.9877 10.4014H16.7903C16.5505 10.4014 16.3906 10.5612 16.3906 10.801V13.1991C16.3906 13.4389 16.5505 13.5988 16.7903 13.5988ZM17.19 11.2007H19.588V12.7994H17.19V11.2007Z" fill="black"/>
<path d="M4.00025 9.60169H7.19769C7.4375 9.60169 7.59735 9.44184 7.59735 9.20203V6.80396C7.59735 6.56415 7.4375 6.4043 7.19769 6.4043H4.00025C3.76044 6.4043 3.60059 6.56415 3.60059 6.80396V9.20203C3.60059 9.44184 3.76044 9.60169 4.00025 9.60169ZM4.39996 7.20362H6.79803V8.80232H4.39996V7.20362Z" fill="black"/>
<path d="M10.3948 17.5958H13.5922C13.832 17.5958 13.9919 17.436 13.9919 17.1962V14.7981C13.9919 14.5583 13.832 14.3984 13.5922 14.3984H10.3948C10.155 14.3984 9.99512 14.5583 9.99512 14.7981V17.1962C9.99507 17.4359 10.155 17.5958 10.3948 17.5958ZM10.7944 15.1978H13.1925V16.7965H10.7944V15.1978Z" fill="black"/>
<path d="M10.3948 13.5988H13.5922C13.832 13.5988 13.9919 13.4389 13.9919 13.1991V10.801C13.9919 10.5612 13.832 10.4014 13.5922 10.4014H10.3948C10.155 10.4014 9.99512 10.5612 9.99512 10.801V13.1991C9.99507 13.4389 10.155 13.5988 10.3948 13.5988ZM10.7944 11.2007H13.1925V12.7994H10.7944V11.2007Z" fill="black"/>
<path d="M10.3948 9.60169H13.5922C13.832 9.60169 13.9919 9.44184 13.9919 9.20203V6.80396C13.9919 6.56415 13.832 6.4043 13.5922 6.4043H10.3948C10.155 6.4043 9.99512 6.56415 9.99512 6.80396V9.20203C9.99507 9.44184 10.155 9.60169 10.3948 9.60169ZM10.7944 7.20362H13.1925V8.80232H10.7944V7.20362Z" fill="black"/>
<path d="M16.7903 9.60169H19.9877C20.2275 9.60169 20.3874 9.44184 20.3874 9.20203V6.80396C20.3874 6.56415 20.2275 6.4043 19.9877 6.4043H16.7903C16.5505 6.4043 16.3906 6.56415 16.3906 6.80396V9.20203C16.3906 9.44184 16.5505 9.60169 16.7903 9.60169ZM17.19 7.20362H19.588V8.80232H17.19V7.20362Z" fill="black"/>
<path d="M23.9843 5.12566L22.7852 0.329524C22.7453 0.129669 22.5854 0.00976562 22.3856 0.00976562H2.00198C1.84213 0.00976562 1.68223 0.129669 1.64227 0.289525L0.0435752 5.08567C-0.0363761 5.20557 0.00362299 5.32547 0.0835274 5.44538C0.163479 5.52533 0.283382 5.60523 0.403286 5.60523H2.00198V23.1911H1.60227C1.36247 23.1911 1.20261 23.351 1.20261 23.5908C1.20261 23.8306 1.36247 23.9904 1.60227 23.9904H2.40165H9.59586H11.9939H14.392H21.5862H22.3856C22.6254 23.9904 22.7852 23.8306 22.7852 23.5908C22.7852 23.351 22.6254 23.1911 22.3856 23.1911H21.9859V5.60528H23.5846C23.7045 5.60528 23.8244 5.60528 23.9044 5.48537C23.9843 5.36547 24.0242 5.24557 23.9843 5.12566ZM11.5943 23.1911H9.99552V19.1943H11.5942V23.1911H11.5943ZM12.3936 23.1911V19.1943H13.9923V23.1911H12.3936ZM21.1865 23.1911H14.7917V18.7946C14.7917 18.5548 14.6318 18.395 14.392 18.395H11.9939H9.59586C9.35605 18.395 9.19619 18.5548 9.19619 18.7946V23.1911H2.80131V5.60528H21.1865V23.1911H21.1865ZM21.5862 4.80591H2.40165H0.962804L1.22659 4.00653H5.11948C5.27933 4.00653 5.43923 3.84668 5.43923 3.60687C5.43923 3.36706 5.31933 3.20721 5.07952 3.20721H1.49038L1.75417 2.40784H6.51832C6.75813 2.40784 6.91798 2.24798 6.91798 2.00817C6.91798 1.76837 6.75813 1.60851 6.51832 1.60851H2.01796L2.28174 0.809138H22.0658L22.2657 1.60851H17.9891C17.7493 1.60851 17.5894 1.76837 17.5894 2.00817C17.5894 2.24798 17.7493 2.40784 17.9891 2.40784H22.4655L22.6653 3.20721H19.1881C18.9483 3.20721 18.7885 3.36706 18.7885 3.60687C18.7885 3.84668 18.9483 4.00653 19.1881 4.00653H22.8652L23.0651 4.80591H21.5862Z" fill="black"/>
</g>
<defs>
<clipPath id="clip0_954_4979">
<rect width="24" height="24" fill="white"/>
</clipPath>
</defs>
</svg>
