<svg width="24" height="24" viewBox="0 0 24 24" fill="none" xmlns="http://www.w3.org/2000/svg">
<g clip-path="url(#clip0_954_5024)">
<path d="M17.893 2.07165C17.893 1.0314 17.893 0.344198 17.893 0.17458H17.8591C13.6778 0.17458 9.84776 0.168945 6.12055 0.168945H6.06159C6.06075 1.29041 6.068 22.1503 6.068 23.8308H17.8877C17.8877 22.5168 17.8926 7.49531 17.893 2.07165Z" fill="white"/>
<path d="M7.07998 1.18066H7.04688V20.1686C11.211 20.1686 13.0148 20.1686 16.9083 20.1686C16.9083 16.4255 16.9083 4.52413 16.9093 1.18123C14.6347 1.18095 9.40701 1.18088 7.07998 1.18066Z" fill="white"/>
<path d="M14.0337 1.18066V20.1681H13.1885V1.18066H14.0337Z" fill="white"/>
<path d="M10.7662 1.18066V20.1681H9.9209V1.18066H10.7662Z" fill="white"/>
<path d="M13.8648 1.18077V20.1682L14.0339 19.9991H13.1886L13.3576 20.1682V1.18077L13.1886 1.34983H14.0339C14.2514 1.34983 14.2518 1.01172 14.0339 1.01172H13.1886C13.1439 1.01236 13.1013 1.03037 13.0698 1.06194C13.0382 1.0935 13.0202 1.13614 13.0195 1.18077V20.1682C13.0202 20.2128 13.0382 20.2555 13.0698 20.287C13.1013 20.3186 13.1439 20.3366 13.1886 20.3372H14.0339C14.0785 20.3366 14.1211 20.3186 14.1527 20.287C14.1843 20.2555 14.2023 20.2128 14.2029 20.1682V1.18077C14.2029 0.963186 13.8648 0.962834 13.8648 1.18077Z" fill="#211715"/>
<path d="M10.5972 1.18077V20.1682L10.7663 19.9991H9.92101L10.0901 20.1682V1.18077L9.92101 1.34983H10.7663C10.9839 1.34983 10.9842 1.01172 10.7663 1.01172H9.92101C9.87637 1.01236 9.83374 1.03037 9.80217 1.06194C9.77061 1.0935 9.75259 1.13614 9.75195 1.18077V20.1682C9.75259 20.2128 9.77061 20.2555 9.80217 20.287C9.83374 20.3186 9.87637 20.3366 9.92101 20.3372H10.7663C10.8109 20.3366 10.8535 20.3186 10.8851 20.287C10.9167 20.2555 10.9347 20.2128 10.9353 20.1682V1.18077C10.9353 0.963186 10.5972 0.962834 10.5972 1.18077Z" fill="#211715"/>
<path d="M6.87793 0.221916V20.1681C6.87793 20.3857 7.21604 20.386 7.21604 20.1681V0.221916C7.21604 0.00432928 6.87793 0.00397708 6.87793 0.221916Z" fill="#211715"/>
<path d="M17.7249 0.169181C17.7249 0.44657 17.7249 0.723983 17.7249 1.00142C17.7249 1.58719 17.7248 2.17298 17.7245 2.7588C17.7245 3.57984 17.7242 4.40088 17.7238 5.22192L17.7229 8.16993C17.7226 9.24061 17.7222 10.3113 17.7219 11.382C17.7216 12.4714 17.7213 13.5609 17.721 14.6503C17.7206 15.6761 17.7203 16.702 17.7201 17.7279C17.7198 18.6208 17.7195 19.5138 17.7193 20.4067C17.7193 21.0932 17.7191 21.7797 17.7188 22.4662C17.7188 22.8727 17.7188 23.2792 17.7188 23.6855V23.8311C17.7188 24.0487 18.0569 24.049 18.0569 23.8311C18.0569 23.5027 18.0569 23.1743 18.0569 22.8458C18.0569 22.2202 18.057 21.5946 18.0574 20.9689C18.0574 20.119 18.0576 19.2691 18.0581 18.4194L18.0589 15.4178C18.0592 14.3402 18.0596 13.2626 18.0599 12.185C18.0602 11.0998 18.0605 10.0147 18.0609 8.92948L18.0617 5.89743C18.062 5.0307 18.0623 4.16392 18.0625 3.2971C18.0625 2.64779 18.0627 1.99848 18.0631 1.34918C18.0631 0.990829 18.0631 0.632529 18.0631 0.274276C18.0631 0.239198 18.0631 0.204166 18.0631 0.169181C18.0631 -0.0484051 17.7249 -0.0487573 17.7249 0.169181Z" fill="#211715"/>
<path d="M6.12035 0.338108C7.59741 0.338108 9.0745 0.338742 10.5516 0.340009C12.0841 0.341043 13.6165 0.342052 15.149 0.343038C16.0523 0.343461 16.9556 0.343696 17.859 0.343743C18.0765 0.343743 18.0769 0.00563513 17.859 0.00563513C16.2738 0.00563513 14.6886 0.00500117 13.1034 0.00373327C11.6012 0.00270016 10.0989 0.00169054 8.59664 0.000704391C7.77119 0.000234797 6.94576 0 6.12035 0C5.90277 0 5.90241 0.338108 6.12035 0.338108Z" fill="#211715"/>
<path d="M5.8916 0.163269C5.8916 0.444368 5.8916 0.725467 5.8916 1.00657C5.8916 1.59356 5.89179 2.18055 5.89217 2.76754C5.89245 3.58773 5.89271 4.40793 5.89294 5.22812C5.89332 6.20863 5.89364 7.18914 5.89393 8.16966L5.89498 11.361L5.89604 14.6214C5.8966 15.6422 5.89688 16.663 5.89688 17.6836L5.89773 20.3656C5.89773 21.0559 5.89792 21.7463 5.89829 22.4369C5.89829 22.8508 5.89829 23.2648 5.89829 23.6788V23.8308C5.89829 24.0484 6.2364 24.0487 6.2364 23.8308C6.2364 23.4951 6.2364 23.1593 6.2364 22.8235C6.2364 22.1936 6.23621 21.5638 6.23584 20.9339C6.23556 20.0827 6.2353 19.2315 6.23506 18.3804C6.23469 17.3807 6.23436 16.381 6.23408 15.3814L6.23302 12.1681L6.23196 8.92089C6.23168 7.91652 6.23135 6.91211 6.23098 5.90765L6.23055 3.31049C6.23055 2.66005 6.23037 2.00966 6.22999 1.35932C6.22999 0.997127 6.22999 0.634906 6.22999 0.272661V0.163269C6.22999 -0.0542469 5.89188 -0.0545991 5.89188 0.163269H5.8916Z" fill="#211715"/>
<path d="M16.863 1.01172H7.08417C6.86665 1.01172 6.8663 1.34983 7.08417 1.34983H16.863C17.0806 1.34983 17.081 1.01172 16.863 1.01172Z" fill="#211715"/>
<path d="M16.7393 0.244324V20.1379C16.7393 20.3555 17.0774 20.3558 17.0774 20.1379V0.244324C17.0774 0.0268078 16.7393 0.0264556 16.7393 0.244324Z" fill="#211715"/>
<path d="M7.04688 2.625H16.9083V3.18851H7.04688V2.625Z" fill="white"/>
<path d="M7.04688 4.35059H16.9083V4.9141H7.04688V4.35059Z" fill="white"/>
<path d="M7.04688 6.07715H16.9083V6.64066H7.04688V6.07715Z" fill="white"/>
<path d="M7.04688 7.80371H16.9083V8.36722H7.04688V7.80371Z" fill="white"/>
<path d="M7.04688 9.5293H16.9083V10.0928H7.04688V9.5293Z" fill="white"/>
<path d="M7.04688 11.2559H16.9083V11.8194H7.04688V11.2559Z" fill="white"/>
<path d="M7.04688 12.9814H16.9083V13.545H7.04688V12.9814Z" fill="white"/>
<path d="M7.04688 14.708H16.9083V15.2715H7.04688V14.708Z" fill="white"/>
<path d="M7.04688 16.4336H16.9083V16.9971H7.04688V16.4336Z" fill="white"/>
<path d="M7.04688 18.1602H16.9083V18.7237H7.04688V18.1602Z" fill="white"/>
<path d="M16.9083 23.6297C16.9083 23.2809 16.9083 22.2175 16.909 21.1934H7.04688V23.8307H16.9083V23.6297Z" fill="white"/>
<path d="M6.10863 21.3625H17.8522C18.0698 21.3625 18.0701 21.0244 17.8522 21.0244H6.10863C5.89105 21.0244 5.8907 21.3625 6.10863 21.3625Z" fill="#211715"/>
<path d="M6.10863 20.3371H17.8529C18.0705 20.3371 18.0708 19.999 17.8529 19.999H6.10863C5.89105 19.999 5.8907 20.3371 6.10863 20.3371Z" fill="#211715"/>
<path d="M16.7393 21.3538V23.7487C16.7393 23.9662 17.0774 23.9665 17.0774 23.7487V21.3538C17.0774 21.1362 16.7393 21.1358 16.7393 21.3538Z" fill="#211715"/>
<path d="M13.4443 21.7756V23.3253C13.4443 23.5428 13.7824 23.5432 13.7824 23.3253V21.7756C13.7824 21.558 13.4443 21.5577 13.4443 21.7756Z" fill="#211715"/>
<path d="M10.1729 21.7756V23.3253C10.1729 23.5428 10.511 23.5432 10.511 23.3253V21.7756C10.511 21.558 10.1729 21.5577 10.1729 21.7756Z" fill="#211715"/>
<path d="M6.87793 21.3538V23.7487C6.87793 23.9662 7.21604 23.9665 7.21604 23.7487V21.3538C7.21604 21.1362 6.87793 21.1358 6.87793 21.3538Z" fill="#211715"/>
<path d="M7.04698 2.79416H16.9085L16.7394 2.62511V3.18862L16.9085 3.01957H7.04698L7.21604 3.18862V2.62511C7.21604 2.40759 6.87793 2.40724 6.87793 2.62511V3.18862C6.87857 3.23326 6.89658 3.27589 6.92815 3.30746C6.95972 3.33902 7.00235 3.35704 7.04698 3.35768H16.9085C16.9531 3.35706 16.9957 3.33905 17.0273 3.30748C17.0589 3.2759 17.0769 3.23326 17.0775 3.18862V2.62511C17.0769 2.58047 17.0589 2.53784 17.0273 2.50627C16.9957 2.47471 16.9531 2.45669 16.9085 2.45605H7.04698C6.82947 2.45605 6.82912 2.79416 7.04698 2.79416Z" fill="#211715"/>
<path d="M7.04698 4.51975H16.9085L16.7394 4.35069V4.91421L16.9085 4.74515H7.04698L7.21604 4.91421V4.35069C7.21604 4.13318 6.87793 4.13283 6.87793 4.35069V4.91421C6.87857 4.95884 6.89658 5.00147 6.92815 5.03304C6.95972 5.06461 7.00235 5.08262 7.04698 5.08326H16.9085C16.9531 5.08264 16.9957 5.06463 17.0273 5.03306C17.0589 5.00149 17.0769 4.95885 17.0775 4.91421V4.35069C17.0769 4.30606 17.0589 4.26343 17.0273 4.23186C16.9957 4.20029 16.9531 4.18228 16.9085 4.18164H7.04698C6.82947 4.18164 6.82912 4.51975 7.04698 4.51975Z" fill="#211715"/>
<path d="M7.04698 6.24631H16.9085L16.7394 6.07726V6.64077L16.9085 6.47172H7.04698L7.21604 6.64077V6.07726C7.21604 5.85967 6.87793 5.85932 6.87793 6.07726V6.64077C6.87857 6.68541 6.89658 6.72804 6.92815 6.7596C6.95972 6.79117 7.00235 6.80919 7.04698 6.80982H16.9085C16.9531 6.80919 16.9957 6.79117 17.0273 6.7596C17.0589 6.72804 17.0769 6.68541 17.0775 6.64077V6.07726C17.0769 6.03261 17.0589 5.98997 17.0273 5.9584C16.9957 5.92683 16.9531 5.90882 16.9085 5.9082H7.04698C6.82947 5.9082 6.82912 6.24631 7.04698 6.24631Z" fill="#211715"/>
<path d="M7.04698 7.9719H16.9085L16.7394 7.80284V8.36636L16.9085 8.1973H7.04698L7.21604 8.36636V7.80284C7.21604 7.58526 6.87793 7.5849 6.87793 7.80284V8.36636C6.87857 8.41099 6.89658 8.45362 6.92815 8.48519C6.95972 8.51676 7.00235 8.53477 7.04698 8.53541H16.9085C16.9531 8.53477 16.9957 8.51676 17.0273 8.48519C17.0589 8.45362 17.0769 8.41099 17.0775 8.36636V7.80284C17.0769 7.75821 17.0589 7.71558 17.0273 7.68401C16.9957 7.65244 16.9531 7.63443 16.9085 7.63379H7.04698C6.82947 7.63379 6.82912 7.9719 7.04698 7.9719Z" fill="#211715"/>
<path d="M7.04698 9.69846H16.9085L16.7394 9.52941V10.0929L16.9085 9.92386H7.04698L7.21604 10.0929V9.52941C7.21604 9.31189 6.87793 9.31154 6.87793 9.52941V10.0929C6.87857 10.1376 6.89658 10.1802 6.92815 10.2118C6.95972 10.2433 7.00235 10.2613 7.04698 10.262H16.9085C16.9531 10.2614 16.9957 10.2433 17.0273 10.2118C17.0589 10.1802 17.0769 10.1376 17.0775 10.0929V9.52941C17.0769 9.48477 17.0589 9.44214 17.0273 9.41057C16.9957 9.379 16.9531 9.36099 16.9085 9.36035H7.04698C6.82947 9.36035 6.82912 9.69846 7.04698 9.69846Z" fill="#211715"/>
<path d="M7.04698 11.424H16.9085L16.7394 11.255V11.8185L16.9085 11.6495H7.04698L7.21604 11.8185V11.255C7.21604 11.0375 6.87793 11.0371 6.87793 11.255V11.8185C6.87857 11.8631 6.89658 11.9058 6.92815 11.9373C6.95972 11.9689 7.00235 11.9869 7.04698 11.9876H16.9085C16.9531 11.9869 16.9957 11.9689 17.0273 11.9374C17.0589 11.9058 17.0769 11.8631 17.0775 11.8185V11.255C17.0769 11.2104 17.0589 11.1677 17.0273 11.1362C16.9957 11.1046 16.9531 11.0866 16.9085 11.0859H7.04698C6.82947 11.0859 6.82912 11.424 7.04698 11.424Z" fill="#211715"/>
<path d="M7.04698 13.1506H16.9085L16.7394 12.9816V13.5451L16.9085 13.376H7.04698L7.21604 13.5451V12.9816C7.21604 12.764 6.87793 12.7636 6.87793 12.9816V13.5451C6.87857 13.5897 6.89658 13.6323 6.92815 13.6639C6.95972 13.6955 7.00235 13.7135 7.04698 13.7141H16.9085C16.9531 13.7135 16.9957 13.6955 17.0273 13.6639C17.0589 13.6323 17.0769 13.5897 17.0775 13.5451V12.9816C17.0769 12.9369 17.0589 12.8943 17.0273 12.8627C16.9957 12.8311 16.9531 12.8131 16.9085 12.8125H7.04698C6.82947 12.8125 6.82912 13.1506 7.04698 13.1506Z" fill="#211715"/>
<path d="M7.04698 14.8772H16.9085L16.7394 14.7081V15.2716L16.9085 15.1026H7.04698L7.21604 15.2716V14.7081C7.21604 14.4905 6.87793 14.4902 6.87793 14.7081V15.2716C6.87857 15.3163 6.89658 15.3589 6.92815 15.3905C6.95972 15.422 7.00235 15.44 7.04698 15.4407H16.9085C16.9531 15.44 16.9957 15.422 17.0273 15.3905C17.0589 15.3589 17.0769 15.3163 17.0775 15.2716V14.7081C17.0769 14.6635 17.0589 14.6208 17.0273 14.5893C16.9957 14.5577 16.9531 14.5397 16.9085 14.5391H7.04698C6.82947 14.5391 6.82912 14.8772 7.04698 14.8772Z" fill="#211715"/>
<path d="M7.04698 16.6028H16.9085L16.7394 16.4337V16.9972L16.9085 16.8282H7.04698L7.21604 16.9972V16.4337C7.21604 16.2162 6.87793 16.2158 6.87793 16.4337V16.9972C6.87857 17.0419 6.89658 17.0845 6.92815 17.116C6.95972 17.1476 7.00235 17.1656 7.04698 17.1663H16.9085C16.9531 17.1656 16.9957 17.1476 17.0273 17.1161C17.0589 17.0845 17.0769 17.0419 17.0775 16.9972V16.4337C17.0769 16.3891 17.0589 16.3464 17.0273 16.3149C16.9957 16.2833 16.9531 16.2653 16.9085 16.2646H7.04698C6.82947 16.2646 6.82912 16.6028 7.04698 16.6028Z" fill="#211715"/>
<path d="M7.04698 18.3293H16.9085L16.7394 18.1603V18.7238L16.9085 18.5547H7.04698L7.21604 18.7238V18.1603C7.21604 17.9427 6.87793 17.9424 6.87793 18.1603V18.7238C6.87857 18.7684 6.89658 18.811 6.92815 18.8426C6.95972 18.8742 7.00235 18.8922 7.04698 18.8928H16.9085C16.9531 18.8922 16.9957 18.8742 17.0273 18.8426C17.0589 18.8111 17.0769 18.7684 17.0775 18.7238V18.1603C17.0769 18.1156 17.0589 18.073 17.0273 18.0414C16.9957 18.0099 16.9531 17.9918 16.9085 17.9912H7.04698C6.82947 17.9912 6.82912 18.3293 7.04698 18.3293Z" fill="#211715"/>
<path d="M19.2891 23.7487V22.9297H20.0136V23.7487" fill="#957F6E"/>
<path d="M19.8767 20.3913C19.8172 20.3453 19.7442 20.3203 19.6689 20.3203C19.5937 20.3203 19.5207 20.3453 19.4612 20.3913C19.1736 20.6164 18.9512 20.914 18.8166 21.2535C18.7745 21.3557 18.7428 21.4619 18.7218 21.5704C18.7048 21.6743 18.694 21.779 18.6894 21.8842C18.6777 22.0693 18.667 22.2612 18.7337 22.4343C18.7934 22.5854 18.9061 22.7096 19.0507 22.7837C19.1937 22.857 19.5091 22.8958 19.6693 22.8958C19.7902 22.8958 20.1449 22.857 20.288 22.7837C20.4326 22.7096 20.5452 22.5854 20.6049 22.4343C20.6717 22.2612 20.6613 22.0693 20.6493 21.8842C20.6447 21.779 20.6339 21.6743 20.6168 21.5704C20.5959 21.4619 20.5641 21.3557 20.522 21.2535C20.3873 20.9139 20.1646 20.6163 19.8767 20.3913Z" fill="#121212"/>
<path d="M19.962 20.2454C19.9041 20.2049 19.8386 20.1767 19.7694 20.1627C19.7002 20.1486 19.6289 20.1489 19.5598 20.1636C19.4217 20.1917 19.3113 20.2895 19.2106 20.3826C19.0107 20.5689 18.8473 20.7908 18.7288 21.037C18.6005 21.3128 18.529 21.6115 18.5186 21.9155C18.5008 22.2113 18.5233 22.5029 18.7228 22.7375C18.8871 22.9303 19.1157 23.0037 19.3582 23.0381C19.5643 23.0677 19.7737 23.0669 19.9796 23.0359C20.213 23.0023 20.4332 22.9387 20.5972 22.7576C20.8031 22.5304 20.8376 22.2415 20.8212 21.9465C20.8169 21.7778 20.7969 21.6098 20.7615 21.4449C20.7203 21.2854 20.6606 21.1313 20.5836 20.9857C20.4412 20.7083 20.2408 20.4648 19.996 20.2718C19.9636 20.2414 19.9208 20.2244 19.8764 20.2244C19.832 20.2244 19.7893 20.2414 19.7569 20.2718C19.7255 20.3036 19.7078 20.3466 19.7078 20.3913C19.7078 20.436 19.7255 20.479 19.7569 20.5108C20.1095 20.7864 20.3897 21.1984 20.4584 21.6468C20.4744 21.7668 20.4837 21.8877 20.4862 22.0087C20.4969 22.1273 20.4851 22.2467 20.4515 22.3609C20.4215 22.4445 20.3694 22.5185 20.3007 22.5749C20.2431 22.6252 20.1726 22.6584 20.0972 22.6711C19.9454 22.7105 19.789 22.7292 19.6323 22.7268C19.4687 22.7266 19.3062 22.6993 19.1515 22.646C19.0607 22.6027 18.9842 22.5344 18.9309 22.4491C18.8777 22.3637 18.85 22.2649 18.851 22.1643C18.8359 21.9255 18.8606 21.6857 18.9242 21.455C18.9963 21.2187 19.1146 20.9991 19.2722 20.8088C19.351 20.7128 19.4393 20.625 19.5357 20.5468C19.5695 20.5138 19.6144 20.4946 19.6616 20.4928C19.7088 20.4911 19.7549 20.507 19.791 20.5375C19.8298 20.5597 19.8759 20.5659 19.9191 20.5545C19.9624 20.5432 19.9995 20.5153 20.0224 20.4768C20.0442 20.4379 20.05 20.3921 20.0388 20.3489C20.0275 20.3058 20 20.2687 19.962 20.2454Z" fill="#211715"/>
<path d="M19.8447 22.9298V23.7488C19.8447 23.7936 19.8625 23.8366 19.8942 23.8683C19.9259 23.9 19.9689 23.9178 20.0138 23.9178C20.0586 23.9178 20.1016 23.9 20.1333 23.8683C20.165 23.8366 20.1828 23.7936 20.1828 23.7488V22.9298C20.1828 22.885 20.165 22.842 20.1333 22.8103C20.1016 22.7786 20.0586 22.7607 20.0138 22.7607C19.9689 22.7607 19.9259 22.7786 19.8942 22.8103C19.8625 22.842 19.8447 22.885 19.8447 22.9298Z" fill="#211715"/>
<path d="M19.1201 22.9298V23.7488C19.1201 23.7936 19.1379 23.8366 19.1696 23.8683C19.2013 23.9 19.2443 23.9178 19.2892 23.9178C19.334 23.9178 19.377 23.9 19.4087 23.8683C19.4404 23.8366 19.4582 23.7936 19.4582 23.7488V22.9298C19.4582 22.885 19.4404 22.842 19.4087 22.8103C19.377 22.7786 19.334 22.7607 19.2892 22.7607C19.2443 22.7607 19.2013 22.7786 19.1696 22.8103C19.1379 22.842 19.1201 22.885 19.1201 22.9298Z" fill="#211715"/>
<path d="M3.94922 23.7487V22.9297H4.67368V23.7487" fill="#957F6E"/>
<path d="M4.5369 20.3913C4.4774 20.3453 4.40432 20.3203 4.3291 20.3203C4.25389 20.3203 4.18081 20.3453 4.12131 20.3913C3.83379 20.6164 3.61136 20.914 3.47686 21.2535C3.43472 21.3557 3.40293 21.4619 3.38198 21.5704C3.36495 21.6743 3.35413 21.779 3.34958 21.8842C3.33782 22.0693 3.32711 22.2612 3.39389 22.4343C3.4535 22.5853 3.56604 22.7095 3.71051 22.7837C3.85357 22.857 4.16893 22.8958 4.32918 22.8958C4.44998 22.8958 4.80471 22.857 4.94777 22.7837C5.09237 22.7096 5.20505 22.5854 5.26475 22.4343C5.33152 22.2612 5.3211 22.0693 5.30905 21.8842C5.30451 21.779 5.29369 21.6743 5.27665 21.5704C5.25569 21.4619 5.22393 21.3557 5.18184 21.2535C5.04721 20.9139 4.82461 20.6163 4.5369 20.3913Z" fill="#121212"/>
<path d="M4.62215 20.2454C4.5643 20.2049 4.49874 20.1767 4.42955 20.1627C4.36036 20.1486 4.28901 20.1489 4.21995 20.1636C4.08189 20.1917 3.97144 20.2895 3.87078 20.3826C3.67087 20.5689 3.50745 20.7908 3.38891 21.037C3.26066 21.3128 3.18918 21.6115 3.17872 21.9155C3.16097 22.2113 3.18351 22.5029 3.38299 22.7375C3.54725 22.9303 3.77583 23.0037 4.01835 23.0381C4.22449 23.0677 4.43385 23.0669 4.63976 23.0359C4.8732 23.0023 5.09332 22.9387 5.25744 22.7576C5.46334 22.5304 5.49778 22.2415 5.48144 21.9465C5.47703 21.7778 5.45701 21.6099 5.42164 21.4449C5.38044 21.2854 5.32077 21.1313 5.24385 20.9857C5.10144 20.7083 4.90099 20.4648 4.65611 20.2718C4.62373 20.2414 4.58098 20.2244 4.53657 20.2244C4.49216 20.2244 4.44941 20.2414 4.41704 20.2718C4.38561 20.3036 4.36799 20.3466 4.36799 20.3913C4.36799 20.436 4.38561 20.479 4.41704 20.5108C4.76965 20.7864 5.04986 21.1984 5.11854 21.6468C5.13473 21.7668 5.14413 21.8877 5.14671 22.0087C5.15738 22.1273 5.14562 22.2467 5.11206 22.3609C5.08199 22.4445 5.02988 22.5185 4.96125 22.5749C4.90358 22.6252 4.83312 22.6584 4.75768 22.6711C4.60593 22.7105 4.44955 22.7292 4.29278 22.7268C4.12917 22.7266 3.96671 22.6993 3.81203 22.646C3.72122 22.6027 3.64467 22.5344 3.59142 22.4491C3.53818 22.3637 3.51046 22.2649 3.51154 22.1643C3.49642 21.9255 3.52115 21.6857 3.58473 21.455C3.69435 21.0985 3.90713 20.7825 4.19621 20.5468C4.23002 20.5138 4.27491 20.4945 4.32212 20.4928C4.36933 20.4911 4.4155 20.507 4.45162 20.5375C4.49041 20.5597 4.5364 20.5658 4.57967 20.5545C4.62293 20.5432 4.66 20.5153 4.68287 20.4768C4.70465 20.4379 4.71049 20.392 4.69917 20.3488C4.68785 20.3057 4.66024 20.2686 4.62215 20.2454Z" fill="#211715"/>
<path d="M4.50488 22.9298V23.7488C4.50488 23.7936 4.52269 23.8366 4.5544 23.8683C4.5861 23.9 4.6291 23.9178 4.67394 23.9178C4.71877 23.9178 4.76177 23.9 4.79348 23.8683C4.82518 23.8366 4.84299 23.7936 4.84299 23.7488V22.9298C4.84299 22.9076 4.83862 22.8856 4.83012 22.8651C4.82163 22.8446 4.80917 22.826 4.79348 22.8103C4.77778 22.7946 4.75914 22.7821 4.73863 22.7736C4.71812 22.7651 4.69614 22.7607 4.67394 22.7607C4.65174 22.7607 4.62975 22.7651 4.60924 22.7736C4.58873 22.7821 4.5701 22.7946 4.5544 22.8103C4.5387 22.826 4.52625 22.8446 4.51775 22.8651C4.50926 22.8856 4.50488 22.9076 4.50488 22.9298Z" fill="#211715"/>
<path d="M3.78027 22.9298V23.7488C3.78027 23.7936 3.79808 23.8366 3.82979 23.8683C3.86149 23.9 3.90449 23.9178 3.94933 23.9178C3.99416 23.9178 4.03716 23.9 4.06887 23.8683C4.10057 23.8366 4.11838 23.7936 4.11838 23.7488V22.9298C4.11838 22.885 4.10057 22.842 4.06887 22.8103C4.03716 22.7786 3.99416 22.7607 3.94933 22.7607C3.90449 22.7607 3.86149 22.7786 3.82979 22.8103C3.79808 22.842 3.78027 22.885 3.78027 22.9298Z" fill="#211715"/>
<path d="M21.7441 23.6621H2.25604C2.03853 23.6621 2.03817 24.0002 2.25604 24.0002H21.7441C21.9616 24.0002 21.962 23.6621 21.7441 23.6621Z" fill="#211715"/>
</g>
<defs>
<clipPath id="clip0_954_5024">
<rect width="24" height="24" fill="white"/>
</clipPath>
</defs>
</svg>
