<svg width="24" height="24" viewBox="0 0 24 24" fill="none" xmlns="http://www.w3.org/2000/svg">
<path d="M11.9828 0.479782C11.8812 0.483403 11.7834 0.519184 11.7034 0.581969L0.663449 9.22197C0.613816 9.26087 0.572332 9.30916 0.541366 9.36409C0.5104 9.41903 0.490559 9.47952 0.482976 9.54212C0.475393 9.60473 0.480217 9.66821 0.497172 9.72894C0.514126 9.78968 0.54288 9.84649 0.581791 9.89611C0.620701 9.94573 0.669006 9.9872 0.723946 10.0182C0.778887 10.0491 0.839387 10.0689 0.90199 10.0765C0.964594 10.0841 1.02808 10.0792 1.08881 10.0623C1.14954 10.0453 1.20634 10.0165 1.25595 9.97759L2.10626 9.31197H2.8797V8.70634L11.9997 1.56916L21.1197 8.70634V9.31197H21.8931L22.7435 9.97759C22.7931 10.0165 22.8499 10.0453 22.9106 10.0622C22.9713 10.0792 23.0348 10.0841 23.0974 10.0765C23.16 10.0689 23.2205 10.0491 23.2754 10.0181C23.3304 9.98719 23.3787 9.94572 23.4176 9.8961C23.4565 9.84647 23.4853 9.78967 23.5022 9.72894C23.5192 9.6682 23.524 9.60472 23.5164 9.54212C23.5088 9.47952 23.489 9.41903 23.458 9.36409C23.4271 9.30916 23.3856 9.26087 23.336 9.22197L12.2959 0.581969C12.2069 0.512045 12.096 0.47585 11.9828 0.479782ZM5.2797 10.0798V21.5998H4.26907V22.5598H6.08782V22.0798H6.2397V21.1198H17.7597V22.0798H17.9116V22.5598H19.7303V21.5998H18.7197V20.6398V20.1598V14.8798V14.3998V13.9198V10.0798H17.7597V11.7813C17.2491 11.3222 16.5767 11.0398 15.8397 11.0398H11.9997V13.9198H10.3731C10.7775 13.5669 11.0397 13.0544 11.0397 12.4798C11.0397 11.4251 10.1744 10.5598 9.1197 10.5598C8.065 10.5598 7.1997 11.4251 7.1997 12.4798C7.1997 13.0544 7.46188 13.5669 7.86626 13.9198H6.2397V10.0798H5.2797ZM1.9197 10.2204V12.0373H2.8797V10.2204H1.9197ZM21.1197 10.2204V12.0363H22.0797V10.2204H21.1197ZM9.1197 11.5198C9.65558 11.5198 10.0797 11.9439 10.0797 12.4798C10.0797 13.0157 9.65558 13.4398 9.1197 13.4398C8.58382 13.4398 8.1597 13.0157 8.1597 12.4798C8.1597 11.9439 8.58382 11.5198 9.1197 11.5198ZM12.9597 11.9998H15.8397C16.9055 11.9998 17.7597 12.854 17.7597 13.9198H12.9597V11.9998ZM1.9197 12.9448V14.7617H2.8797V12.9448H1.9197ZM21.1197 12.9448V14.7617H22.0797V12.9448H21.1197ZM6.2397 14.8798H17.7597V18.0213C17.2491 17.5622 16.5767 17.2798 15.8397 17.2798H11.9997V20.1598H10.3731C10.7775 19.8069 11.0397 19.2944 11.0397 18.7198C11.0397 17.6651 10.1744 16.7998 9.1197 16.7998C8.065 16.7998 7.1997 17.6651 7.1997 18.7198C7.1997 19.2944 7.46188 19.8069 7.86626 20.1598H6.2397V14.8798ZM1.9197 15.6701V17.487H2.8797V15.6701H1.9197ZM21.1197 15.6701V17.486H22.0797V15.6701H21.1197ZM9.1197 17.7598C9.65558 17.7598 10.0797 18.1839 10.0797 18.7198C10.0797 19.2557 9.65558 19.6798 9.1197 19.6798C8.58382 19.6798 8.1597 19.2557 8.1597 18.7198C8.1597 18.1839 8.58382 17.7598 9.1197 17.7598ZM12.9597 18.2398H15.8397C16.9055 18.2398 17.7597 19.094 17.7597 20.1598H12.9597V18.2398ZM21.1197 18.3945V20.2113H22.0797V18.3945H21.1197ZM1.9197 18.3954V20.2113H2.8797V18.3954H1.9197ZM1.9197 21.1198V22.0798C1.91971 22.2071 1.97029 22.3292 2.0603 22.4192C2.15032 22.5092 2.2724 22.5598 2.3997 22.5598H3.3597V21.5998H2.8797V21.1198H1.9197ZM21.1197 21.1198V21.5998H20.6397V22.5598H21.5997C21.727 22.5598 21.8491 22.5092 21.9391 22.4192C22.0291 22.3292 22.0797 22.2071 22.0797 22.0798V21.1198H21.1197ZM6.9972 21.5998V22.5598H8.81689V21.5998H6.9972ZM9.72626 21.5998V22.5598H11.545V21.5998H9.72626ZM12.4544 21.5998V22.5598H14.2731V21.5998H12.4544ZM15.1825 21.5998V22.5598H17.0013V21.5998H15.1825Z" fill="black"/>
</svg>
