<svg width="22" height="24" viewBox="0 0 22 24" fill="none" xmlns="http://www.w3.org/2000/svg">
<path d="M18.1147 8.91572H13.7947V3.87281C13.7942 1.73334 12.0614 0.00046875 9.92189 0H3.88458C1.74511 0.00046875 0.0122344 1.73334 0.0117188 3.87281V24H1.74652V3.87281C1.74698 3.27984 1.98464 2.75081 2.37291 2.36114C2.76262 1.97283 3.29161 1.73522 3.88458 1.7347H9.92189C10.5149 1.73517 11.0439 1.97283 11.4336 2.36114C11.8218 2.75081 12.0595 3.27984 12.06 3.87281V24H13.7947V10.6505H18.1147C18.7077 10.6509 19.2367 10.8886 19.6264 11.2769C20.0147 11.6666 20.2523 12.1956 20.2528 12.7886V24H21.9876V12.7885C21.987 10.6491 20.2542 8.91619 18.1147 8.91572Z" fill="black"/>
<path d="M5.70877 6.16895H4.21777V8.69907H5.70877V6.16895Z" fill="black"/>
<path d="M9.3953 6.16895H7.9043V8.69907H9.3953V6.16895Z" fill="black"/>
<path d="M5.70877 11.9521H4.21777V14.4823H5.70877V11.9521Z" fill="black"/>
<path d="M9.3953 11.9521H7.9043V14.4823H9.3953V11.9521Z" fill="black"/>
<path d="M5.70877 17.7354H4.21777V20.2655H5.70877V17.7354Z" fill="black"/>
<path d="M9.3953 17.7354H7.9043V20.2655H9.3953V17.7354Z" fill="black"/>
<path d="M17.5281 13.5781H16.0371V16.1082H17.5281V13.5781Z" fill="black"/>
<path d="M17.5281 19.1201H16.0371V21.6502H17.5281V19.1201Z" fill="black"/>
</svg>
