<svg width="24" height="24" viewBox="0 0 24 24" fill="none" xmlns="http://www.w3.org/2000/svg">
<path d="M24 9.67742V8.12903L22.3815 0H1.61845L0.00774194 8.05316L0 9.67742H1.54839V21.6774H0V24H24V21.6774H22.4516V9.67742H24ZM23.2258 22.4516V23.2258H0.774194V22.4516H23.2258ZM16.2581 20.129V13.5484H17.0323V12H17.8065V10.6394L16.4594 9.67742H21.6774V21.6774H17.0323V20.129H16.2581ZM16.2581 20.9032V21.6774H14.7097V20.9032H16.2581ZM14.7097 20.129V13.5484H15.4839V20.129H14.7097ZM14.7097 12.7742V12H16.2581V12.7742H14.7097ZM17.0323 11.0381V11.2258H13.9355H10.0645H6.96774V11.0381L12 7.44348L17.0323 11.0381ZM13.9355 12V13.1613V13.5484V20.129V20.5161V21.6774H10.0645V20.5161V20.129V13.5484V13.1613V12H13.9355ZM8.51613 20.129V13.5484H9.29032V20.129H8.51613ZM9.29032 20.9032V21.6774H7.74194V20.9032H9.29032ZM7.74194 12.7742V12H9.29032V12.7742H7.74194ZM6.19355 10.6394V12H6.96774V13.5484H7.74194V20.129H6.96774V21.6774H2.32258V9.67742H7.54064L6.19355 10.6394ZM15.3755 8.90323L12 6.492L8.62452 8.90323H0.774194V8.16735L2.25252 0.774194H21.7471L23.2258 8.16735V8.90323H15.3755Z" fill="black"/>
<path d="M6.96765 14.3223H3.09668V19.3545H6.96765V14.3223ZM6.19345 18.5803H3.87087V17.8061H6.19345V18.5803ZM6.19345 17.0319H3.87087V15.0965H6.19345V17.0319Z" fill="black"/>
<path d="M20.9032 14.3223H17.0322V19.3545H20.9032V14.3223ZM20.129 18.5803H17.8064V17.8061H20.129V18.5803ZM20.129 17.0319H17.8064V15.0965H20.129V17.0319Z" fill="black"/>
<path d="M2.94434 3.5148L3.24898 4.22628L3.87105 3.95996V6.58021H3.09685V7.35441H8.51621V6.58021H7.74201V3.95996L8.36369 4.22628L8.66834 3.5148L5.80653 2.28809L2.94434 3.5148ZM6.96782 6.58021H4.64524V3.62783L5.80653 3.13002L6.96782 3.62783V6.58021Z" fill="black"/>
<path d="M20.7504 4.22628L21.0551 3.5148L18.1932 2.28809L15.3311 3.5148L15.6357 4.22628L16.2578 3.95996V6.58021H15.4836V7.35441H20.9029V6.58021H20.1287V3.95996L20.7504 4.22628ZM19.3545 6.58021H17.032V3.62783L18.1932 3.13002L19.3545 3.62783V6.58021Z" fill="black"/>
</svg>
