<svg width="16" height="16" viewBox="0 0 16 16" fill="none" xmlns="http://www.w3.org/2000/svg">
<path d="M1.33424 3.19987H5.60091V1.59987C5.60144 1.3172 5.71398 1.04574 5.91398 0.845737C6.11345 0.64627 6.38491 0.533736 6.66758 0.533203H14.1342C14.4169 0.533736 14.6884 0.645737 14.8884 0.845737C15.0884 1.04574 15.2004 1.3172 15.2009 1.59987V14.3999C15.2004 14.6825 15.0878 14.954 14.8884 15.1535C14.6884 15.3535 14.4169 15.466 14.1342 15.4665H1.33424C1.05158 15.466 0.780645 15.3535 0.580645 15.1535C0.380645 14.9535 0.268111 14.6825 0.267578 14.3999V4.26654C0.268111 3.98387 0.380645 3.7124 0.580645 3.5124C0.780111 3.31294 1.05158 3.2004 1.33424 3.19987ZM9.33425 14.3999H11.4676V11.7332H9.33425V14.3999ZM6.66758 14.3999H8.26758V11.7332C8.26811 11.4505 8.38065 11.1791 8.58065 10.9796C8.78011 10.7796 9.05158 10.6671 9.33425 10.6665H11.4676C11.7502 10.6671 12.0217 10.7796 12.2217 10.9796C12.4212 11.1791 12.5337 11.4505 12.5342 11.7332V14.3999H14.1342L14.1348 1.59987H6.66758V14.3999ZM1.33424 14.3999H5.60091V4.26654H1.33424V14.3999ZM8.26758 7.99987C8.26758 8.10547 8.29905 8.2084 8.35771 8.2964C8.41584 8.38387 8.49958 8.45214 8.59665 8.49267C8.69425 8.5332 8.80145 8.54334 8.90491 8.52307C9.00838 8.50227 9.10331 8.4516 9.17798 8.37694C9.25265 8.30227 9.30331 8.20734 9.32411 8.10387C9.34438 8.0004 9.33424 7.8932 9.29371 7.7956C9.25318 7.69854 9.18491 7.6148 9.09745 7.55667C9.00945 7.498 8.90651 7.46654 8.80091 7.46654C8.65958 7.46654 8.52358 7.52254 8.42385 7.6228C8.32358 7.72254 8.26758 7.85854 8.26758 7.99987ZM8.26758 5.86654C8.26758 5.97214 8.29905 6.07507 8.35771 6.16307C8.41584 6.25054 8.49958 6.3188 8.59665 6.35934C8.69425 6.39987 8.80145 6.41 8.90491 6.38974C9.00838 6.36894 9.10331 6.31827 9.17798 6.2436C9.25265 6.16894 9.30331 6.074 9.32411 5.97054C9.34438 5.86707 9.33424 5.75987 9.29371 5.66227C9.25318 5.5652 9.18491 5.48147 9.09745 5.42334C9.00945 5.36467 8.90651 5.3332 8.80091 5.3332C8.65958 5.3332 8.52358 5.3892 8.42385 5.48947C8.32358 5.5892 8.26758 5.7252 8.26758 5.86654ZM8.26758 3.7332C8.26758 3.8388 8.29905 3.94174 8.35771 4.02974C8.41584 4.1172 8.49958 4.18547 8.59665 4.226C8.69425 4.26654 8.80145 4.27667 8.90491 4.2564C9.00838 4.2356 9.10331 4.18494 9.17798 4.11027C9.25265 4.0356 9.30331 3.94067 9.32411 3.8372C9.34438 3.73374 9.33424 3.62654 9.29371 3.52894C9.25318 3.43187 9.18491 3.34814 9.09745 3.29C9.00945 3.23134 8.90651 3.19987 8.80091 3.19987C8.65958 3.19987 8.52358 3.25587 8.42385 3.35614C8.32358 3.45587 8.26758 3.59187 8.26758 3.7332ZM11.4676 7.99987C11.4676 8.10547 11.499 8.2084 11.5577 8.2964C11.6158 8.38387 11.6996 8.45214 11.7966 8.49267C11.8942 8.5332 12.0014 8.54334 12.1049 8.52307C12.2084 8.50227 12.3033 8.4516 12.378 8.37694C12.4526 8.30227 12.5033 8.20734 12.5241 8.10387C12.5444 8.0004 12.5342 7.8932 12.4937 7.7956C12.4532 7.69854 12.3849 7.6148 12.2974 7.55667C12.2094 7.498 12.1065 7.46654 12.0009 7.46654C11.8596 7.46654 11.7236 7.52254 11.6238 7.6228C11.5236 7.72254 11.4676 7.85854 11.4676 7.99987ZM11.4676 5.86654C11.4676 5.97214 11.499 6.07507 11.5577 6.16307C11.6158 6.25054 11.6996 6.3188 11.7966 6.35934C11.8942 6.39987 12.0014 6.41 12.1049 6.38974C12.2084 6.36894 12.3033 6.31827 12.378 6.2436C12.4526 6.16894 12.5033 6.074 12.5241 5.97054C12.5444 5.86707 12.5342 5.75987 12.4937 5.66227C12.4532 5.5652 12.3849 5.48147 12.2974 5.42334C12.2094 5.36467 12.1065 5.3332 12.0009 5.3332C11.8596 5.3332 11.7236 5.3892 11.6238 5.48947C11.5236 5.5892 11.4676 5.7252 11.4676 5.86654ZM11.4676 3.7332C11.4676 3.8388 11.499 3.94174 11.5577 4.02974C11.6158 4.1172 11.6996 4.18547 11.7966 4.226C11.8942 4.26654 12.0014 4.27667 12.1049 4.2564C12.2084 4.2356 12.3033 4.18494 12.378 4.11027C12.4526 4.0356 12.5033 3.94067 12.5241 3.8372C12.5444 3.73374 12.5342 3.62654 12.4937 3.52894C12.4532 3.43187 12.3849 3.34814 12.2974 3.29C12.2094 3.23134 12.1065 3.19987 12.0009 3.19987C11.8596 3.19987 11.7236 3.25587 11.6238 3.35614C11.5236 3.45587 11.4676 3.59187 11.4676 3.7332Z" fill="#121212"/>
</svg>
