<svg width="24" height="24" viewBox="0 0 24 24" fill="none" xmlns="http://www.w3.org/2000/svg">
<path d="M13.3199 6.37532C13.2374 6.39032 13.1474 6.37532 13.0574 6.33782C13.0349 6.32282 12.6149 6.12782 12.0824 6.28532C12.0307 6.30158 11.9763 6.30726 11.9223 6.30202C11.8684 6.29678 11.8161 6.28074 11.7685 6.25484C11.7209 6.22894 11.679 6.19372 11.6453 6.15128C11.6116 6.10884 11.5868 6.06005 11.5724 6.00782C11.5049 5.79032 11.6324 5.55782 11.8499 5.49782C12.3776 5.3383 12.9452 5.37561 13.4474 5.60282C13.6499 5.70782 13.7249 5.95532 13.6199 6.15782C13.5524 6.27782 13.4474 6.35282 13.3199 6.37532ZM7.8974 7.16282C7.9949 7.25282 8.1224 7.29032 8.2499 7.26782C8.3324 7.25282 8.4149 7.21532 8.4749 7.14782L8.4764 7.14707C8.72014 6.91576 9.0392 6.7802 9.3749 6.76532C9.5999 6.75032 9.7799 6.55532 9.7649 6.33032C9.76212 6.27609 9.74864 6.22295 9.72524 6.17395C9.70184 6.12495 9.66898 6.08106 9.62855 6.04481C9.58812 6.00856 9.54092 5.98067 9.48966 5.96273C9.43841 5.9448 9.38411 5.93718 9.3299 5.94032C8.44565 5.99132 7.91765 6.53432 7.8704 6.58232L7.8674 6.58532C7.7174 6.75782 7.7324 7.01282 7.8974 7.16282ZM10.5299 9.26357L10.6949 7.95857C10.7324 7.67357 11.1224 7.60607 11.2574 7.86107L11.8574 9.03107C11.9849 9.27107 11.8349 9.56357 11.5724 9.60857L11.0024 9.70607C10.9404 9.71806 10.8764 9.71519 10.8157 9.69768C10.755 9.68018 10.6994 9.64854 10.6533 9.60537C10.6072 9.56219 10.5719 9.50871 10.5505 9.4493C10.5291 9.38989 10.522 9.32624 10.5299 9.26357ZM11.4149 10.3961C11.0174 10.4636 10.6274 10.4336 10.2749 10.3286C10.1549 10.2911 10.0649 10.4336 10.1474 10.5236C10.4849 10.8836 10.9874 11.0711 11.5124 10.9811C12.0374 10.8911 12.4499 10.5386 12.6374 10.0811C12.6824 9.96857 12.5474 9.86357 12.4499 9.93857C12.1724 10.1636 11.8124 10.3211 11.4149 10.3961ZM13.4249 7.27607C13.3649 7.28357 13.3199 7.32107 13.2824 7.37357C13.1624 7.56857 12.9674 7.71107 12.7274 7.75607C12.4874 7.80107 12.2549 7.73357 12.0824 7.58357C12.0595 7.56516 12.033 7.55166 12.0046 7.54392C11.9762 7.53617 11.9465 7.53436 11.9174 7.53857C11.7524 7.56857 11.6924 7.77857 11.8274 7.89107C12.0899 8.10857 12.4424 8.21357 12.8024 8.14607C13.1624 8.08607 13.4549 7.86857 13.6349 7.56857C13.7249 7.43357 13.5974 7.24607 13.4249 7.27607ZM9.9599 7.89107C9.8999 7.89857 9.8549 7.93607 9.8174 7.98857C9.6974 8.18357 9.5024 8.32607 9.2624 8.37107C9.0299 8.40857 8.7974 8.34107 8.6174 8.19857C8.59445 8.18016 8.56796 8.16666 8.53958 8.15892C8.51119 8.15117 8.48152 8.14936 8.4524 8.15357C8.2874 8.18357 8.2274 8.40107 8.3624 8.50607C8.6249 8.72357 8.9774 8.82857 9.3374 8.76107C9.6974 8.70107 9.9899 8.48357 10.1699 8.18357C10.2524 8.04107 10.1249 7.86107 9.9599 7.89107Z" fill="#121212"/>
<path d="M14.07 2.74625L13.7325 2.64125C13.4925 2.56625 13.26 2.46125 13.0575 2.31125L12.3375 1.80875C11.7975 1.43375 11.0925 1.39625 10.515 1.71875C10.14 1.92875 9.7125 2.00375 9.2925 1.93625C8.7 1.77125 8.07 1.98875 7.7175 2.49125L7.1025 3.36875C6.96 3.57125 6.78 3.75875 6.5775 3.90875L6.2925 4.11875C5.7675 4.50875 5.565 5.19875 5.79 5.81375L5.9985 6.3725C6.00225 6.67625 6.039 6.9845 6.1095 7.29275C5.85182 7.5341 5.66334 7.83995 5.56357 8.17862C5.4638 8.51729 5.45636 8.87647 5.54202 9.21898C5.62769 9.56148 5.80334 9.87487 6.05081 10.1267C6.29827 10.3785 6.60854 10.5596 6.9495 10.6512L7.14975 11.4492L7.152 11.4582C7.2 11.633 7.26075 11.7995 7.33275 11.9585C6.7275 12.1587 6.27225 12.6042 5.9325 13.2612L5.3625 14.3667C4.95924 14.4402 4.58383 14.6228 4.27706 14.8946C3.97029 15.1665 3.7439 15.5172 3.6225 15.9087L1.5 22.4997H8.98425L8.8275 22.2537C7.95 20.7312 8.4675 18.7737 9.9975 17.8962L11.82 16.8462C12.4348 16.4908 13.1507 16.3512 13.854 16.4495C13.7407 17.0135 13.7646 17.5965 13.9239 18.1493C14.0831 18.7021 14.373 19.2085 14.769 19.6257C14.4742 19.8507 14.2687 20.1807 14.2042 20.558L13.0875 19.4412C12.78 19.1262 12.27 19.1262 11.955 19.4412C11.64 19.7487 11.64 20.2587 11.955 20.5737L12.15 20.7687C12.195 20.8137 12.165 20.9037 12.09 20.9037H10.1625C9.72 20.9037 9.36 21.2637 9.36 21.7062C9.36 22.1487 9.72 22.4997 10.1625 22.4997H14.175C14.2147 22.5027 14.2545 22.5027 14.295 22.4997H20.205C21.315 22.4997 22.215 21.6162 22.215 20.5062C22.215 19.934 22.0012 19.3647 21.6285 18.9755L20.8725 18.0492C21.0164 17.4893 21.0234 16.9029 20.8927 16.3397C20.7621 15.7765 20.4978 15.253 20.122 14.8136C19.7463 14.3741 19.2703 14.0317 18.7342 13.8151C18.1981 13.5986 17.6178 13.5143 17.0422 13.5695C16.4445 13.0595 15.7672 12.6342 15.0322 12.314C15.5647 11.6862 15.8498 10.8462 15.7778 9.93875L15.777 9.92974L15.6915 9.10925C15.9813 8.90675 16.2116 8.63034 16.3585 8.30873C16.5054 7.98713 16.5635 7.63206 16.5267 7.28042C16.49 6.92878 16.3598 6.59339 16.1496 6.30909C15.9394 6.02479 15.6569 5.80196 15.3315 5.66375C15.2933 5.35011 15.2211 5.04155 15.1163 4.7435L15.12 4.17125C15.1275 3.51125 14.7 2.93375 14.07 2.74625ZM6.56625 7.89575L6.615 8.02625C6.6975 8.24375 6.9225 8.37875 7.155 8.34125C7.155 8.34125 6.9975 7.69625 6.8925 7.28375C6.84 7.07375 6.8925 6.84875 7.0275 6.67625L7.14 6.53375C7.2975 6.33125 7.365 6.07625 7.32 5.82875L7.2 5.18375C7.17 5.00375 7.2675 4.82375 7.4325 4.74875C7.8825 4.54625 8.865 4.16375 10.2675 3.91625C11.67 3.66875 12.72 3.69125 13.215 3.72875C13.4025 3.74375 13.5525 3.87875 13.5825 4.05875L13.695 4.69625C13.74 4.94375 13.89 5.16875 14.1075 5.30375L14.2725 5.40875C14.46 5.52125 14.58 5.71625 14.6025 5.93375C14.6475 6.35375 14.715 7.00625 14.715 7.00625C14.94 6.95375 15.0975 6.75875 15.105 6.52625L15.1058 6.38449C15.3282 6.49509 15.512 6.67045 15.6328 6.88749C15.7537 7.10454 15.806 7.3531 15.7829 7.60045C15.7597 7.8478 15.6622 8.08235 15.5032 8.27322C15.3442 8.46409 15.1311 8.60233 14.892 8.66975L15.03 9.99874C15.0945 10.8087 14.7975 11.5362 14.271 12.0275C13.9277 12.3478 13.4979 12.5604 13.035 12.6387L11.592 12.8922C11.6964 12.9804 11.7734 13.0966 11.8138 13.2271C11.8542 13.3576 11.8564 13.497 11.82 13.6287L11.31 15.5337C11.262 15.7166 11.1435 15.873 10.9804 15.9686C10.8173 16.0642 10.623 16.0912 10.44 16.0437H10.425L9.28425 15.7347C9.36012 15.6977 9.42694 15.6444 9.48 15.5787C9.55667 15.4788 9.59996 15.3574 9.60375 15.2315C9.60678 15.1418 9.58907 15.0527 9.55199 14.971C9.51492 14.8893 9.45948 14.8173 9.39 14.7605L8.6475 14.1605L8.64 14.1545L9.81 14.3187C9.96211 14.3393 10.1161 14.2987 10.2384 14.2059C10.3607 14.1132 10.4413 13.9758 10.4625 13.8237C10.5 13.5987 10.3875 13.382 10.209 13.2612C10.3609 13.2807 10.5143 13.2396 10.6361 13.1468C10.758 13.0541 10.8384 12.9171 10.86 12.7655C10.8803 12.6134 10.8397 12.4595 10.7469 12.3373C10.6542 12.215 10.5169 12.1344 10.365 12.113L9.12 11.9405C9.075 11.933 8.6175 11.873 8.6175 11.873C8.44957 11.849 8.28013 11.8372 8.1105 11.8377C8.00951 11.6547 7.93046 11.4603 7.875 11.2587L7.551 9.965C7.30391 9.98298 7.05715 9.92593 6.84303 9.80132C6.62891 9.67672 6.45741 9.49035 6.35098 9.26664C6.24456 9.04292 6.20817 8.79228 6.24658 8.54754C6.28499 8.30279 6.39641 8.0761 6.56625 7.89575ZM20.235 17.153C20.235 17.663 20.1007 18.1422 19.866 18.5562L15.5363 19.322C15.1723 19.0117 14.8922 18.6149 14.7219 18.168C14.5515 17.721 14.4964 17.2384 14.5616 16.7646C14.6268 16.2908 14.8101 15.841 15.0948 15.4567C15.3795 15.0723 15.7563 14.7658 16.1905 14.5654C16.6248 14.3649 17.1025 14.277 17.5796 14.3096C18.0568 14.3423 18.5181 14.4945 18.9209 14.7523C19.3238 15.01 19.6554 15.365 19.885 15.7846C20.1146 16.2041 20.235 16.6747 20.235 17.153ZM11.802 15.5832L11.67 15.5487L12.1365 13.8162L12.2677 13.8507C12.3878 13.8807 12.4853 13.9857 12.5077 14.1057L12.5677 14.3907C12.5828 14.4507 12.6278 14.4957 12.6952 14.5107L12.8527 14.5557C13.0477 14.6082 13.1602 14.8032 13.1077 14.9982C13.0552 15.1932 12.8602 15.3057 12.6652 15.2532L12.5077 15.2082C12.4478 15.1932 12.3802 15.2082 12.3353 15.2607L12.1403 15.4782C12.0577 15.5757 11.9228 15.6132 11.8028 15.5832" fill="#121212"/>
</svg>
