<svg width="24" height="24" viewBox="0 0 24 24" fill="none" xmlns="http://www.w3.org/2000/svg">
<path d="M5.5355 6.63639C6.32298 5.68556 7.31075 4.92039 8.42823 4.39557C9.54571 3.87074 10.7653 3.59922 11.9999 3.60039C14.5991 3.60039 16.9223 4.78119 18.4643 6.63639C17.6951 7.09599 16.8731 7.47639 16.0091 7.76679C15.8602 7.81892 15.7378 7.9276 15.6685 8.06931C15.5991 8.21101 15.5883 8.37433 15.6385 8.5239C15.6887 8.67348 15.7958 8.79728 15.9365 8.86849C16.0773 8.9397 16.2405 8.9526 16.3907 8.90439C17.3687 8.57559 18.2987 8.14119 19.1651 7.61439C19.9748 8.93389 20.4023 10.4523 20.3999 12.0004C20.3999 13.6132 19.9451 15.1204 19.1579 16.3996C18.2861 15.8694 17.358 15.4379 16.3907 15.1132C16.2405 15.065 16.0773 15.0779 15.9365 15.1491C15.7958 15.2203 15.6887 15.3441 15.6385 15.4937C15.5883 15.6433 15.5991 15.8066 15.6685 15.9483C15.7378 16.09 15.8602 16.1987 16.0091 16.2508C16.8695 16.5388 17.6891 16.918 18.4547 17.3764C17.6671 18.3238 16.6804 19.0859 15.5647 19.6086C14.4491 20.1313 13.2319 20.4016 11.9999 20.4004C10.7679 20.4017 9.5507 20.1314 8.43504 19.6087C7.31937 19.086 6.33265 18.3238 5.5451 17.3764C6.31755 16.9145 7.13747 16.5371 7.9907 16.2508C8.06636 16.2265 8.13644 16.1874 8.19687 16.1359C8.25731 16.0843 8.3069 16.0212 8.34276 15.9503C8.37863 15.8794 8.40005 15.8021 8.40579 15.7228C8.41154 15.6436 8.40148 15.564 8.37621 15.4887C8.35094 15.4133 8.31096 15.3438 8.25859 15.284C8.20622 15.2243 8.14251 15.1755 8.07114 15.1406C7.99978 15.1057 7.92219 15.0852 7.84287 15.0805C7.76356 15.0758 7.68409 15.0869 7.6091 15.1132C6.6335 15.4408 5.7071 15.874 4.8419 16.3996C4.02727 15.077 3.59719 13.5537 3.5999 12.0004C3.5999 10.3924 4.0511 8.89119 4.8347 7.61439C5.7011 8.14239 6.6311 8.57559 7.6091 8.90439C7.75932 8.9526 7.92249 8.9397 8.06327 8.86849C8.20405 8.79728 8.31112 8.67348 8.36129 8.5239C8.41147 8.37433 8.40071 8.21101 8.33135 8.06931C8.26199 7.9276 8.13961 7.81892 7.9907 7.76679C7.13391 7.47919 6.31072 7.09979 5.5355 6.63519M11.9999 2.40039C9.45382 2.40039 7.01203 3.41182 5.21168 5.21217C3.41133 7.01252 2.3999 9.45431 2.3999 12.0004C2.3999 14.5465 3.41133 16.9883 5.21168 18.7886C7.01203 20.589 9.45382 21.6004 11.9999 21.6004C14.546 21.6004 16.9878 20.589 18.7881 18.7886C20.5885 16.9883 21.5999 14.5465 21.5999 12.0004C21.5999 9.45431 20.5885 7.01252 18.7881 5.21217C16.9878 3.41182 14.546 2.40039 11.9999 2.40039ZM10.2803 8.30079C11.421 8.45639 12.5776 8.45639 13.7183 8.30079C13.876 8.27931 14.0358 8.32135 14.1625 8.41767C14.2892 8.51399 14.3724 8.65669 14.3939 8.81439C14.4154 8.97209 14.3733 9.13186 14.277 9.25856C14.1807 9.38526 14.038 9.46851 13.8803 9.48999C12.6321 9.66022 11.3665 9.66022 10.1183 9.48999C9.96583 9.4628 9.82978 9.37771 9.73861 9.25251C9.64743 9.1273 9.60821 8.9717 9.62914 8.81824C9.65006 8.66478 9.72952 8.52536 9.85088 8.42914C9.97225 8.33292 10.1261 8.28736 10.2803 8.30199M10.2803 15.718C11.421 15.5625 12.5776 15.5625 13.7183 15.718C13.876 15.7395 14.0358 15.6974 14.1625 15.6011C14.2892 15.5048 14.3724 15.3621 14.3939 15.2044C14.4154 15.0467 14.3733 14.8869 14.277 14.7602C14.1807 14.6335 14.038 14.5503 13.8803 14.5288C12.6321 14.3586 11.3665 14.3586 10.1183 14.5288C10.0378 14.5364 9.95968 14.5603 9.88862 14.5988C9.81756 14.6374 9.75504 14.69 9.7048 14.7534C9.65457 14.8167 9.61766 14.8896 9.5963 14.9676C9.57493 15.0456 9.56955 15.1271 9.58047 15.2072C9.5914 15.2873 9.61841 15.3644 9.65987 15.4338C9.70134 15.5032 9.75641 15.5635 9.82177 15.6111C9.88714 15.6587 9.96145 15.6926 10.0402 15.7108C10.119 15.7289 10.2007 15.7322 10.2803 15.718Z" fill="black"/>
</svg>
