<svg width="14" height="11" viewBox="0 0 14 11" fill="none" xmlns="http://www.w3.org/2000/svg">
<path d="M1.77 11H1.23L0.85 9H0V5.61C0 5.162 0.157333 4.782 0.472 4.47C0.786667 4.15667 1.16767 4 1.615 4H2V1.615C2 1.16833 2.15733 0.787333 2.472 0.472C2.78667 0.157333 3.16767 0 3.615 0H10.385C10.8317 0 11.2127 0.157333 11.528 0.472C11.8427 0.786667 12 1.16767 12 1.615V4H12.385C12.8317 4 13.2127 4.15733 13.528 4.472C13.8427 4.78667 14 5.16767 14 5.615V9H13.15L12.77 11H12.23L11.85 9H2.15L1.77 11ZM7.5 4H11V1.615C11 1.43567 10.9423 1.28833 10.827 1.173C10.7117 1.05767 10.5643 1 10.385 1H7.5V4ZM3 4H6.5V1H3.615C3.43567 1 3.28833 1.05767 3.173 1.173C3.05767 1.28833 3 1.43567 3 1.615V4ZM1 8H13V5.615C13 5.43567 12.9423 5.28833 12.827 5.173C12.7117 5.05767 12.5643 5 12.385 5H1.615C1.43567 5 1.28833 5.05767 1.173 5.173C1.05767 5.28833 1 5.43567 1 5.615V8Z" fill="black"/>
</svg>
