<svg width="18" height="18" viewBox="0 0 18 18" fill="none" xmlns="http://www.w3.org/2000/svg">
<path d="M7.5 2.5C7.5 2.36739 7.55268 2.24021 7.64645 2.14645C7.74021 2.05268 7.86739 2 8 2H10C10.1326 2 10.2598 2.05268 10.3536 2.14645C10.4473 2.24021 10.5 2.36739 10.5 2.5C10.5 2.63261 10.4473 2.75979 10.3536 2.85355C10.2598 2.94732 10.1326 3 10 3H8C7.86739 3 7.74021 2.94732 7.64645 2.85355C7.55268 2.75979 7.5 2.63261 7.5 2.5Z" fill="black"/>
<path fill-rule="evenodd" clip-rule="evenodd" d="M13.6818 6.26C13.5003 6.4025 13.2648 6.5165 12.9808 6.609C13.0351 7.16447 12.9726 7.72517 12.7973 8.25504C12.6219 8.78491 12.3376 9.27222 11.9627 9.68563C11.5877 10.0991 11.1304 10.4294 10.6201 10.6555C10.1099 10.8816 9.55792 10.9984 8.99979 10.9984C8.44167 10.9984 7.88972 10.8816 7.37944 10.6555C6.86915 10.4294 6.41184 10.0991 6.03688 9.68563C5.66193 9.27222 5.37765 8.78491 5.20231 8.25504C5.02697 7.72517 4.96446 7.16447 5.01879 6.609C4.73479 6.5165 4.49929 6.4025 4.31829 6.26C4.08329 6.075 3.92579 5.828 3.90729 5.531C3.88979 5.2555 3.99879 5.0215 4.10779 4.8565C4.21539 4.70022 4.34316 4.55883 4.48779 4.436C4.55779 4.3745 4.62679 4.32 4.69079 4.2725C4.67179 4.17 4.65079 4.046 4.62979 3.9025C4.54121 3.27224 4.49777 2.63645 4.49979 2C4.49979 1.843 4.56679 1.726 4.59779 1.6765C4.63679 1.614 4.68279 1.5605 4.72479 1.5175C4.80829 1.43 4.91629 1.341 5.03479 1.2555C5.27479 1.0815 5.60479 0.886 5.99679 0.703C6.77829 0.338 7.85179 0 8.99979 0C10.1483 0 11.2213 0.3385 12.0028 0.703C12.3398 0.857139 12.6618 1.04209 12.9648 1.2555C13.0833 1.341 13.1913 1.4305 13.2748 1.5175C13.3168 1.5605 13.3628 1.614 13.4018 1.6765C13.4328 1.726 13.4998 1.843 13.4998 2C13.4998 2.801 13.4348 3.45 13.3698 3.9025C13.3488 4.046 13.3278 4.17 13.3088 4.2725C13.3728 4.32 13.4423 4.3745 13.5123 4.436C13.6373 4.5455 13.7803 4.688 13.8918 4.8565C14.0013 5.0215 14.1098 5.2555 14.0928 5.5315C14.0743 5.828 13.9168 6.075 13.6818 6.26ZM5.50079 2.159C5.50829 2.833 5.56429 3.378 5.61979 3.759C5.63279 3.849 5.64579 3.929 5.65779 4H12.3418C12.3543 3.929 12.3668 3.8485 12.3798 3.759C12.4348 3.378 12.4913 2.833 12.4988 2.159C12.4599 2.1261 12.4197 2.09474 12.3783 2.065C12.1978 1.9345 11.9238 1.77 11.5798 1.6095C10.8883 1.2865 9.96179 1 8.99979 1C8.03779 1 7.11129 1.2865 6.41979 1.6095C6.07579 1.77 5.80179 1.9345 5.62179 2.0645C5.58022 2.09456 5.53985 2.12625 5.50079 2.1595M5.39379 5L5.39229 5.001C5.30599 5.0585 5.22334 5.12129 5.14479 5.189C5.05579 5.267 4.98479 5.343 4.94179 5.409C4.93156 5.42384 4.92237 5.43938 4.91429 5.4555C4.92137 5.46196 4.92871 5.46813 4.93629 5.474C5.01129 5.533 5.17229 5.6195 5.48629 5.705C5.54829 5.722 5.61479 5.738 5.68579 5.754L5.69029 5.755C5.94129 5.8105 6.25029 5.86 6.62679 5.899C7.16029 5.9545 7.83179 5.991 8.67079 5.999L8.99979 6C10.6133 6 11.6568 5.8995 12.3098 5.755L12.3138 5.754C12.3853 5.738 12.4518 5.722 12.5138 5.705C12.8273 5.62 12.9888 5.533 13.0633 5.474C13.0709 5.46813 13.0782 5.46196 13.0853 5.4555C13.0774 5.4394 13.0683 5.42386 13.0583 5.409C13.0001 5.32727 12.9317 5.25334 12.8548 5.189C12.7764 5.1213 12.6939 5.05851 12.6078 5.001L12.6058 5H5.39379ZM8.86379 7C10.1848 7 11.2088 6.93 11.9938 6.808C12.0196 7.21566 11.9619 7.62429 11.8242 8.00886C11.6865 8.39342 11.4717 8.74581 11.193 9.04443C10.9143 9.34306 10.5775 9.58162 10.2034 9.74549C9.82921 9.90937 9.42553 9.99512 9.01706 9.99747C8.60859 9.99982 8.20395 9.91873 7.82793 9.75918C7.4519 9.59962 7.11243 9.36495 6.8303 9.06956C6.54818 8.77417 6.32935 8.42427 6.18723 8.04132C6.0451 7.65837 5.98268 7.25043 6.00379 6.8425C6.73529 6.9435 7.67279 7 8.86379 7ZM5.03879 16.4385C5.01274 16.6245 4.9997 16.8122 4.99979 17V17.5C4.99985 17.6099 4.96368 17.7168 4.89689 17.8041C4.8301 17.8914 4.7364 17.9542 4.6303 17.9829C4.52419 18.0116 4.41159 18.0045 4.30991 17.9628C4.20823 17.9211 4.12313 17.847 4.06779 17.752C3.73081 17.9348 3.33648 17.9812 2.96629 17.8815L2.00029 17.6225C1.61617 17.5194 1.28872 17.268 1.08994 16.9235C0.891168 16.579 0.837338 16.1697 0.94029 15.7855L1.32829 14.3365C1.43129 13.9523 1.68268 13.6247 2.02718 13.4258C2.37168 13.227 2.78106 13.1731 3.16529 13.276L4.13129 13.5345C4.46729 13.6245 4.74629 13.822 4.94029 14.08C5.40315 13.4357 6.01285 12.911 6.71889 12.5493C7.42493 12.1876 8.20699 11.9993 9.00029 12C9.79317 11.9995 10.5748 12.1878 11.2804 12.5493C11.9861 12.9108 12.5955 13.4352 13.0583 14.079C13.2593 13.8125 13.5437 13.6209 13.8663 13.535L14.8323 13.2765C15.2165 13.1735 15.6258 13.2274 15.9703 13.4262C16.3147 13.6249 16.5662 13.9524 16.6693 14.3365L17.0578 15.786C17.1087 15.9763 17.1217 16.1747 17.096 16.37C17.0702 16.5653 17.0063 16.7537 16.9078 16.9242C16.8092 17.0948 16.6781 17.2443 16.5218 17.3642C16.3655 17.4841 16.1871 17.5721 15.9968 17.623L15.0313 17.8815C14.6618 17.9812 14.2681 17.9354 13.9313 17.7535C13.8758 17.8483 13.7906 17.9222 13.6888 17.9638C13.5871 18.0053 13.4745 18.0122 13.3685 17.9834C13.2625 17.9545 13.1689 17.8915 13.1022 17.8041C13.0356 17.7168 12.9996 17.6099 12.9998 17.5V17C12.9999 16.8122 12.9868 16.6245 12.9608 16.4385L10.3588 17.136C10.238 17.3945 10.046 17.6132 9.80528 17.7665C9.56456 17.9197 9.28514 18.0011 8.99979 18.0011C8.71444 18.0011 8.43502 17.9197 8.1943 17.7665C7.95359 17.6132 7.76157 17.3945 7.64079 17.136L5.03879 16.4385ZM7.55979 16.0785C7.6269 15.8506 7.74708 15.6418 7.91047 15.4692C8.07387 15.2967 8.27583 15.1654 8.49979 15.086V13.031C7.79847 13.1197 7.13311 13.3924 6.57133 13.8215C6.00954 14.2506 5.57136 14.8207 5.30129 15.474L7.55979 16.0785ZM12.6983 15.4735C12.4282 14.8203 11.9899 14.2503 11.4282 13.8213C10.8664 13.3923 10.2011 13.1196 9.49979 13.031V15.0855C9.95179 15.2455 10.3048 15.6155 10.4398 16.079L12.6983 15.4735ZM13.7718 15.1135C13.7548 15.0501 13.7504 14.9839 13.759 14.9188C13.7675 14.8537 13.7888 14.7909 13.8217 14.734C13.8545 14.6771 13.8982 14.6273 13.9503 14.5873C14.0024 14.5473 14.0619 14.518 14.1253 14.501L15.0913 14.242C15.2193 14.2078 15.3557 14.2258 15.4705 14.2921C15.5852 14.3584 15.669 14.4675 15.7033 14.5955L16.0918 16.0445C16.1088 16.1079 16.1132 16.1741 16.1046 16.2392C16.096 16.3043 16.0747 16.3671 16.0419 16.424C16.0091 16.4809 15.9654 16.5307 15.9133 16.5707C15.8612 16.6107 15.8017 16.64 15.7383 16.657L14.7723 16.916C14.7088 16.933 14.6426 16.9373 14.5775 16.9287C14.5124 16.9202 14.4496 16.8988 14.3927 16.8659C14.3358 16.8331 14.2859 16.7893 14.246 16.7371C14.206 16.685 14.1767 16.6255 14.1598 16.562L13.7718 15.1135ZM2.90679 14.242C2.84333 14.2249 2.77712 14.2205 2.71195 14.229C2.64678 14.2375 2.58394 14.2588 2.527 14.2917C2.47007 14.3245 2.42017 14.3682 2.38015 14.4204C2.34013 14.4725 2.31079 14.532 2.29379 14.5955L1.90579 16.044C1.88878 16.1074 1.88442 16.1736 1.89298 16.2387C1.90154 16.3038 1.92284 16.3666 1.95567 16.4235C1.98849 16.4804 2.0322 16.5302 2.0843 16.5702C2.13639 16.6102 2.19586 16.6395 2.25929 16.6565L3.22529 16.9155C3.28872 16.9325 3.35488 16.9369 3.41999 16.9283C3.4851 16.9198 3.54789 16.8985 3.60476 16.8656C3.66164 16.8328 3.7115 16.7891 3.75148 16.737C3.79146 16.6849 3.82079 16.6254 3.83779 16.562L4.22579 15.113C4.24288 15.0495 4.24729 14.9833 4.23877 14.9182C4.23025 14.853 4.20896 14.7901 4.17613 14.7332C4.1433 14.6763 4.09956 14.6264 4.04743 14.5864C3.99529 14.5463 3.93578 14.517 3.87229 14.5L2.90679 14.242ZM9.49979 16.5C9.49979 16.6326 9.44711 16.7598 9.35334 16.8536C9.25958 16.9473 9.1324 17 8.99979 17C8.86718 17 8.74 16.9473 8.64624 16.8536C8.55247 16.7598 8.49979 16.6326 8.49979 16.5C8.49979 16.3674 8.55247 16.2402 8.64624 16.1464C8.74 16.0527 8.86718 16 8.99979 16C9.1324 16 9.25958 16.0527 9.35334 16.1464C9.44711 16.2402 9.49979 16.3674 9.49979 16.5Z" fill="black"/>
</svg>
