<svg width="24" height="24" viewBox="0 0 24 24" fill="none" xmlns="http://www.w3.org/2000/svg">
<path d="M20.2742 9.86864L16.8322 4.95364L18.4712 3.80664L21.9122 8.72164L20.2742 9.86864ZM18.3902 12.4086L16.6702 9.94964L8.47817 15.6856L10.1982 18.1426L8.56017 19.2906L3.97217 12.7366L5.61017 11.5896L7.33017 14.0476L15.5222 8.31164L13.8022 5.85364L15.4402 4.70664L20.0282 11.2606L18.3902 12.4086ZM20.7652 7.08264L22.4032 5.93564L21.2562 4.29764L19.6182 5.44464L20.7652 7.08264ZM7.16817 19.0456L3.72617 14.1306L2.08817 15.2776L5.52917 20.1926L7.16817 19.0456ZM4.38217 18.5546L2.74417 19.7016L1.59717 18.0636L3.23517 16.9166L4.38217 18.5546Z" fill="black"/>
</svg>
