<svg width="24" height="24" viewBox="0 0 24 24" fill="none" xmlns="http://www.w3.org/2000/svg">
<g clip-path="url(#clip0_577_1682)">
<path d="M1.21191 23.0374H23.0691M6.61706 9.74996L12.1405 5.41282L17.6639 9.74996M2.77363 13.3894V23.0374M21.5073 13.3894V23.0323M1.21191 13.3894H23.0691M12.1405 5.41111V1.15625H14.2833M7.45706 13.3945H16.8239V23.0374H7.45706V13.3911V13.3945ZM5.55077 9.75168H18.7302V13.3877H5.55077V9.75168Z" stroke="black" stroke-linecap="round" stroke-linejoin="round"/>
<path d="M10.4482 19.2056C10.4482 18.9961 10.4895 18.7887 10.5698 18.5951C10.65 18.4016 10.7676 18.2257 10.9158 18.0777C11.064 17.9296 11.24 17.8122 11.4336 17.7322C11.6272 17.6522 11.8347 17.6111 12.0442 17.6113C12.2538 17.6111 12.4613 17.6522 12.6549 17.7322C12.8485 17.8122 13.0245 17.9296 13.1727 18.0777C13.3209 18.2257 13.4385 18.4016 13.5187 18.5951C13.5989 18.7887 13.6402 18.9961 13.6402 19.2056V23.037H10.4482V19.2056Z" stroke="black" stroke-linecap="round" stroke-linejoin="round"/>
</g>
<defs>
<clipPath id="clip0_577_1682">
<rect width="24" height="24" fill="white"/>
</clipPath>
</defs>
</svg>
