<svg width="24" height="24" viewBox="0 0 24 24" fill="none" xmlns="http://www.w3.org/2000/svg">
<path d="M20.4459 17.6533C20.6299 17.6486 20.7292 17.3126 20.7292 17.3126C20.7292 17.3126 21.3959 17.3546 21.5002 16.917C21.5139 16.859 21.5962 12.3203 20.9905 11.06C20.9663 11.0098 20.9298 10.9666 20.8843 10.9344C20.8388 10.9022 20.7859 10.8821 20.7305 10.876C19.7165 10.756 14.2525 10.49 9.97955 10.9793C9.97955 10.9793 8.43255 11.3806 5.72955 13.2713C5.72955 13.2713 3.89621 14.0213 3.10455 14.5626C2.31288 15.104 2.33355 16.1463 2.33355 16.1463C2.33355 16.1463 2.41688 17.1463 2.58355 17.459C2.60888 17.5066 2.71621 17.8696 3.44421 17.8856" fill="white"/>
<path d="M21.511 16.3066H18.405V16.574C18.4049 16.7161 18.4329 16.8568 18.4872 16.9881C18.5416 17.1194 18.6213 17.2387 18.7218 17.3392C18.8223 17.4396 18.9416 17.5193 19.0728 17.5737C19.2041 17.6281 19.3449 17.656 19.487 17.656H20.5223C20.8506 17.656 21.1613 17.5066 21.3663 17.2506L21.6666 16.876L21.511 16.3066ZM5.81629 16.5676H2.70996V17.4136L3.36463 17.8863H5.34663L5.97163 17.1626L5.81629 16.5676Z" fill="#3F3F3F"/>
<path d="M5.71045 18.5664C6.26273 18.5664 6.71045 18.1187 6.71045 17.5664C6.71045 17.0141 6.26273 16.5664 5.71045 16.5664C5.15816 16.5664 4.71045 17.0141 4.71045 17.5664C4.71045 18.1187 5.15816 18.5664 5.71045 18.5664Z" fill="#9B9B9A"/>
<path d="M18.4048 18.5664C18.9571 18.5664 19.4048 18.1187 19.4048 17.5664C19.4048 17.0141 18.9571 16.5664 18.4048 16.5664C17.8525 16.5664 17.4048 17.0141 17.4048 17.5664C17.4048 18.1187 17.8525 18.5664 18.4048 18.5664Z" fill="#9B9B9A"/>
<path d="M11.3058 11.6943V13.9167L6.5835 14.0487C6.5835 14.0487 8.88916 11.4167 11.3058 11.6943Z" fill="#3F3F3F"/>
<path d="M4.80492 15.2397C4.80492 15.2397 4.83325 14.8804 4.37492 14.8387C3.91659 14.797 3.07559 15.2397 3.02892 15.3597C2.98192 15.4797 2.91225 15.837 3.12225 15.9014C3.33259 15.9654 4.80492 15.2397 4.80492 15.2397Z" fill="#D0CFCE"/>
<path d="M4.48823 15.2109C4.48823 15.2109 3.83323 15.7643 3.2959 15.8503L4.48823 15.2109Z" fill="#D0CFCE"/>
<path d="M7.61133 17.5568C10.3677 17.5324 13.4163 17.4688 16.056 17.4121" stroke="black" stroke-width="0.666667" stroke-miterlimit="10" stroke-linecap="round" stroke-linejoin="round"/>
<path d="M5.71094 18.5684C6.26322 18.5684 6.71094 18.1206 6.71094 17.5684C6.71094 17.0161 6.26322 16.5684 5.71094 16.5684C5.15865 16.5684 4.71094 17.0161 4.71094 17.5684C4.71094 18.1206 5.15865 18.5684 5.71094 18.5684Z" stroke="black" stroke-width="0.666667" stroke-miterlimit="10"/>
<path d="M18.4053 18.5684C18.9576 18.5684 19.4053 18.1206 19.4053 17.5684C19.4053 17.0161 18.9576 16.5684 18.4053 16.5684C17.853 16.5684 17.4053 17.0161 17.4053 17.5684C17.4053 18.1206 17.853 18.5684 18.4053 18.5684Z" stroke="black" stroke-width="0.666667" stroke-miterlimit="10"/>
<path d="M11.3061 12.0273V13.9163L6.83372 14.222M8.02805 16.3607L16.3614 16.0273M4.48872 15.2107C4.48872 15.2107 3.83372 15.764 3.29639 15.85" stroke="black" stroke-width="0.666667" stroke-miterlimit="10" stroke-linecap="round" stroke-linejoin="round"/>
<path d="M20.4459 17.32L20.7292 17.3126C20.7292 17.3126 21.3959 17.3546 21.5002 16.917C21.5139 16.859 21.5962 12.3203 20.9905 11.06C20.9663 11.0098 20.9298 10.9666 20.8843 10.9344C20.8388 10.9022 20.7859 10.8821 20.7305 10.876C19.7165 10.756 14.2525 10.49 9.97955 10.9793C9.97955 10.9793 8.43255 11.3806 5.72955 13.2713C5.72955 13.2713 3.89621 14.0213 3.10455 14.5626C2.31288 15.104 2.33355 16.1463 2.33355 16.1463C2.33355 16.1463 2.41688 17.1463 2.58355 17.459C2.60888 17.5066 2.71621 17.5363 3.44421 17.5523" stroke="black" stroke-width="0.666667" stroke-miterlimit="10" stroke-linecap="round" stroke-linejoin="round"/>
</svg>
