<svg width="24" height="24" viewBox="0 0 24 24" fill="none" xmlns="http://www.w3.org/2000/svg">
<path d="M7 8.48053L8.635 6.86553L7 5.25053L5.385 6.86553L7 8.48053ZM4.615 13.7705C4.155 13.7705 3.771 13.6162 3.463 13.3075C3.15433 12.9989 3 12.6145 3 12.1545V4.38453C3 3.92453 3.15433 3.54053 3.463 3.23253C3.771 2.92386 4.155 2.76953 4.615 2.76953H19.385C19.845 2.76953 20.229 2.92386 20.537 3.23253C20.8457 3.54053 21 3.92486 21 4.38553V12.1545C21 12.6145 20.846 12.9989 20.538 13.3075C20.2293 13.6155 19.845 13.7695 19.385 13.7695H16.313C16.3443 13.6029 16.365 13.4362 16.375 13.2695C16.385 13.1029 16.3863 12.9362 16.379 12.7695H19.385C19.5383 12.7695 19.6793 12.7055 19.808 12.5775C19.936 12.4495 20 12.3085 20 12.1545V4.38453C20 4.2312 19.936 4.09053 19.808 3.96253C19.6793 3.83386 19.5383 3.76953 19.385 3.76953H4.615C4.46167 3.76953 4.32067 3.83386 4.192 3.96253C4.064 4.09053 4 4.23153 4 4.38553V12.1545C4 12.3079 4.064 12.4489 4.192 12.5775C4.32067 12.7055 4.46167 12.7695 4.615 12.7695H7.621C7.61367 12.9362 7.615 13.1029 7.625 13.2695C7.635 13.4362 7.65567 13.6029 7.687 13.7695L4.615 13.7705ZM16.498 7.27053C16.7747 7.27053 17.011 7.1732 17.207 6.97853C17.4023 6.7852 17.5 6.54986 17.5 6.27253C17.5 5.9952 17.403 5.75853 17.209 5.56253C17.015 5.3672 16.7793 5.26953 16.502 5.26953C16.2253 5.26953 15.989 5.36653 15.793 5.56053C15.5977 5.75453 15.5 5.9902 15.5 6.26753C15.5 6.54486 15.597 6.7812 15.791 6.97653C15.985 7.17186 16.2207 7.27053 16.498 7.27053ZM6 21.2315V19.8235C6 19.4329 6.108 19.0675 6.324 18.7275C6.54 18.3875 6.83133 18.1375 7.198 17.9775C7.96333 17.6329 8.746 17.3709 9.546 17.1915C10.346 17.0129 11.164 16.9235 12 16.9235C12.836 16.9235 13.654 17.0129 14.454 17.1915C15.254 17.3709 16.0367 17.6329 16.802 17.9775C17.1687 18.1375 17.46 18.3859 17.676 18.7225C17.892 19.0592 18 19.4242 18 19.8175V21.2315H6ZM7 20.2315H17V19.8235C17 19.6235 16.9417 19.4402 16.825 19.2735C16.7083 19.1069 16.5583 18.9819 16.375 18.8985C15.675 18.5819 14.9583 18.3402 14.225 18.1735C13.4917 18.0069 12.75 17.9235 12 17.9235C11.25 17.9235 10.5083 18.0069 9.775 18.1735C9.04167 18.3402 8.325 18.5819 7.625 18.8985C7.44167 18.9819 7.29167 19.1069 7.175 19.2735C7.05833 19.4402 7 19.6235 7 19.8235V20.2315ZM12 15.5385C11.3027 15.5385 10.7117 15.2965 10.227 14.8125C9.74233 14.3279 9.5 13.7365 9.5 13.0385C9.5 12.3412 9.74233 11.7502 10.227 11.2655C10.7117 10.7809 11.3027 10.5385 12 10.5385C12.6973 10.5385 13.2883 10.7809 13.773 11.2655C14.2577 11.7502 14.5 12.3412 14.5 13.0385C14.5 13.7365 14.2577 14.3279 13.773 14.8125C13.2883 15.2965 12.6973 15.5385 12 15.5385ZM12 14.5385C12.4167 14.5385 12.771 14.3929 13.063 14.1015C13.355 13.8102 13.5007 13.4559 13.5 13.0385C13.5 12.6219 13.3543 12.2679 13.063 11.9765C12.7717 11.6852 12.4173 11.5392 12 11.5385C11.5833 11.5385 11.2293 11.6845 10.938 11.9765C10.6467 12.2685 10.5007 12.6225 10.5 13.0385C10.5 13.4552 10.646 13.8095 10.938 14.1015C11.23 14.3935 11.584 14.5392 12 14.5385Z" fill="#121212"/>
</svg>
