<svg width="20" height="24" viewBox="0 0 20 24" fill="none" xmlns="http://www.w3.org/2000/svg">
<path fill-rule="evenodd" clip-rule="evenodd" d="M7.4193 0.215714C7.64755 0.0793423 7.90752 0.00506132 8.17336 0.000249622C8.43921 -0.00456208 8.70169 0.060263 8.93473 0.188286C15.7696 3.36314 19.6387 9.95629 19.4004 15.4694C19.2976 17.7854 18.4696 19.93 16.8633 21.4951C15.2553 23.062 12.9462 23.9774 10.0233 23.9826C8.84202 24.0557 7.65803 23.8921 6.54079 23.5016C5.42354 23.1111 4.39551 22.5014 3.517 21.7083C2.63849 20.9152 1.92718 19.9547 1.42478 18.8831C0.922389 17.8114 0.63902 16.6503 0.591299 15.4677V15.454C0.556406 14.0831 0.897602 12.7289 1.57787 11.5382C2.25813 10.3475 3.25149 9.36583 4.45016 8.69971C4.55428 8.64191 4.66932 8.60643 4.78792 8.59556C4.90652 8.58468 5.02608 8.59864 5.13899 8.63654C5.25189 8.67445 5.35566 8.73547 5.44367 8.8157C5.53168 8.89594 5.602 8.99364 5.65016 9.10257C6.06736 10.0488 6.6522 10.9118 7.37644 11.65C8.2233 10.5443 8.61416 9.11629 8.60216 7.546C8.58844 5.67743 8.00216 3.67343 7.01816 1.96771C6.84724 1.68004 6.79357 1.33764 6.86825 1.01147C6.94293 0.685295 7.14024 0.40036 7.4193 0.215714Z" fill="white"/>
</svg>
