<svg width="393" height="186" viewBox="0 0 393 186" fill="none" xmlns="http://www.w3.org/2000/svg">
<rect x="0.5" y="0.5" width="392" height="185" rx="3.5" stroke="black"/>
<path d="M197.708 62.375H177.292C175.681 62.375 174.375 63.6808 174.375 65.2917V85.7083C174.375 87.3192 175.681 88.625 177.292 88.625H197.708C199.319 88.625 200.625 87.3192 200.625 85.7083V65.2917C200.625 63.6808 199.319 62.375 197.708 62.375Z" stroke="black" stroke-width="2" stroke-linecap="round" stroke-linejoin="round"/>
<path d="M174.375 71.1247C174.375 70.3511 174.682 69.6093 175.229 69.0623C175.776 68.5153 176.518 68.208 177.292 68.208H197.708C198.482 68.208 199.224 68.5153 199.771 69.0623C200.318 69.6093 200.625 70.3511 200.625 71.1247" stroke="black" stroke-width="2" stroke-linecap="round" stroke-linejoin="round"/>
<path d="M174.375 74.042H178.75C179.917 74.042 181.083 74.4795 181.813 75.3545L183.417 76.667C185.75 79.0003 189.396 79.0003 191.729 76.667L193.333 75.3545C194.063 74.6253 195.229 74.042 196.396 74.042H200.625" stroke="black" stroke-width="2" stroke-linecap="round" stroke-linejoin="round"/>
<path d="M119.191 104.8V111.296C119.191 112.352 119.399 113.152 119.815 113.68C120.231 114.208 120.871 114.464 121.751 114.464C122.631 114.464 123.287 114.208 123.703 113.68C124.119 113.152 124.343 112.352 124.343 111.296V104.8H126.183V111.2C126.183 112.8 125.799 114.016 125.047 114.848C124.295 115.68 123.191 116.096 121.751 116.096C120.311 116.096 119.207 115.68 118.471 114.848C117.719 114.016 117.351 112.8 117.351 111.2V104.8H119.191ZM134.373 108.224C134.949 108.56 135.413 109.04 135.749 109.68C136.069 110.32 136.245 111.056 136.245 111.904C136.245 112.736 136.069 113.472 135.749 114.112C135.413 114.752 134.949 115.232 134.373 115.584C133.781 115.936 133.109 116.096 132.373 116.096C131.765 116.096 131.237 115.984 130.789 115.76C130.341 115.536 129.973 115.232 129.717 114.848V119.2H127.989V107.808H129.493L129.701 109.024C130.357 108.16 131.253 107.712 132.373 107.712C133.109 107.712 133.781 107.888 134.373 108.224ZM133.813 113.872C134.261 113.36 134.485 112.704 134.485 111.904C134.485 111.104 134.261 110.448 133.813 109.936C133.365 109.44 132.789 109.184 132.085 109.184C131.365 109.184 130.789 109.44 130.357 109.936C129.909 110.432 129.701 111.072 129.701 111.872C129.701 112.704 129.909 113.36 130.357 113.872C130.789 114.384 131.365 114.64 132.085 114.64C132.789 114.64 133.365 114.384 133.813 113.872ZM137.629 104.8H139.357V116H137.629V104.8ZM142.731 115.584C142.091 115.232 141.611 114.752 141.259 114.112C140.907 113.472 140.747 112.736 140.747 111.904C140.747 111.088 140.907 110.368 141.259 109.728C141.611 109.088 142.091 108.592 142.731 108.24C143.371 107.888 144.091 107.712 144.923 107.712C145.739 107.712 146.459 107.888 147.099 108.24C147.739 108.592 148.219 109.088 148.571 109.728C148.923 110.368 149.099 111.088 149.099 111.904C149.099 112.736 148.923 113.472 148.571 114.112C148.219 114.752 147.739 115.232 147.099 115.584C146.459 115.936 145.739 116.096 144.923 116.096C144.091 116.096 143.371 115.936 142.731 115.584ZM146.667 113.872C147.115 113.36 147.339 112.704 147.339 111.904C147.339 111.104 147.115 110.464 146.667 109.952C146.219 109.44 145.643 109.184 144.923 109.184C144.187 109.184 143.611 109.44 143.179 109.952C142.731 110.464 142.523 111.104 142.523 111.904C142.523 112.704 142.731 113.36 143.179 113.872C143.611 114.384 144.187 114.624 144.923 114.624C145.643 114.624 146.219 114.384 146.667 113.872ZM158.329 114.496V116H157.417C156.873 116 156.489 115.888 156.265 115.664C156.025 115.44 155.913 115.12 155.913 114.688C155.289 115.632 154.393 116.096 153.209 116.096C152.281 116.096 151.545 115.888 151.001 115.456C150.441 115.04 150.169 114.448 150.169 113.696C150.169 112.864 150.457 112.208 151.065 111.76C151.657 111.312 152.521 111.072 153.673 111.072H155.737V110.576C155.737 110.128 155.577 109.76 155.257 109.504C154.937 109.248 154.489 109.104 153.929 109.104C153.417 109.104 153.001 109.216 152.681 109.44C152.361 109.664 152.169 109.952 152.105 110.304H150.409C150.489 109.488 150.857 108.848 151.497 108.4C152.137 107.952 152.969 107.712 154.009 107.712C155.097 107.712 155.945 107.968 156.553 108.48C157.145 108.992 157.449 109.728 157.449 110.688V113.92C157.449 114.304 157.625 114.496 157.993 114.496H158.329ZM155.737 112.352H153.593C153.049 112.352 152.649 112.464 152.361 112.672C152.073 112.88 151.929 113.184 151.929 113.584C151.929 113.936 152.057 114.224 152.329 114.432C152.601 114.656 152.969 114.752 153.449 114.752C154.153 114.752 154.713 114.56 155.113 114.176C155.513 113.792 155.721 113.28 155.737 112.64V112.352ZM167.222 104.8V116H165.718L165.51 114.768C164.854 115.664 163.958 116.096 162.838 116.096C162.086 116.096 161.414 115.936 160.838 115.6C160.246 115.264 159.782 114.784 159.462 114.144C159.126 113.504 158.966 112.768 158.966 111.904C158.966 111.072 159.126 110.352 159.462 109.712C159.798 109.072 160.262 108.592 160.854 108.24C161.43 107.888 162.102 107.712 162.838 107.712C163.43 107.712 163.958 107.824 164.406 108.048C164.854 108.272 165.206 108.56 165.494 108.944V104.8H167.222ZM164.854 113.888C165.286 113.392 165.51 112.736 165.51 111.936C165.51 111.12 165.286 110.464 164.854 109.952C164.406 109.44 163.83 109.184 163.126 109.184C162.406 109.184 161.83 109.44 161.398 109.952C160.95 110.464 160.742 111.104 160.742 111.904C160.742 112.72 160.95 113.376 161.398 113.888C161.83 114.4 162.406 114.64 163.126 114.64C163.83 114.64 164.406 114.4 164.854 113.888ZM174.62 104.832C174.812 105.024 174.924 105.28 174.924 105.568C174.924 105.872 174.812 106.128 174.62 106.32C174.412 106.512 174.156 106.608 173.868 106.608C173.564 106.608 173.308 106.512 173.116 106.32C172.908 106.128 172.812 105.872 172.812 105.568C172.812 105.28 172.908 105.024 173.116 104.832C173.308 104.64 173.564 104.528 173.868 104.528C174.156 104.528 174.412 104.64 174.62 104.832ZM173.004 107.808H174.732V116H173.004V107.808ZM184.378 104.8V116H182.874L182.666 114.768C182.01 115.664 181.114 116.096 179.994 116.096C179.242 116.096 178.57 115.936 177.994 115.6C177.402 115.264 176.938 114.784 176.618 114.144C176.282 113.504 176.122 112.768 176.122 111.904C176.122 111.072 176.282 110.352 176.618 109.712C176.954 109.072 177.418 108.592 178.01 108.24C178.586 107.888 179.258 107.712 179.994 107.712C180.586 107.712 181.114 107.824 181.562 108.048C182.01 108.272 182.362 108.56 182.65 108.944V104.8H184.378ZM182.01 113.888C182.442 113.392 182.666 112.736 182.666 111.936C182.666 111.12 182.442 110.464 182.01 109.952C181.562 109.44 180.986 109.184 180.282 109.184C179.562 109.184 178.986 109.44 178.554 109.952C178.106 110.464 177.898 111.104 177.898 111.904C177.898 112.72 178.106 113.376 178.554 113.888C178.986 114.4 179.562 114.64 180.282 114.64C180.986 114.64 181.562 114.4 182.01 113.888ZM186.259 109.712C186.595 109.072 187.059 108.592 187.667 108.24C188.275 107.888 188.963 107.712 189.747 107.712C190.531 107.712 191.219 107.872 191.827 108.192C192.435 108.512 192.899 108.976 193.251 109.552C193.603 110.144 193.779 110.832 193.795 111.616C193.795 111.84 193.779 112.048 193.747 112.272H187.571V112.368C187.603 113.088 187.827 113.648 188.243 114.064C188.643 114.48 189.187 114.688 189.859 114.688C190.387 114.688 190.835 114.576 191.203 114.32C191.555 114.064 191.795 113.712 191.923 113.248H193.651C193.491 114.08 193.091 114.768 192.435 115.296C191.779 115.84 190.963 116.096 189.987 116.096C189.123 116.096 188.387 115.936 187.747 115.584C187.107 115.232 186.627 114.752 186.275 114.112C185.923 113.488 185.763 112.752 185.763 111.92C185.763 111.088 185.923 110.352 186.259 109.712ZM192.035 111.008C191.955 110.416 191.715 109.952 191.315 109.616C190.915 109.28 190.419 109.104 189.811 109.104C189.235 109.104 188.755 109.28 188.339 109.632C187.923 109.984 187.699 110.432 187.635 111.008H192.035ZM201.88 108.608C202.488 109.216 202.808 110.176 202.808 111.488V116H201.064V111.584C201.064 110.816 200.888 110.224 200.568 109.808C200.232 109.408 199.752 109.2 199.112 109.2C198.424 109.2 197.88 109.44 197.496 109.92C197.112 110.4 196.92 111.04 196.92 111.872V116H195.192V107.808H196.696L196.888 108.88C197.496 108.112 198.376 107.712 199.512 107.712C200.472 107.712 201.272 108.016 201.88 108.608ZM204.907 109.328H203.483V107.808H204.907V105.52H206.651V107.808H208.619V109.328H206.651V113.6C206.651 113.92 206.715 114.16 206.843 114.288C206.971 114.416 207.179 114.48 207.499 114.48H208.811V116H207.147C206.363 116 205.787 115.824 205.435 115.456C205.083 115.104 204.907 114.544 204.907 113.776V109.328ZM211.355 104.832C211.547 105.024 211.659 105.28 211.659 105.568C211.659 105.872 211.547 106.128 211.355 106.32C211.147 106.512 210.891 106.608 210.603 106.608C210.299 106.608 210.043 106.512 209.851 106.32C209.643 106.128 209.547 105.872 209.547 105.568C209.547 105.28 209.643 105.024 209.851 104.832C210.043 104.64 210.299 104.528 210.603 104.528C210.891 104.528 211.147 104.64 211.355 104.832ZM209.739 107.808H211.467V116H209.739V107.808ZM213.689 109.328H212.264V107.808H213.689V105.52H215.433V107.808H217.401V109.328H215.433V113.6C215.433 113.92 215.497 114.16 215.625 114.288C215.753 114.416 215.961 114.48 216.281 114.48H217.593V116H215.929C215.145 116 214.569 115.824 214.217 115.456C213.865 115.104 213.689 114.544 213.689 113.776V109.328ZM219.544 107.808L221.832 114.128L224.056 107.808H225.896L222.184 117.28C221.992 117.776 221.816 118.16 221.656 118.416C221.496 118.672 221.288 118.88 221.064 119.008C220.824 119.136 220.504 119.2 220.12 119.2H218.264V117.68H219.48C219.8 117.68 220.04 117.632 220.168 117.536C220.296 117.44 220.424 117.2 220.568 116.848L220.904 116.064L217.704 107.808H219.544ZM237.184 115.296C236.512 115.84 235.664 116.096 234.64 116.096C233.824 116.096 233.104 115.936 232.496 115.584C231.872 115.232 231.392 114.736 231.056 114.096C230.72 113.456 230.56 112.72 230.56 111.888C230.56 111.056 230.72 110.336 231.072 109.696C231.408 109.072 231.888 108.592 232.512 108.24C233.136 107.888 233.856 107.712 234.688 107.712C235.712 107.712 236.544 107.984 237.2 108.528C237.84 109.072 238.256 109.792 238.416 110.72H236.64C236.512 110.256 236.288 109.888 235.936 109.6C235.584 109.328 235.152 109.184 234.64 109.184C233.936 109.184 233.376 109.44 232.96 109.936C232.544 110.448 232.336 111.088 232.336 111.888C232.336 112.704 232.544 113.36 232.96 113.872C233.376 114.384 233.936 114.624 234.64 114.624C235.168 114.624 235.616 114.496 235.968 114.208C236.32 113.92 236.544 113.536 236.656 113.056H238.416C238.256 114.016 237.84 114.752 237.184 115.296ZM247.641 114.496V116H246.729C246.185 116 245.801 115.888 245.577 115.664C245.337 115.44 245.225 115.12 245.225 114.688C244.601 115.632 243.705 116.096 242.521 116.096C241.593 116.096 240.857 115.888 240.313 115.456C239.753 115.04 239.481 114.448 239.481 113.696C239.481 112.864 239.769 112.208 240.377 111.76C240.969 111.312 241.833 111.072 242.985 111.072H245.049V110.576C245.049 110.128 244.889 109.76 244.569 109.504C244.249 109.248 243.801 109.104 243.241 109.104C242.729 109.104 242.313 109.216 241.993 109.44C241.673 109.664 241.481 109.952 241.417 110.304H239.721C239.801 109.488 240.169 108.848 240.809 108.4C241.449 107.952 242.281 107.712 243.321 107.712C244.409 107.712 245.257 107.968 245.865 108.48C246.457 108.992 246.761 109.728 246.761 110.688V113.92C246.761 114.304 246.937 114.496 247.305 114.496H247.641ZM245.049 112.352H242.905C242.361 112.352 241.961 112.464 241.673 112.672C241.385 112.88 241.241 113.184 241.241 113.584C241.241 113.936 241.369 114.224 241.641 114.432C241.913 114.656 242.281 114.752 242.761 114.752C243.465 114.752 244.025 114.56 244.425 114.176C244.825 113.792 245.033 113.28 245.049 112.64V112.352ZM253.11 107.808V109.424H252.342C251.622 109.424 251.11 109.664 250.79 110.128C250.47 110.592 250.31 111.184 250.31 111.888V116H248.582V107.808H250.118L250.31 109.04C250.534 108.656 250.838 108.368 251.222 108.144C251.59 107.92 252.086 107.808 252.726 107.808H253.11ZM261.769 104.8V116H260.265L260.057 114.768C259.401 115.664 258.505 116.096 257.385 116.096C256.633 116.096 255.961 115.936 255.385 115.6C254.793 115.264 254.329 114.784 254.009 114.144C253.673 113.504 253.513 112.768 253.513 111.904C253.513 111.072 253.673 110.352 254.009 109.712C254.345 109.072 254.809 108.592 255.401 108.24C255.977 107.888 256.649 107.712 257.385 107.712C257.977 107.712 258.505 107.824 258.953 108.048C259.401 108.272 259.753 108.56 260.041 108.944V104.8H261.769ZM259.401 113.888C259.833 113.392 260.057 112.736 260.057 111.936C260.057 111.12 259.833 110.464 259.401 109.952C258.953 109.44 258.377 109.184 257.673 109.184C256.953 109.184 256.377 109.44 255.945 109.952C255.497 110.464 255.289 111.104 255.289 111.904C255.289 112.72 255.497 113.376 255.945 113.888C256.377 114.4 256.953 114.64 257.673 114.64C258.377 114.64 258.953 114.4 259.401 113.888Z" fill="#121212"/>
<path d="M164.949 128.2V135.69C164.949 136.446 164.753 137.02 164.361 137.412C163.969 137.804 163.395 138 162.639 138H161.365V136.852H162.485C162.919 136.852 163.241 136.754 163.437 136.558C163.633 136.362 163.731 136.04 163.731 135.592V128.2H164.949ZM170.614 128.2C171.258 128.2 171.818 128.326 172.322 128.578C172.812 128.83 173.19 129.18 173.456 129.628C173.722 130.076 173.862 130.608 173.862 131.21C173.862 131.826 173.722 132.358 173.456 132.806C173.176 133.268 172.798 133.618 172.308 133.87C171.818 134.122 171.258 134.234 170.614 134.234H168.066V138H166.848V128.2H170.614ZM168.066 133.114H170.502C171.146 133.114 171.65 132.946 172.042 132.596C172.42 132.26 172.616 131.798 172.616 131.21C172.616 130.636 172.42 130.174 172.042 129.838C171.664 129.502 171.16 129.32 170.516 129.32H168.066V133.114ZM175.37 130.496C175.748 129.74 176.294 129.166 177.008 128.746C177.708 128.326 178.534 128.116 179.472 128.116C180.55 128.116 181.46 128.41 182.188 128.998C182.916 129.586 183.378 130.384 183.574 131.392H182.37C182.174 130.72 181.824 130.188 181.32 129.81C180.802 129.432 180.172 129.236 179.444 129.236C178.772 129.236 178.17 129.404 177.652 129.726C177.134 130.062 176.742 130.51 176.462 131.098C176.182 131.686 176.042 132.358 176.042 133.1C176.042 133.856 176.182 134.514 176.462 135.102C176.742 135.69 177.134 136.152 177.652 136.474C178.156 136.81 178.744 136.964 179.416 136.964C180.004 136.964 180.536 136.852 181.012 136.628C181.488 136.404 181.852 136.068 182.118 135.648C182.384 135.228 182.524 134.724 182.524 134.15V133.814H179.584V132.694H183.714V138H182.706L182.58 136.446C182.3 136.894 181.894 137.272 181.362 137.594C180.816 137.93 180.158 138.084 179.402 138.084C178.506 138.084 177.708 137.874 177.008 137.454C176.308 137.034 175.762 136.46 175.37 135.704C174.978 134.948 174.796 134.08 174.796 133.1C174.796 132.12 174.978 131.252 175.37 130.496ZM184.331 140.8L188.433 128.2H189.525L185.423 140.8H184.331ZM194.471 128.2C195.115 128.2 195.675 128.326 196.179 128.578C196.669 128.83 197.047 129.18 197.313 129.628C197.579 130.076 197.719 130.608 197.719 131.21C197.719 131.826 197.579 132.358 197.313 132.806C197.033 133.268 196.655 133.618 196.165 133.87C195.675 134.122 195.115 134.234 194.471 134.234H191.923V138H190.705V128.2H194.471ZM191.923 133.114H194.359C195.003 133.114 195.507 132.946 195.899 132.596C196.277 132.26 196.473 131.798 196.473 131.21C196.473 130.636 196.277 130.174 195.899 129.838C195.521 129.502 195.017 129.32 194.373 129.32H191.923V133.114ZM199.017 138V128.2H200.137L205.401 135.76V128.2H206.591V138H205.471L200.207 130.44V138H199.017ZM208.702 130.496C209.08 129.74 209.626 129.166 210.34 128.746C211.04 128.326 211.866 128.116 212.804 128.116C213.882 128.116 214.792 128.41 215.52 128.998C216.248 129.586 216.71 130.384 216.906 131.392H215.702C215.506 130.72 215.156 130.188 214.652 129.81C214.134 129.432 213.504 129.236 212.776 129.236C212.104 129.236 211.502 129.404 210.984 129.726C210.466 130.062 210.074 130.51 209.794 131.098C209.514 131.686 209.374 132.358 209.374 133.1C209.374 133.856 209.514 134.514 209.794 135.102C210.074 135.69 210.466 136.152 210.984 136.474C211.488 136.81 212.076 136.964 212.748 136.964C213.336 136.964 213.868 136.852 214.344 136.628C214.82 136.404 215.184 136.068 215.45 135.648C215.716 135.228 215.856 134.724 215.856 134.15V133.814H212.916V132.694H217.046V138H216.038L215.912 136.446C215.632 136.894 215.226 137.272 214.694 137.594C214.148 137.93 213.49 138.084 212.734 138.084C211.838 138.084 211.04 137.874 210.34 137.454C209.64 137.034 209.094 136.46 208.702 135.704C208.31 134.948 208.128 134.08 208.128 133.1C208.128 132.12 208.31 131.252 208.702 130.496Z" fill="#747474"/>
</svg>
